<?xml version="1.0" encoding="utf-8" standalone="no"?>
<!DOCTYPE svg PUBLIC "-//W3C//DTD SVG 1.1//EN"
  "http://www.w3.org/Graphics/SVG/1.1/DTD/svg11.dtd">
<svg xmlns:xlink="http://www.w3.org/1999/xlink" width="1016.39952pt" height="404.39952pt" viewBox="0 0 1016.39952 404.39952" xmlns="http://www.w3.org/2000/svg" version="1.1">
 <metadata>
  <rdf:RDF xmlns:dc="http://purl.org/dc/elements/1.1/" xmlns:cc="http://creativecommons.org/ns#" xmlns:rdf="http://www.w3.org/1999/02/22-rdf-syntax-ns#">
   <cc:Work>
    <dc:type rdf:resource="http://purl.org/dc/dcmitype/StillImage"/>
    <dc:format>image/svg+xml</dc:format>
    <dc:creator>
     <cc:Agent>
      <dc:title>Matplotlib v3.11.1, https://matplotlib.org/</dc:title>
     </cc:Agent>
    </dc:creator>
   </cc:Work>
  </rdf:RDF>
 </metadata>
 <defs>
  <style type="text/css">*{stroke-linejoin: round; stroke-linecap: butt}</style>
 </defs>
 <g id="figure_1">
  <g id="patch_1">
   <path d="M 0 404.39952
L 1016.39952 404.39952
L 1016.39952 0
L 0 0
z
" style="fill: #ffffff"/>
  </g>
  <g id="axes_1">
   <g id="patch_2">
    <path d="M 50.466406 366.197176
L 503.15976 366.197176
L 503.15976 43.319777
L 50.466406 43.319777
z
" style="fill: #ffffff"/>
   </g>
   <g id="matplotlib.axis_1">
    <g id="xtick_1">
     <g id="line2d_1">
      <path d="M 71.043377 366.197176
L 71.043377 43.319777
" clip-path="url(#p33ce3c79ba)" style="fill: none; stroke: #dddddd; stroke-width: 0.7; stroke-linecap: square"/>
     </g>
     <g id="line2d_2">
      <defs>
       <path id="mff076e6b73" d="M 0 0
L 0 3.5
" style="stroke: #000000; stroke-width: 0.8"/>
      </defs>
      <g>
       <use xlink:href="#mff076e6b73" x="71.043377" y="366.197176" style="stroke: #000000; stroke-width: 0.8"/>
      </g>
     </g>
     <g id="text_1">
      <!-- 0.25 -->
      <g transform="translate(59.910564 380.794832) scale(0.1 -0.1)">
       <defs>
        <path id="DejaVuSans-13" d="M 2034 4250
Q 1547 4250 1301 3770
Q 1056 3291 1056 2328
Q 1056 1369 1301 889
Q 1547 409 2034 409
Q 2525 409 2770 889
Q 3016 1369 3016 2328
Q 3016 3291 2770 3770
Q 2525 4250 2034 4250
z
M 2034 4750
Q 2819 4750 3233 4129
Q 3647 3509 3647 2328
Q 3647 1150 3233 529
Q 2819 -91 2034 -91
Q 1250 -91 836 529
Q 422 1150 422 2328
Q 422 3509 836 4129
Q 1250 4750 2034 4750
z
" transform="scale(0.015625)"/>
        <path id="DejaVuSans-11" d="M 684 794
L 1344 794
L 1344 0
L 684 0
L 684 794
z
" transform="scale(0.015625)"/>
        <path id="DejaVuSans-15" d="M 1228 531
L 3431 531
L 3431 0
L 469 0
L 469 531
Q 828 903 1448 1529
Q 2069 2156 2228 2338
Q 2531 2678 2651 2914
Q 2772 3150 2772 3378
Q 2772 3750 2511 3984
Q 2250 4219 1831 4219
Q 1534 4219 1204 4116
Q 875 4013 500 3803
L 500 4441
Q 881 4594 1212 4672
Q 1544 4750 1819 4750
Q 2544 4750 2975 4387
Q 3406 4025 3406 3419
Q 3406 3131 3298 2873
Q 3191 2616 2906 2266
Q 2828 2175 2409 1742
Q 1991 1309 1228 531
z
" transform="scale(0.015625)"/>
        <path id="DejaVuSans-18" d="M 691 4666
L 3169 4666
L 3169 4134
L 1269 4134
L 1269 2991
Q 1406 3038 1543 3061
Q 1681 3084 1819 3084
Q 2600 3084 3056 2656
Q 3513 2228 3513 1497
Q 3513 744 3044 326
Q 2575 -91 1722 -91
Q 1428 -91 1123 -41
Q 819 9 494 109
L 494 744
Q 775 591 1075 516
Q 1375 441 1709 441
Q 2250 441 2565 725
Q 2881 1009 2881 1497
Q 2881 1984 2565 2268
Q 2250 2553 1709 2553
Q 1456 2553 1204 2497
Q 953 2441 691 2322
L 691 4666
z
" transform="scale(0.015625)"/>
       </defs>
       <use xlink:href="#DejaVuSans-13"/>
       <use xlink:href="#DejaVuSans-11" transform="translate(63.625 0)"/>
       <use xlink:href="#DejaVuSans-15" transform="translate(95.40625 0)"/>
       <use xlink:href="#DejaVuSans-18" transform="translate(159.03125 0)"/>
      </g>
     </g>
    </g>
    <g id="xtick_2">
     <g id="line2d_3">
      <path d="M 173.92823 366.197176
L 173.92823 43.319777
" clip-path="url(#p33ce3c79ba)" style="fill: none; stroke: #dddddd; stroke-width: 0.7; stroke-linecap: square"/>
     </g>
     <g id="line2d_4">
      <g>
       <use xlink:href="#mff076e6b73" x="173.92823" y="366.197176" style="stroke: #000000; stroke-width: 0.8"/>
      </g>
     </g>
     <g id="text_2">
      <!-- 0.5 -->
      <g transform="translate(165.976667 380.794832) scale(0.1 -0.1)">
       <use xlink:href="#DejaVuSans-13"/>
       <use xlink:href="#DejaVuSans-11" transform="translate(63.625 0)"/>
       <use xlink:href="#DejaVuSans-18" transform="translate(95.40625 0)"/>
      </g>
     </g>
    </g>
    <g id="xtick_3">
     <g id="line2d_5">
      <path d="M 276.813083 366.197176
L 276.813083 43.319777
" clip-path="url(#p33ce3c79ba)" style="fill: none; stroke: #dddddd; stroke-width: 0.7; stroke-linecap: square"/>
     </g>
     <g id="line2d_6">
      <g>
       <use xlink:href="#mff076e6b73" x="276.813083" y="366.197176" style="stroke: #000000; stroke-width: 0.8"/>
      </g>
     </g>
     <g id="text_3">
      <!-- 1 -->
      <g transform="translate(273.631833 380.794832) scale(0.1 -0.1)">
       <defs>
        <path id="DejaVuSans-14" d="M 794 531
L 1825 531
L 1825 4091
L 703 3866
L 703 4441
L 1819 4666
L 2450 4666
L 2450 531
L 3481 531
L 3481 0
L 794 0
L 794 531
z
" transform="scale(0.015625)"/>
       </defs>
       <use xlink:href="#DejaVuSans-14"/>
      </g>
     </g>
    </g>
    <g id="xtick_4">
     <g id="line2d_7">
      <path d="M 379.697936 366.197176
L 379.697936 43.319777
" clip-path="url(#p33ce3c79ba)" style="fill: none; stroke: #dddddd; stroke-width: 0.7; stroke-linecap: square"/>
     </g>
     <g id="line2d_8">
      <g>
       <use xlink:href="#mff076e6b73" x="379.697936" y="366.197176" style="stroke: #000000; stroke-width: 0.8"/>
      </g>
     </g>
     <g id="text_4">
      <!-- 2 -->
      <g transform="translate(376.516686 380.794832) scale(0.1 -0.1)">
       <use xlink:href="#DejaVuSans-15"/>
      </g>
     </g>
    </g>
    <g id="xtick_5">
     <g id="line2d_9">
      <path d="M 482.582789 366.197176
L 482.582789 43.319777
" clip-path="url(#p33ce3c79ba)" style="fill: none; stroke: #dddddd; stroke-width: 0.7; stroke-linecap: square"/>
     </g>
     <g id="line2d_10">
      <g>
       <use xlink:href="#mff076e6b73" x="482.582789" y="366.197176" style="stroke: #000000; stroke-width: 0.8"/>
      </g>
     </g>
     <g id="text_5">
      <!-- 4 -->
      <g transform="translate(479.401539 380.794832) scale(0.1 -0.1)">
       <defs>
        <path id="DejaVuSans-17" d="M 2419 4116
L 825 1625
L 2419 1625
L 2419 4116
z
M 2253 4666
L 3047 4666
L 3047 1625
L 3713 1625
L 3713 1100
L 3047 1100
L 3047 0
L 2419 0
L 2419 1100
L 313 1100
L 313 1709
L 2253 4666
z
" transform="scale(0.015625)"/>
       </defs>
       <use xlink:href="#DejaVuSans-17"/>
      </g>
     </g>
    </g>
    <g id="text_6">
     <!-- Common scale $\kappa$ -->
     <g transform="translate(235.263083 394.797176) scale(0.1 -0.1)">
      <defs>
       <path id="DejaVuSans-26" d="M 4122 4306
L 4122 3641
Q 3803 3938 3442 4084
Q 3081 4231 2675 4231
Q 1875 4231 1450 3742
Q 1025 3253 1025 2328
Q 1025 1406 1450 917
Q 1875 428 2675 428
Q 3081 428 3442 575
Q 3803 722 4122 1019
L 4122 359
Q 3791 134 3420 21
Q 3050 -91 2638 -91
Q 1578 -91 968 557
Q 359 1206 359 2328
Q 359 3453 968 4101
Q 1578 4750 2638 4750
Q 3056 4750 3426 4639
Q 3797 4528 4122 4306
z
" transform="scale(0.015625)"/>
       <path id="DejaVuSans-52" d="M 1959 3097
Q 1497 3097 1228 2736
Q 959 2375 959 1747
Q 959 1119 1226 758
Q 1494 397 1959 397
Q 2419 397 2687 759
Q 2956 1122 2956 1747
Q 2956 2369 2687 2733
Q 2419 3097 1959 3097
z
M 1959 3584
Q 2709 3584 3137 3096
Q 3566 2609 3566 1747
Q 3566 888 3137 398
Q 2709 -91 1959 -91
Q 1206 -91 779 398
Q 353 888 353 1747
Q 353 2609 779 3096
Q 1206 3584 1959 3584
z
" transform="scale(0.015625)"/>
       <path id="DejaVuSans-50" d="M 3328 2828
Q 3544 3216 3844 3400
Q 4144 3584 4550 3584
Q 5097 3584 5394 3201
Q 5691 2819 5691 2113
L 5691 0
L 5113 0
L 5113 2094
Q 5113 2597 4934 2840
Q 4756 3084 4391 3084
Q 3944 3084 3684 2787
Q 3425 2491 3425 1978
L 3425 0
L 2847 0
L 2847 2094
Q 2847 2600 2669 2842
Q 2491 3084 2119 3084
Q 1678 3084 1418 2786
Q 1159 2488 1159 1978
L 1159 0
L 581 0
L 581 3500
L 1159 3500
L 1159 2956
Q 1356 3278 1631 3431
Q 1906 3584 2284 3584
Q 2666 3584 2933 3390
Q 3200 3197 3328 2828
z
" transform="scale(0.015625)"/>
       <path id="DejaVuSans-51" d="M 3513 2113
L 3513 0
L 2938 0
L 2938 2094
Q 2938 2591 2744 2837
Q 2550 3084 2163 3084
Q 1697 3084 1428 2787
Q 1159 2491 1159 1978
L 1159 0
L 581 0
L 581 3500
L 1159 3500
L 1159 2956
Q 1366 3272 1645 3428
Q 1925 3584 2291 3584
Q 2894 3584 3203 3211
Q 3513 2838 3513 2113
z
" transform="scale(0.015625)"/>
       <path id="DejaVuSans-3" transform="scale(0.015625)"/>
       <path id="DejaVuSans-56" d="M 2834 3397
L 2834 2853
Q 2591 2978 2328 3040
Q 2066 3103 1784 3103
Q 1356 3103 1142 2972
Q 928 2841 928 2578
Q 928 2378 1081 2264
Q 1234 2150 1697 2047
L 1894 2003
Q 2506 1872 2764 1633
Q 3022 1394 3022 966
Q 3022 478 2636 193
Q 2250 -91 1575 -91
Q 1294 -91 989 -36
Q 684 19 347 128
L 347 722
Q 666 556 975 473
Q 1284 391 1588 391
Q 1994 391 2212 530
Q 2431 669 2431 922
Q 2431 1156 2273 1281
Q 2116 1406 1581 1522
L 1381 1569
Q 847 1681 609 1914
Q 372 2147 372 2553
Q 372 3047 722 3315
Q 1072 3584 1716 3584
Q 2034 3584 2315 3537
Q 2597 3491 2834 3397
z
" transform="scale(0.015625)"/>
       <path id="DejaVuSans-46" d="M 3122 3366
L 3122 2828
Q 2878 2963 2633 3030
Q 2388 3097 2138 3097
Q 1578 3097 1268 2742
Q 959 2388 959 1747
Q 959 1106 1268 751
Q 1578 397 2138 397
Q 2388 397 2633 464
Q 2878 531 3122 666
L 3122 134
Q 2881 22 2623 -34
Q 2366 -91 2075 -91
Q 1284 -91 818 406
Q 353 903 353 1747
Q 353 2603 823 3093
Q 1294 3584 2113 3584
Q 2378 3584 2631 3529
Q 2884 3475 3122 3366
z
" transform="scale(0.015625)"/>
       <path id="DejaVuSans-44" d="M 2194 1759
Q 1497 1759 1228 1600
Q 959 1441 959 1056
Q 959 750 1161 570
Q 1363 391 1709 391
Q 2188 391 2477 730
Q 2766 1069 2766 1631
L 2766 1759
L 2194 1759
z
M 3341 1997
L 3341 0
L 2766 0
L 2766 531
Q 2569 213 2275 61
Q 1981 -91 1556 -91
Q 1019 -91 701 211
Q 384 513 384 1019
Q 384 1609 779 1909
Q 1175 2209 1959 2209
L 2766 2209
L 2766 2266
Q 2766 2663 2505 2880
Q 2244 3097 1772 3097
Q 1472 3097 1187 3025
Q 903 2953 641 2809
L 641 3341
Q 956 3463 1253 3523
Q 1550 3584 1831 3584
Q 2591 3584 2966 3190
Q 3341 2797 3341 1997
z
" transform="scale(0.015625)"/>
       <path id="DejaVuSans-4f" d="M 603 4863
L 1178 4863
L 1178 0
L 603 0
L 603 4863
z
" transform="scale(0.015625)"/>
       <path id="DejaVuSans-48" d="M 3597 1894
L 3597 1613
L 953 1613
Q 991 1019 1311 708
Q 1631 397 2203 397
Q 2534 397 2845 478
Q 3156 559 3463 722
L 3463 178
Q 3153 47 2828 -22
Q 2503 -91 2169 -91
Q 1331 -91 842 396
Q 353 884 353 1716
Q 353 2575 817 3079
Q 1281 3584 2069 3584
Q 2775 3584 3186 3129
Q 3597 2675 3597 1894
z
M 3022 2063
Q 3016 2534 2758 2815
Q 2500 3097 2075 3097
Q 1594 3097 1305 2825
Q 1016 2553 972 2059
L 3022 2063
z
" transform="scale(0.015625)"/>
       <path id="DejaVuSans-Oblique-34e" d="M 938 3500
L 1531 3500
L 1247 2047
L 3041 3500
L 3741 3500
L 2106 2181
L 3275 0
L 2572 0
L 1628 1806
L 1122 1403
L 850 0
L 256 0
L 938 3500
z
" transform="scale(0.015625)"/>
      </defs>
      <use xlink:href="#DejaVuSans-26" transform="translate(0 0.015625)"/>
      <use xlink:href="#DejaVuSans-52" transform="translate(69.824219 0.015625)"/>
      <use xlink:href="#DejaVuSans-50" transform="translate(131.005859 0.015625)"/>
      <use xlink:href="#DejaVuSans-50" transform="translate(228.417969 0.015625)"/>
      <use xlink:href="#DejaVuSans-52" transform="translate(325.830078 0.015625)"/>
      <use xlink:href="#DejaVuSans-51" transform="translate(387.011719 0.015625)"/>
      <use xlink:href="#DejaVuSans-3" transform="translate(450.390625 0.015625)"/>
      <use xlink:href="#DejaVuSans-56" transform="translate(482.177734 0.015625)"/>
      <use xlink:href="#DejaVuSans-46" transform="translate(534.277344 0.015625)"/>
      <use xlink:href="#DejaVuSans-44" transform="translate(589.257812 0.015625)"/>
      <use xlink:href="#DejaVuSans-4f" transform="translate(650.537109 0.015625)"/>
      <use xlink:href="#DejaVuSans-48" transform="translate(678.320312 0.015625)"/>
      <use xlink:href="#DejaVuSans-3" transform="translate(739.84375 0.015625)"/>
      <use xlink:href="#DejaVuSans-Oblique-34e" transform="translate(771.630859 0.015625)"/>
     </g>
    </g>
   </g>
   <g id="matplotlib.axis_2">
    <g id="ytick_1">
     <g id="line2d_11">
      <path d="M 50.466406 351.520931
L 503.15976 351.520931
" clip-path="url(#p33ce3c79ba)" style="fill: none; stroke: #dddddd; stroke-width: 0.7; stroke-linecap: square"/>
     </g>
     <g id="line2d_12">
      <defs>
       <path id="m758960be85" d="M 0 0
L -3.5 0
" style="stroke: #000000; stroke-width: 0.8"/>
      </defs>
      <g>
       <use xlink:href="#m758960be85" x="50.466406" y="351.520931" style="stroke: #000000; stroke-width: 0.8"/>
      </g>
     </g>
     <g id="text_7">
      <!-- 0.25 -->
      <g transform="translate(21.200781 355.319759) scale(0.1 -0.1)">
       <use xlink:href="#DejaVuSans-13"/>
       <use xlink:href="#DejaVuSans-11" transform="translate(63.625 0)"/>
       <use xlink:href="#DejaVuSans-15" transform="translate(95.40625 0)"/>
       <use xlink:href="#DejaVuSans-18" transform="translate(159.03125 0)"/>
      </g>
     </g>
    </g>
    <g id="ytick_2">
     <g id="line2d_13">
      <path d="M 50.466406 278.139704
L 503.15976 278.139704
" clip-path="url(#p33ce3c79ba)" style="fill: none; stroke: #dddddd; stroke-width: 0.7; stroke-linecap: square"/>
     </g>
     <g id="line2d_14">
      <g>
       <use xlink:href="#m758960be85" x="50.466406" y="278.139704" style="stroke: #000000; stroke-width: 0.8"/>
      </g>
     </g>
     <g id="text_8">
      <!-- 0.5 -->
      <g transform="translate(27.563281 281.938532) scale(0.1 -0.1)">
       <use xlink:href="#DejaVuSans-13"/>
       <use xlink:href="#DejaVuSans-11" transform="translate(63.625 0)"/>
       <use xlink:href="#DejaVuSans-18" transform="translate(95.40625 0)"/>
      </g>
     </g>
    </g>
    <g id="ytick_3">
     <g id="line2d_15">
      <path d="M 50.466406 204.758477
L 503.15976 204.758477
" clip-path="url(#p33ce3c79ba)" style="fill: none; stroke: #dddddd; stroke-width: 0.7; stroke-linecap: square"/>
     </g>
     <g id="line2d_16">
      <g>
       <use xlink:href="#m758960be85" x="50.466406" y="204.758477" style="stroke: #000000; stroke-width: 0.8"/>
      </g>
     </g>
     <g id="text_9">
      <!-- 1 -->
      <g transform="translate(37.103906 208.557305) scale(0.1 -0.1)">
       <use xlink:href="#DejaVuSans-14"/>
      </g>
     </g>
    </g>
    <g id="ytick_4">
     <g id="line2d_17">
      <path d="M 50.466406 131.377249
L 503.15976 131.377249
" clip-path="url(#p33ce3c79ba)" style="fill: none; stroke: #dddddd; stroke-width: 0.7; stroke-linecap: square"/>
     </g>
     <g id="line2d_18">
      <g>
       <use xlink:href="#m758960be85" x="50.466406" y="131.377249" style="stroke: #000000; stroke-width: 0.8"/>
      </g>
     </g>
     <g id="text_10">
      <!-- 2 -->
      <g transform="translate(37.103906 135.176078) scale(0.1 -0.1)">
       <use xlink:href="#DejaVuSans-15"/>
      </g>
     </g>
    </g>
    <g id="ytick_5">
     <g id="line2d_19">
      <path d="M 50.466406 57.996022
L 503.15976 57.996022
" clip-path="url(#p33ce3c79ba)" style="fill: none; stroke: #dddddd; stroke-width: 0.7; stroke-linecap: square"/>
     </g>
     <g id="line2d_20">
      <g>
       <use xlink:href="#m758960be85" x="50.466406" y="57.996022" style="stroke: #000000; stroke-width: 0.8"/>
      </g>
     </g>
     <g id="text_11">
      <!-- 4 -->
      <g transform="translate(37.103906 61.79485) scale(0.1 -0.1)">
       <use xlink:href="#DejaVuSans-17"/>
      </g>
     </g>
    </g>
    <g id="text_12">
     <!-- Metric / metric at κ=1 -->
     <g transform="translate(14.798438 259.786602) rotate(-90) scale(0.1 -0.1)">
      <defs>
       <path id="DejaVuSans-30" d="M 628 4666
L 1569 4666
L 2759 1491
L 3956 4666
L 4897 4666
L 4897 0
L 4281 0
L 4281 4097
L 3078 897
L 2444 897
L 1241 4097
L 1241 0
L 628 0
L 628 4666
z
" transform="scale(0.015625)"/>
       <path id="DejaVuSans-57" d="M 1172 4494
L 1172 3500
L 2356 3500
L 2356 3053
L 1172 3053
L 1172 1153
Q 1172 725 1289 603
Q 1406 481 1766 481
L 2356 481
L 2356 0
L 1766 0
Q 1100 0 847 248
Q 594 497 594 1153
L 594 3053
L 172 3053
L 172 3500
L 594 3500
L 594 4494
L 1172 4494
z
" transform="scale(0.015625)"/>
       <path id="DejaVuSans-55" d="M 2631 2963
Q 2534 3019 2420 3045
Q 2306 3072 2169 3072
Q 1681 3072 1420 2755
Q 1159 2438 1159 1844
L 1159 0
L 581 0
L 581 3500
L 1159 3500
L 1159 2956
Q 1341 3275 1631 3429
Q 1922 3584 2338 3584
Q 2397 3584 2469 3576
Q 2541 3569 2628 3553
L 2631 2963
z
" transform="scale(0.015625)"/>
       <path id="DejaVuSans-4c" d="M 603 3500
L 1178 3500
L 1178 0
L 603 0
L 603 3500
z
M 603 4863
L 1178 4863
L 1178 4134
L 603 4134
L 603 4863
z
" transform="scale(0.015625)"/>
       <path id="DejaVuSans-12" d="M 1625 4666
L 2156 4666
L 531 -594
L 0 -594
L 1625 4666
z
" transform="scale(0.015625)"/>
       <path id="DejaVuSans-34e" d="M 597 3500
L 1191 3500
L 1191 2047
L 2700 3500
L 3400 3500
L 2022 2181
L 3616 0
L 2913 0
L 1619 1806
L 1191 1403
L 1191 0
L 597 0
L 597 3500
z
" transform="scale(0.015625)"/>
       <path id="DejaVuSans-20" d="M 678 2906
L 4684 2906
L 4684 2381
L 678 2381
L 678 2906
z
M 678 1631
L 4684 1631
L 4684 1100
L 678 1100
L 678 1631
z
" transform="scale(0.015625)"/>
      </defs>
      <use xlink:href="#DejaVuSans-30"/>
      <use xlink:href="#DejaVuSans-48" transform="translate(86.28125 0)"/>
      <use xlink:href="#DejaVuSans-57" transform="translate(147.8125 0)"/>
      <use xlink:href="#DejaVuSans-55" transform="translate(187.015625 0)"/>
      <use xlink:href="#DejaVuSans-4c" transform="translate(228.125 0)"/>
      <use xlink:href="#DejaVuSans-46" transform="translate(255.90625 0)"/>
      <use xlink:href="#DejaVuSans-3" transform="translate(310.890625 0)"/>
      <use xlink:href="#DejaVuSans-12" transform="translate(342.671875 0)"/>
      <use xlink:href="#DejaVuSans-3" transform="translate(376.359375 0)"/>
      <use xlink:href="#DejaVuSans-50" transform="translate(408.140625 0)"/>
      <use xlink:href="#DejaVuSans-48" transform="translate(505.546875 0)"/>
      <use xlink:href="#DejaVuSans-57" transform="translate(567.078125 0)"/>
      <use xlink:href="#DejaVuSans-55" transform="translate(606.28125 0)"/>
      <use xlink:href="#DejaVuSans-4c" transform="translate(647.390625 0)"/>
      <use xlink:href="#DejaVuSans-46" transform="translate(675.171875 0)"/>
      <use xlink:href="#DejaVuSans-3" transform="translate(730.15625 0)"/>
      <use xlink:href="#DejaVuSans-44" transform="translate(761.9375 0)"/>
      <use xlink:href="#DejaVuSans-57" transform="translate(823.21875 0)"/>
      <use xlink:href="#DejaVuSans-3" transform="translate(862.421875 0)"/>
      <use xlink:href="#DejaVuSans-34e" transform="translate(894.203125 0)"/>
      <use xlink:href="#DejaVuSans-20" transform="translate(953.140625 0)"/>
      <use xlink:href="#DejaVuSans-14" transform="translate(1036.9375 0)"/>
     </g>
    </g>
   </g>
   <g id="line2d_21">
    <path d="M 71.043377 351.520931
L 173.92823 278.139704
L 276.813083 204.758477
L 379.697936 131.377249
L 482.582789 57.996022
" clip-path="url(#p33ce3c79ba)" style="fill: none; stroke: #0072b2; stroke-width: 1.5; stroke-linecap: square"/>
    <defs>
     <path id="m850bfdef19" d="M 0 3
C 0.795609 3 1.55874 2.683901 2.12132 2.12132
C 2.683901 1.55874 3 0.795609 3 0
C 3 -0.795609 2.683901 -1.55874 2.12132 -2.12132
C 1.55874 -2.683901 0.795609 -3 0 -3
C -0.795609 -3 -1.55874 -2.683901 -2.12132 -2.12132
C -2.683901 -1.55874 -3 -0.795609 -3 0
C -3 0.795609 -2.683901 1.55874 -2.12132 2.12132
C -1.55874 2.683901 -0.795609 3 0 3
z
" style="stroke: #0072b2"/>
    </defs>
    <g clip-path="url(#p33ce3c79ba)">
     <use xlink:href="#m850bfdef19" x="71.043377" y="351.520931" style="fill: #0072b2; stroke: #0072b2"/>
     <use xlink:href="#m850bfdef19" x="173.92823" y="278.139704" style="fill: #0072b2; stroke: #0072b2"/>
     <use xlink:href="#m850bfdef19" x="276.813083" y="204.758477" style="fill: #0072b2; stroke: #0072b2"/>
     <use xlink:href="#m850bfdef19" x="379.697936" y="131.377249" style="fill: #0072b2; stroke: #0072b2"/>
     <use xlink:href="#m850bfdef19" x="482.582789" y="57.996022" style="fill: #0072b2; stroke: #0072b2"/>
    </g>
   </g>
   <g id="line2d_22">
    <path d="M 71.043377 351.520931
L 173.92823 278.139704
L 276.813083 204.758477
L 379.697936 131.377249
L 482.582789 57.996022
" clip-path="url(#p33ce3c79ba)" style="fill: none; stroke-dasharray: 5.55,2.4; stroke-dashoffset: 0; stroke: #0072b2; stroke-opacity: 0.75; stroke-width: 1.5"/>
    <defs>
     <path id="m2bc50241be" d="M -3 3
L 3 -3
M -3 -3
L 3 3
" style="stroke: #0072b2; stroke-opacity: 0.75"/>
    </defs>
    <g clip-path="url(#p33ce3c79ba)">
     <use xlink:href="#m2bc50241be" x="71.043377" y="351.520931" style="fill: #0072b2; fill-opacity: 0.75; stroke: #0072b2; stroke-opacity: 0.75"/>
     <use xlink:href="#m2bc50241be" x="173.92823" y="278.139704" style="fill: #0072b2; fill-opacity: 0.75; stroke: #0072b2; stroke-opacity: 0.75"/>
     <use xlink:href="#m2bc50241be" x="276.813083" y="204.758477" style="fill: #0072b2; fill-opacity: 0.75; stroke: #0072b2; stroke-opacity: 0.75"/>
     <use xlink:href="#m2bc50241be" x="379.697936" y="131.377249" style="fill: #0072b2; fill-opacity: 0.75; stroke: #0072b2; stroke-opacity: 0.75"/>
     <use xlink:href="#m2bc50241be" x="482.582789" y="57.996022" style="fill: #0072b2; fill-opacity: 0.75; stroke: #0072b2; stroke-opacity: 0.75"/>
    </g>
   </g>
   <g id="line2d_23">
    <path d="M 71.043377 351.520931
L 173.92823 278.139704
L 276.813083 204.758477
L 379.697936 131.377249
L 482.582789 57.996022
" clip-path="url(#p33ce3c79ba)" style="fill: none; stroke: #d55e00; stroke-width: 1.5; stroke-linecap: square"/>
    <defs>
     <path id="m88b60daf30" d="M 0 3
C 0.795609 3 1.55874 2.683901 2.12132 2.12132
C 2.683901 1.55874 3 0.795609 3 0
C 3 -0.795609 2.683901 -1.55874 2.12132 -2.12132
C 1.55874 -2.683901 0.795609 -3 0 -3
C -0.795609 -3 -1.55874 -2.683901 -2.12132 -2.12132
C -2.683901 -1.55874 -3 -0.795609 -3 0
C -3 0.795609 -2.683901 1.55874 -2.12132 2.12132
C -1.55874 2.683901 -0.795609 3 0 3
z
" style="stroke: #d55e00"/>
    </defs>
    <g clip-path="url(#p33ce3c79ba)">
     <use xlink:href="#m88b60daf30" x="71.043377" y="351.520931" style="fill: #d55e00; stroke: #d55e00"/>
     <use xlink:href="#m88b60daf30" x="173.92823" y="278.139704" style="fill: #d55e00; stroke: #d55e00"/>
     <use xlink:href="#m88b60daf30" x="276.813083" y="204.758477" style="fill: #d55e00; stroke: #d55e00"/>
     <use xlink:href="#m88b60daf30" x="379.697936" y="131.377249" style="fill: #d55e00; stroke: #d55e00"/>
     <use xlink:href="#m88b60daf30" x="482.582789" y="57.996022" style="fill: #d55e00; stroke: #d55e00"/>
    </g>
   </g>
   <g id="line2d_24">
    <path d="M 71.043377 351.520931
L 173.92823 278.139704
L 276.813083 204.758477
L 379.697936 131.377249
L 482.582789 57.996022
" clip-path="url(#p33ce3c79ba)" style="fill: none; stroke-dasharray: 5.55,2.4; stroke-dashoffset: 0; stroke: #d55e00; stroke-opacity: 0.75; stroke-width: 1.5"/>
    <defs>
     <path id="mabc86f91b8" d="M -3 3
L 3 -3
M -3 -3
L 3 3
" style="stroke: #d55e00; stroke-opacity: 0.75"/>
    </defs>
    <g clip-path="url(#p33ce3c79ba)">
     <use xlink:href="#mabc86f91b8" x="71.043377" y="351.520931" style="fill: #d55e00; fill-opacity: 0.75; stroke: #d55e00; stroke-opacity: 0.75"/>
     <use xlink:href="#mabc86f91b8" x="173.92823" y="278.139704" style="fill: #d55e00; fill-opacity: 0.75; stroke: #d55e00; stroke-opacity: 0.75"/>
     <use xlink:href="#mabc86f91b8" x="276.813083" y="204.758477" style="fill: #d55e00; fill-opacity: 0.75; stroke: #d55e00; stroke-opacity: 0.75"/>
     <use xlink:href="#mabc86f91b8" x="379.697936" y="131.377249" style="fill: #d55e00; fill-opacity: 0.75; stroke: #d55e00; stroke-opacity: 0.75"/>
     <use xlink:href="#mabc86f91b8" x="482.582789" y="57.996022" style="fill: #d55e00; fill-opacity: 0.75; stroke: #d55e00; stroke-opacity: 0.75"/>
    </g>
   </g>
   <g id="line2d_25">
    <path d="M 71.043377 351.520931
L 173.92823 278.139704
L 276.813083 204.758477
L 379.697936 131.377249
L 482.582789 57.996022
" clip-path="url(#p33ce3c79ba)" style="fill: none; stroke: #009e73; stroke-width: 1.5; stroke-linecap: square"/>
    <defs>
     <path id="m0ca19ad62d" d="M 0 3
C 0.795609 3 1.55874 2.683901 2.12132 2.12132
C 2.683901 1.55874 3 0.795609 3 0
C 3 -0.795609 2.683901 -1.55874 2.12132 -2.12132
C 1.55874 -2.683901 0.795609 -3 0 -3
C -0.795609 -3 -1.55874 -2.683901 -2.12132 -2.12132
C -2.683901 -1.55874 -3 -0.795609 -3 0
C -3 0.795609 -2.683901 1.55874 -2.12132 2.12132
C -1.55874 2.683901 -0.795609 3 0 3
z
" style="stroke: #009e73"/>
    </defs>
    <g clip-path="url(#p33ce3c79ba)">
     <use xlink:href="#m0ca19ad62d" x="71.043377" y="351.520931" style="fill: #009e73; stroke: #009e73"/>
     <use xlink:href="#m0ca19ad62d" x="173.92823" y="278.139704" style="fill: #009e73; stroke: #009e73"/>
     <use xlink:href="#m0ca19ad62d" x="276.813083" y="204.758477" style="fill: #009e73; stroke: #009e73"/>
     <use xlink:href="#m0ca19ad62d" x="379.697936" y="131.377249" style="fill: #009e73; stroke: #009e73"/>
     <use xlink:href="#m0ca19ad62d" x="482.582789" y="57.996022" style="fill: #009e73; stroke: #009e73"/>
    </g>
   </g>
   <g id="line2d_26">
    <path d="M 71.043377 351.520931
L 173.92823 278.139704
L 276.813083 204.758477
L 379.697936 131.377249
L 482.582789 57.996022
" clip-path="url(#p33ce3c79ba)" style="fill: none; stroke-dasharray: 5.55,2.4; stroke-dashoffset: 0; stroke: #009e73; stroke-opacity: 0.75; stroke-width: 1.5"/>
    <defs>
     <path id="m7657ac981e" d="M -3 3
L 3 -3
M -3 -3
L 3 3
" style="stroke: #009e73; stroke-opacity: 0.75"/>
    </defs>
    <g clip-path="url(#p33ce3c79ba)">
     <use xlink:href="#m7657ac981e" x="71.043377" y="351.520931" style="fill: #009e73; fill-opacity: 0.75; stroke: #009e73; stroke-opacity: 0.75"/>
     <use xlink:href="#m7657ac981e" x="173.92823" y="278.139704" style="fill: #009e73; fill-opacity: 0.75; stroke: #009e73; stroke-opacity: 0.75"/>
     <use xlink:href="#m7657ac981e" x="276.813083" y="204.758477" style="fill: #009e73; fill-opacity: 0.75; stroke: #009e73; stroke-opacity: 0.75"/>
     <use xlink:href="#m7657ac981e" x="379.697936" y="131.377249" style="fill: #009e73; fill-opacity: 0.75; stroke: #009e73; stroke-opacity: 0.75"/>
     <use xlink:href="#m7657ac981e" x="482.582789" y="57.996022" style="fill: #009e73; fill-opacity: 0.75; stroke: #009e73; stroke-opacity: 0.75"/>
    </g>
   </g>
   <g id="line2d_27">
    <path d="M 71.043377 351.520931
L 173.92823 278.139704
L 276.813083 204.758477
L 379.697936 131.377249
L 482.582789 57.996022
" clip-path="url(#p33ce3c79ba)" style="fill: none; stroke: #cc79a7; stroke-width: 1.5; stroke-linecap: square"/>
    <defs>
     <path id="meaf0498805" d="M 0 3
C 0.795609 3 1.55874 2.683901 2.12132 2.12132
C 2.683901 1.55874 3 0.795609 3 0
C 3 -0.795609 2.683901 -1.55874 2.12132 -2.12132
C 1.55874 -2.683901 0.795609 -3 0 -3
C -0.795609 -3 -1.55874 -2.683901 -2.12132 -2.12132
C -2.683901 -1.55874 -3 -0.795609 -3 0
C -3 0.795609 -2.683901 1.55874 -2.12132 2.12132
C -1.55874 2.683901 -0.795609 3 0 3
z
" style="stroke: #cc79a7"/>
    </defs>
    <g clip-path="url(#p33ce3c79ba)">
     <use xlink:href="#meaf0498805" x="71.043377" y="351.520931" style="fill: #cc79a7; stroke: #cc79a7"/>
     <use xlink:href="#meaf0498805" x="173.92823" y="278.139704" style="fill: #cc79a7; stroke: #cc79a7"/>
     <use xlink:href="#meaf0498805" x="276.813083" y="204.758477" style="fill: #cc79a7; stroke: #cc79a7"/>
     <use xlink:href="#meaf0498805" x="379.697936" y="131.377249" style="fill: #cc79a7; stroke: #cc79a7"/>
     <use xlink:href="#meaf0498805" x="482.582789" y="57.996022" style="fill: #cc79a7; stroke: #cc79a7"/>
    </g>
   </g>
   <g id="line2d_28">
    <path d="M 71.043377 351.520931
L 173.92823 278.139704
L 276.813083 204.758477
L 379.697936 131.377249
L 482.582789 57.996022
" clip-path="url(#p33ce3c79ba)" style="fill: none; stroke-dasharray: 5.55,2.4; stroke-dashoffset: 0; stroke: #cc79a7; stroke-opacity: 0.75; stroke-width: 1.5"/>
    <defs>
     <path id="m1781df5483" d="M -3 3
L 3 -3
M -3 -3
L 3 3
" style="stroke: #cc79a7; stroke-opacity: 0.75"/>
    </defs>
    <g clip-path="url(#p33ce3c79ba)">
     <use xlink:href="#m1781df5483" x="71.043377" y="351.520931" style="fill: #cc79a7; fill-opacity: 0.75; stroke: #cc79a7; stroke-opacity: 0.75"/>
     <use xlink:href="#m1781df5483" x="173.92823" y="278.139704" style="fill: #cc79a7; fill-opacity: 0.75; stroke: #cc79a7; stroke-opacity: 0.75"/>
     <use xlink:href="#m1781df5483" x="276.813083" y="204.758477" style="fill: #cc79a7; fill-opacity: 0.75; stroke: #cc79a7; stroke-opacity: 0.75"/>
     <use xlink:href="#m1781df5483" x="379.697936" y="131.377249" style="fill: #cc79a7; fill-opacity: 0.75; stroke: #cc79a7; stroke-opacity: 0.75"/>
     <use xlink:href="#m1781df5483" x="482.582789" y="57.996022" style="fill: #cc79a7; fill-opacity: 0.75; stroke: #cc79a7; stroke-opacity: 0.75"/>
    </g>
   </g>
   <g id="line2d_29">
    <path d="M 71.043377 351.520931
L 482.582789 57.996022
" clip-path="url(#p33ce3c79ba)" style="fill: none; stroke: #222222; stroke-width: 1.2; stroke-linecap: square"/>
   </g>
   <g id="patch_3">
    <path d="M 50.466406 366.197176
L 50.466406 43.319777
" style="fill: none; stroke: #000000; stroke-width: 0.8; stroke-linejoin: miter; stroke-linecap: square"/>
   </g>
   <g id="patch_4">
    <path d="M 503.15976 366.197176
L 503.15976 43.319777
" style="fill: none; stroke: #000000; stroke-width: 0.8; stroke-linejoin: miter; stroke-linecap: square"/>
   </g>
   <g id="patch_5">
    <path d="M 50.466406 366.197176
L 503.15976 366.197176
" style="fill: none; stroke: #000000; stroke-width: 0.8; stroke-linejoin: miter; stroke-linecap: square"/>
   </g>
   <g id="patch_6">
    <path d="M 50.466406 43.319777
L 503.15976 43.319777
" style="fill: none; stroke: #000000; stroke-width: 0.8; stroke-linejoin: miter; stroke-linecap: square"/>
   </g>
   <g id="text_13">
    <!-- Makespan scaling -->
    <g transform="translate(216.763396 37.319777) scale(0.12 -0.12)">
     <defs>
      <path id="DejaVuSans-Bold-30" d="M 588 4666
L 2119 4666
L 3181 2169
L 4250 4666
L 5778 4666
L 5778 0
L 4641 0
L 4641 3413
L 3566 897
L 2803 897
L 1728 3413
L 1728 0
L 588 0
L 588 4666
z
" transform="scale(0.015625)"/>
      <path id="DejaVuSans-Bold-44" d="M 2106 1575
Q 1756 1575 1579 1456
Q 1403 1338 1403 1106
Q 1403 894 1545 773
Q 1688 653 1941 653
Q 2256 653 2472 879
Q 2688 1106 2688 1447
L 2688 1575
L 2106 1575
z
M 3816 1997
L 3816 0
L 2688 0
L 2688 519
Q 2463 200 2181 54
Q 1900 -91 1497 -91
Q 953 -91 614 226
Q 275 544 275 1050
Q 275 1666 698 1953
Q 1122 2241 2028 2241
L 2688 2241
L 2688 2328
Q 2688 2594 2478 2717
Q 2269 2841 1825 2841
Q 1466 2841 1156 2769
Q 847 2697 581 2553
L 581 3406
Q 941 3494 1303 3539
Q 1666 3584 2028 3584
Q 2975 3584 3395 3211
Q 3816 2838 3816 1997
z
" transform="scale(0.015625)"/>
      <path id="DejaVuSans-Bold-4e" d="M 538 4863
L 1656 4863
L 1656 2216
L 2944 3500
L 4244 3500
L 2534 1894
L 4378 0
L 3022 0
L 1656 1459
L 1656 0
L 538 0
L 538 4863
z
" transform="scale(0.015625)"/>
      <path id="DejaVuSans-Bold-48" d="M 4031 1759
L 4031 1441
L 1416 1441
Q 1456 1047 1700 850
Q 1944 653 2381 653
Q 2734 653 3104 758
Q 3475 863 3866 1075
L 3866 213
Q 3469 63 3072 -14
Q 2675 -91 2278 -91
Q 1328 -91 801 392
Q 275 875 275 1747
Q 275 2603 792 3093
Q 1309 3584 2216 3584
Q 3041 3584 3536 3087
Q 4031 2591 4031 1759
z
M 2881 2131
Q 2881 2450 2695 2645
Q 2509 2841 2209 2841
Q 1884 2841 1681 2658
Q 1478 2475 1428 2131
L 2881 2131
z
" transform="scale(0.015625)"/>
      <path id="DejaVuSans-Bold-56" d="M 3272 3391
L 3272 2541
Q 2913 2691 2578 2766
Q 2244 2841 1947 2841
Q 1628 2841 1473 2761
Q 1319 2681 1319 2516
Q 1319 2381 1436 2309
Q 1553 2238 1856 2203
L 2053 2175
Q 2913 2066 3209 1816
Q 3506 1566 3506 1031
Q 3506 472 3093 190
Q 2681 -91 1863 -91
Q 1516 -91 1145 -36
Q 775 19 384 128
L 384 978
Q 719 816 1070 734
Q 1422 653 1784 653
Q 2113 653 2278 743
Q 2444 834 2444 1013
Q 2444 1163 2330 1236
Q 2216 1309 1875 1350
L 1678 1375
Q 931 1469 631 1722
Q 331 1975 331 2491
Q 331 3047 712 3315
Q 1094 3584 1881 3584
Q 2191 3584 2531 3537
Q 2872 3491 3272 3391
z
" transform="scale(0.015625)"/>
      <path id="DejaVuSans-Bold-53" d="M 1656 506
L 1656 -1331
L 538 -1331
L 538 3500
L 1656 3500
L 1656 2988
Q 1888 3294 2169 3439
Q 2450 3584 2816 3584
Q 3463 3584 3878 3070
Q 4294 2556 4294 1747
Q 4294 938 3878 423
Q 3463 -91 2816 -91
Q 2450 -91 2169 54
Q 1888 200 1656 506
z
M 2400 2772
Q 2041 2772 1848 2508
Q 1656 2244 1656 1747
Q 1656 1250 1848 986
Q 2041 722 2400 722
Q 2759 722 2948 984
Q 3138 1247 3138 1747
Q 3138 2247 2948 2509
Q 2759 2772 2400 2772
z
" transform="scale(0.015625)"/>
      <path id="DejaVuSans-Bold-51" d="M 4056 2131
L 4056 0
L 2931 0
L 2931 347
L 2931 1631
Q 2931 2084 2911 2256
Q 2891 2428 2841 2509
Q 2775 2619 2662 2680
Q 2550 2741 2406 2741
Q 2056 2741 1856 2470
Q 1656 2200 1656 1722
L 1656 0
L 538 0
L 538 3500
L 1656 3500
L 1656 2988
Q 1909 3294 2193 3439
Q 2478 3584 2822 3584
Q 3428 3584 3742 3212
Q 4056 2841 4056 2131
z
" transform="scale(0.015625)"/>
      <path id="DejaVuSans-Bold-3" transform="scale(0.015625)"/>
      <path id="DejaVuSans-Bold-46" d="M 3366 3391
L 3366 2478
Q 3138 2634 2908 2709
Q 2678 2784 2431 2784
Q 1963 2784 1702 2511
Q 1441 2238 1441 1747
Q 1441 1256 1702 982
Q 1963 709 2431 709
Q 2694 709 2930 787
Q 3166 866 3366 1019
L 3366 103
Q 3103 6 2833 -42
Q 2563 -91 2291 -91
Q 1344 -91 809 395
Q 275 881 275 1747
Q 275 2613 809 3098
Q 1344 3584 2291 3584
Q 2566 3584 2833 3536
Q 3100 3488 3366 3391
z
" transform="scale(0.015625)"/>
      <path id="DejaVuSans-Bold-4f" d="M 538 4863
L 1656 4863
L 1656 0
L 538 0
L 538 4863
z
" transform="scale(0.015625)"/>
      <path id="DejaVuSans-Bold-4c" d="M 538 3500
L 1656 3500
L 1656 0
L 538 0
L 538 3500
z
M 538 4863
L 1656 4863
L 1656 3950
L 538 3950
L 538 4863
z
" transform="scale(0.015625)"/>
      <path id="DejaVuSans-Bold-4a" d="M 2919 594
Q 2688 288 2409 144
Q 2131 0 1766 0
Q 1125 0 706 504
Q 288 1009 288 1791
Q 288 2575 706 3076
Q 1125 3578 1766 3578
Q 2131 3578 2409 3434
Q 2688 3291 2919 2981
L 2919 3500
L 4044 3500
L 4044 353
Q 4044 -491 3511 -936
Q 2978 -1381 1966 -1381
Q 1638 -1381 1331 -1331
Q 1025 -1281 716 -1178
L 716 -306
Q 1009 -475 1290 -558
Q 1572 -641 1856 -641
Q 2406 -641 2662 -400
Q 2919 -159 2919 353
L 2919 594
z
M 2181 2772
Q 1834 2772 1640 2515
Q 1447 2259 1447 1791
Q 1447 1309 1634 1061
Q 1822 813 2181 813
Q 2531 813 2725 1069
Q 2919 1325 2919 1791
Q 2919 2259 2725 2515
Q 2531 2772 2181 2772
z
" transform="scale(0.015625)"/>
     </defs>
     <use xlink:href="#DejaVuSans-Bold-30"/>
     <use xlink:href="#DejaVuSans-Bold-44" transform="translate(99.515625 0)"/>
     <use xlink:href="#DejaVuSans-Bold-4e" transform="translate(167 0)"/>
     <use xlink:href="#DejaVuSans-Bold-48" transform="translate(230.8125 0)"/>
     <use xlink:href="#DejaVuSans-Bold-56" transform="translate(298.640625 0)"/>
     <use xlink:href="#DejaVuSans-Bold-53" transform="translate(358.15625 0)"/>
     <use xlink:href="#DejaVuSans-Bold-44" transform="translate(429.734375 0)"/>
     <use xlink:href="#DejaVuSans-Bold-51" transform="translate(497.21875 0)"/>
     <use xlink:href="#DejaVuSans-Bold-3" transform="translate(568.40625 0)"/>
     <use xlink:href="#DejaVuSans-Bold-56" transform="translate(603.21875 0)"/>
     <use xlink:href="#DejaVuSans-Bold-46" transform="translate(662.734375 0)"/>
     <use xlink:href="#DejaVuSans-Bold-44" transform="translate(722.015625 0)"/>
     <use xlink:href="#DejaVuSans-Bold-4f" transform="translate(789.5 0)"/>
     <use xlink:href="#DejaVuSans-Bold-4c" transform="translate(823.78125 0)"/>
     <use xlink:href="#DejaVuSans-Bold-51" transform="translate(858.0625 0)"/>
     <use xlink:href="#DejaVuSans-Bold-4a" transform="translate(929.25 0)"/>
    </g>
   </g>
   <g id="legend_1">
    <g id="line2d_30">
     <path d="M 57.666406 53.798527
L 65.666406 53.798527
L 73.666406 53.798527
" style="fill: none; stroke: #0072b2; stroke-width: 1.5; stroke-linecap: square"/>
     <g>
      <use xlink:href="#m850bfdef19" x="65.666406" y="53.798527" style="fill: #0072b2; stroke: #0072b2"/>
     </g>
    </g>
    <g id="text_14">
     <!-- practical_variant_3 -->
     <g transform="translate(80.066406 56.598527) scale(0.08 -0.08)">
      <defs>
       <path id="DejaVuSans-53" d="M 1159 525
L 1159 -1331
L 581 -1331
L 581 3500
L 1159 3500
L 1159 2969
Q 1341 3281 1617 3432
Q 1894 3584 2278 3584
Q 2916 3584 3314 3078
Q 3713 2572 3713 1747
Q 3713 922 3314 415
Q 2916 -91 2278 -91
Q 1894 -91 1617 61
Q 1341 213 1159 525
z
M 3116 1747
Q 3116 2381 2855 2742
Q 2594 3103 2138 3103
Q 1681 3103 1420 2742
Q 1159 2381 1159 1747
Q 1159 1113 1420 752
Q 1681 391 2138 391
Q 2594 391 2855 752
Q 3116 1113 3116 1747
z
" transform="scale(0.015625)"/>
       <path id="DejaVuSans-42" d="M 3263 -1063
L 3263 -1509
L -63 -1509
L -63 -1063
L 3263 -1063
z
" transform="scale(0.015625)"/>
       <path id="DejaVuSans-59" d="M 191 3500
L 800 3500
L 1894 563
L 2988 3500
L 3597 3500
L 2284 0
L 1503 0
L 191 3500
z
" transform="scale(0.015625)"/>
       <path id="DejaVuSans-16" d="M 2597 2516
Q 3050 2419 3304 2112
Q 3559 1806 3559 1356
Q 3559 666 3084 287
Q 2609 -91 1734 -91
Q 1441 -91 1130 -33
Q 819 25 488 141
L 488 750
Q 750 597 1062 519
Q 1375 441 1716 441
Q 2309 441 2620 675
Q 2931 909 2931 1356
Q 2931 1769 2642 2001
Q 2353 2234 1838 2234
L 1294 2234
L 1294 2753
L 1863 2753
Q 2328 2753 2575 2939
Q 2822 3125 2822 3475
Q 2822 3834 2567 4026
Q 2313 4219 1838 4219
Q 1578 4219 1281 4162
Q 984 4106 628 3988
L 628 4550
Q 988 4650 1302 4700
Q 1616 4750 1894 4750
Q 2613 4750 3031 4423
Q 3450 4097 3450 3541
Q 3450 3153 3228 2886
Q 3006 2619 2597 2516
z
" transform="scale(0.015625)"/>
      </defs>
      <use xlink:href="#DejaVuSans-53"/>
      <use xlink:href="#DejaVuSans-55" transform="translate(63.484375 0)"/>
      <use xlink:href="#DejaVuSans-44" transform="translate(104.59375 0)"/>
      <use xlink:href="#DejaVuSans-46" transform="translate(165.875 0)"/>
      <use xlink:href="#DejaVuSans-57" transform="translate(220.859375 0)"/>
      <use xlink:href="#DejaVuSans-4c" transform="translate(260.0625 0)"/>
      <use xlink:href="#DejaVuSans-46" transform="translate(287.84375 0)"/>
      <use xlink:href="#DejaVuSans-44" transform="translate(342.828125 0)"/>
      <use xlink:href="#DejaVuSans-4f" transform="translate(404.109375 0)"/>
      <use xlink:href="#DejaVuSans-42" transform="translate(431.890625 0)"/>
      <use xlink:href="#DejaVuSans-59" transform="translate(481.890625 0)"/>
      <use xlink:href="#DejaVuSans-44" transform="translate(541.078125 0)"/>
      <use xlink:href="#DejaVuSans-55" transform="translate(602.359375 0)"/>
      <use xlink:href="#DejaVuSans-4c" transform="translate(643.46875 0)"/>
      <use xlink:href="#DejaVuSans-44" transform="translate(671.25 0)"/>
      <use xlink:href="#DejaVuSans-51" transform="translate(732.53125 0)"/>
      <use xlink:href="#DejaVuSans-57" transform="translate(795.90625 0)"/>
      <use xlink:href="#DejaVuSans-42" transform="translate(835.109375 0)"/>
      <use xlink:href="#DejaVuSans-16" transform="translate(885.109375 0)"/>
     </g>
    </g>
    <g id="line2d_31">
     <path d="M 57.666406 65.799152
L 65.666406 65.799152
L 73.666406 65.799152
" style="fill: none; stroke: #d55e00; stroke-width: 1.5; stroke-linecap: square"/>
     <g>
      <use xlink:href="#m88b60daf30" x="65.666406" y="65.799152" style="fill: #d55e00; stroke: #d55e00"/>
     </g>
    </g>
    <g id="text_15">
     <!-- practical_variant_4 -->
     <g transform="translate(80.066406 68.599152) scale(0.08 -0.08)">
      <use xlink:href="#DejaVuSans-53"/>
      <use xlink:href="#DejaVuSans-55" transform="translate(63.484375 0)"/>
      <use xlink:href="#DejaVuSans-44" transform="translate(104.59375 0)"/>
      <use xlink:href="#DejaVuSans-46" transform="translate(165.875 0)"/>
      <use xlink:href="#DejaVuSans-57" transform="translate(220.859375 0)"/>
      <use xlink:href="#DejaVuSans-4c" transform="translate(260.0625 0)"/>
      <use xlink:href="#DejaVuSans-46" transform="translate(287.84375 0)"/>
      <use xlink:href="#DejaVuSans-44" transform="translate(342.828125 0)"/>
      <use xlink:href="#DejaVuSans-4f" transform="translate(404.109375 0)"/>
      <use xlink:href="#DejaVuSans-42" transform="translate(431.890625 0)"/>
      <use xlink:href="#DejaVuSans-59" transform="translate(481.890625 0)"/>
      <use xlink:href="#DejaVuSans-44" transform="translate(541.078125 0)"/>
      <use xlink:href="#DejaVuSans-55" transform="translate(602.359375 0)"/>
      <use xlink:href="#DejaVuSans-4c" transform="translate(643.46875 0)"/>
      <use xlink:href="#DejaVuSans-44" transform="translate(671.25 0)"/>
      <use xlink:href="#DejaVuSans-51" transform="translate(732.53125 0)"/>
      <use xlink:href="#DejaVuSans-57" transform="translate(795.90625 0)"/>
      <use xlink:href="#DejaVuSans-42" transform="translate(835.109375 0)"/>
      <use xlink:href="#DejaVuSans-17" transform="translate(885.109375 0)"/>
     </g>
    </g>
    <g id="line2d_32">
     <path d="M 57.666406 77.799777
L 65.666406 77.799777
L 73.666406 77.799777
" style="fill: none; stroke: #009e73; stroke-width: 1.5; stroke-linecap: square"/>
     <g>
      <use xlink:href="#m0ca19ad62d" x="65.666406" y="77.799777" style="fill: #009e73; stroke: #009e73"/>
     </g>
    </g>
    <g id="text_16">
     <!-- canonical_m1 -->
     <g transform="translate(80.066406 80.599777) scale(0.08 -0.08)">
      <use xlink:href="#DejaVuSans-46"/>
      <use xlink:href="#DejaVuSans-44" transform="translate(54.984375 0)"/>
      <use xlink:href="#DejaVuSans-51" transform="translate(116.265625 0)"/>
      <use xlink:href="#DejaVuSans-52" transform="translate(179.640625 0)"/>
      <use xlink:href="#DejaVuSans-51" transform="translate(240.828125 0)"/>
      <use xlink:href="#DejaVuSans-4c" transform="translate(304.203125 0)"/>
      <use xlink:href="#DejaVuSans-46" transform="translate(331.984375 0)"/>
      <use xlink:href="#DejaVuSans-44" transform="translate(386.96875 0)"/>
      <use xlink:href="#DejaVuSans-4f" transform="translate(448.25 0)"/>
      <use xlink:href="#DejaVuSans-42" transform="translate(476.03125 0)"/>
      <use xlink:href="#DejaVuSans-50" transform="translate(526.03125 0)"/>
      <use xlink:href="#DejaVuSans-14" transform="translate(623.4375 0)"/>
     </g>
    </g>
    <g id="line2d_33">
     <path d="M 57.666406 89.800402
L 65.666406 89.800402
L 73.666406 89.800402
" style="fill: none; stroke: #cc79a7; stroke-width: 1.5; stroke-linecap: square"/>
     <g>
      <use xlink:href="#meaf0498805" x="65.666406" y="89.800402" style="fill: #cc79a7; stroke: #cc79a7"/>
     </g>
    </g>
    <g id="text_17">
     <!-- canonical_m3_mixed_overhead -->
     <g transform="translate(80.066406 92.600402) scale(0.08 -0.08)">
      <defs>
       <path id="DejaVuSans-5b" d="M 3513 3500
L 2247 1797
L 3578 0
L 2900 0
L 1881 1375
L 863 0
L 184 0
L 1544 1831
L 300 3500
L 978 3500
L 1906 2253
L 2834 3500
L 3513 3500
z
" transform="scale(0.015625)"/>
       <path id="DejaVuSans-47" d="M 2906 2969
L 2906 4863
L 3481 4863
L 3481 0
L 2906 0
L 2906 525
Q 2725 213 2448 61
Q 2172 -91 1784 -91
Q 1150 -91 751 415
Q 353 922 353 1747
Q 353 2572 751 3078
Q 1150 3584 1784 3584
Q 2172 3584 2448 3432
Q 2725 3281 2906 2969
z
M 947 1747
Q 947 1113 1208 752
Q 1469 391 1925 391
Q 2381 391 2643 752
Q 2906 1113 2906 1747
Q 2906 2381 2643 2742
Q 2381 3103 1925 3103
Q 1469 3103 1208 2742
Q 947 2381 947 1747
z
" transform="scale(0.015625)"/>
       <path id="DejaVuSans-4b" d="M 3513 2113
L 3513 0
L 2938 0
L 2938 2094
Q 2938 2591 2744 2837
Q 2550 3084 2163 3084
Q 1697 3084 1428 2787
Q 1159 2491 1159 1978
L 1159 0
L 581 0
L 581 4863
L 1159 4863
L 1159 2956
Q 1366 3272 1645 3428
Q 1925 3584 2291 3584
Q 2894 3584 3203 3211
Q 3513 2838 3513 2113
z
" transform="scale(0.015625)"/>
      </defs>
      <use xlink:href="#DejaVuSans-46"/>
      <use xlink:href="#DejaVuSans-44" transform="translate(54.984375 0)"/>
      <use xlink:href="#DejaVuSans-51" transform="translate(116.265625 0)"/>
      <use xlink:href="#DejaVuSans-52" transform="translate(179.640625 0)"/>
      <use xlink:href="#DejaVuSans-51" transform="translate(240.828125 0)"/>
      <use xlink:href="#DejaVuSans-4c" transform="translate(304.203125 0)"/>
      <use xlink:href="#DejaVuSans-46" transform="translate(331.984375 0)"/>
      <use xlink:href="#DejaVuSans-44" transform="translate(386.96875 0)"/>
      <use xlink:href="#DejaVuSans-4f" transform="translate(448.25 0)"/>
      <use xlink:href="#DejaVuSans-42" transform="translate(476.03125 0)"/>
      <use xlink:href="#DejaVuSans-50" transform="translate(526.03125 0)"/>
      <use xlink:href="#DejaVuSans-16" transform="translate(623.4375 0)"/>
      <use xlink:href="#DejaVuSans-42" transform="translate(687.0625 0)"/>
      <use xlink:href="#DejaVuSans-50" transform="translate(737.0625 0)"/>
      <use xlink:href="#DejaVuSans-4c" transform="translate(834.46875 0)"/>
      <use xlink:href="#DejaVuSans-5b" transform="translate(862.25 0)"/>
      <use xlink:href="#DejaVuSans-48" transform="translate(918.359375 0)"/>
      <use xlink:href="#DejaVuSans-47" transform="translate(979.890625 0)"/>
      <use xlink:href="#DejaVuSans-42" transform="translate(1043.375 0)"/>
      <use xlink:href="#DejaVuSans-52" transform="translate(1093.375 0)"/>
      <use xlink:href="#DejaVuSans-59" transform="translate(1154.5625 0)"/>
      <use xlink:href="#DejaVuSans-48" transform="translate(1213.75 0)"/>
      <use xlink:href="#DejaVuSans-55" transform="translate(1275.28125 0)"/>
      <use xlink:href="#DejaVuSans-4b" transform="translate(1314.640625 0)"/>
      <use xlink:href="#DejaVuSans-48" transform="translate(1378.015625 0)"/>
      <use xlink:href="#DejaVuSans-44" transform="translate(1439.546875 0)"/>
      <use xlink:href="#DejaVuSans-47" transform="translate(1500.828125 0)"/>
     </g>
    </g>
    <g id="line2d_34">
     <path d="M 57.666406 101.801027
L 65.666406 101.801027
L 73.666406 101.801027
" style="fill: none; stroke: #222222; stroke-width: 1.2; stroke-linecap: square"/>
    </g>
    <g id="text_18">
     <!-- ideal y=κ -->
     <g transform="translate(80.066406 104.601027) scale(0.08 -0.08)">
      <defs>
       <path id="DejaVuSans-5c" d="M 2059 -325
Q 1816 -950 1584 -1140
Q 1353 -1331 966 -1331
L 506 -1331
L 506 -850
L 844 -850
Q 1081 -850 1212 -737
Q 1344 -625 1503 -206
L 1606 56
L 191 3500
L 800 3500
L 1894 763
L 2988 3500
L 3597 3500
L 2059 -325
z
" transform="scale(0.015625)"/>
      </defs>
      <use xlink:href="#DejaVuSans-4c"/>
      <use xlink:href="#DejaVuSans-47" transform="translate(27.78125 0)"/>
      <use xlink:href="#DejaVuSans-48" transform="translate(91.265625 0)"/>
      <use xlink:href="#DejaVuSans-44" transform="translate(152.796875 0)"/>
      <use xlink:href="#DejaVuSans-4f" transform="translate(214.078125 0)"/>
      <use xlink:href="#DejaVuSans-3" transform="translate(241.859375 0)"/>
      <use xlink:href="#DejaVuSans-5c" transform="translate(273.640625 0)"/>
      <use xlink:href="#DejaVuSans-20" transform="translate(332.828125 0)"/>
      <use xlink:href="#DejaVuSans-34e" transform="translate(416.625 0)"/>
     </g>
    </g>
   </g>
  </g>
  <g id="axes_2">
   <g id="patch_7">
    <path d="M 556.506166 366.197176
L 1009.19952 366.197176
L 1009.19952 43.319777
L 556.506166 43.319777
z
" style="fill: #ffffff"/>
   </g>
   <g id="matplotlib.axis_3">
    <g id="xtick_6">
     <g id="line2d_35">
      <path d="M 577.083137 366.197176
L 577.083137 43.319777
" clip-path="url(#p69348b1481)" style="fill: none; stroke: #dddddd; stroke-width: 0.7; stroke-linecap: square"/>
     </g>
     <g id="line2d_36">
      <g>
       <use xlink:href="#mff076e6b73" x="577.083137" y="366.197176" style="stroke: #000000; stroke-width: 0.8"/>
      </g>
     </g>
     <g id="text_19">
      <!-- 0.25 -->
      <g transform="translate(565.950324 380.794832) scale(0.1 -0.1)">
       <use xlink:href="#DejaVuSans-13"/>
       <use xlink:href="#DejaVuSans-11" transform="translate(63.625 0)"/>
       <use xlink:href="#DejaVuSans-15" transform="translate(95.40625 0)"/>
       <use xlink:href="#DejaVuSans-18" transform="translate(159.03125 0)"/>
      </g>
     </g>
    </g>
    <g id="xtick_7">
     <g id="line2d_37">
      <path d="M 679.96799 366.197176
L 679.96799 43.319777
" clip-path="url(#p69348b1481)" style="fill: none; stroke: #dddddd; stroke-width: 0.7; stroke-linecap: square"/>
     </g>
     <g id="line2d_38">
      <g>
       <use xlink:href="#mff076e6b73" x="679.96799" y="366.197176" style="stroke: #000000; stroke-width: 0.8"/>
      </g>
     </g>
     <g id="text_20">
      <!-- 0.5 -->
      <g transform="translate(672.016427 380.794832) scale(0.1 -0.1)">
       <use xlink:href="#DejaVuSans-13"/>
       <use xlink:href="#DejaVuSans-11" transform="translate(63.625 0)"/>
       <use xlink:href="#DejaVuSans-18" transform="translate(95.40625 0)"/>
      </g>
     </g>
    </g>
    <g id="xtick_8">
     <g id="line2d_39">
      <path d="M 782.852843 366.197176
L 782.852843 43.319777
" clip-path="url(#p69348b1481)" style="fill: none; stroke: #dddddd; stroke-width: 0.7; stroke-linecap: square"/>
     </g>
     <g id="line2d_40">
      <g>
       <use xlink:href="#mff076e6b73" x="782.852843" y="366.197176" style="stroke: #000000; stroke-width: 0.8"/>
      </g>
     </g>
     <g id="text_21">
      <!-- 1 -->
      <g transform="translate(779.671593 380.794832) scale(0.1 -0.1)">
       <use xlink:href="#DejaVuSans-14"/>
      </g>
     </g>
    </g>
    <g id="xtick_9">
     <g id="line2d_41">
      <path d="M 885.737696 366.197176
L 885.737696 43.319777
" clip-path="url(#p69348b1481)" style="fill: none; stroke: #dddddd; stroke-width: 0.7; stroke-linecap: square"/>
     </g>
     <g id="line2d_42">
      <g>
       <use xlink:href="#mff076e6b73" x="885.737696" y="366.197176" style="stroke: #000000; stroke-width: 0.8"/>
      </g>
     </g>
     <g id="text_22">
      <!-- 2 -->
      <g transform="translate(882.556446 380.794832) scale(0.1 -0.1)">
       <use xlink:href="#DejaVuSans-15"/>
      </g>
     </g>
    </g>
    <g id="xtick_10">
     <g id="line2d_43">
      <path d="M 988.622549 366.197176
L 988.622549 43.319777
" clip-path="url(#p69348b1481)" style="fill: none; stroke: #dddddd; stroke-width: 0.7; stroke-linecap: square"/>
     </g>
     <g id="line2d_44">
      <g>
       <use xlink:href="#mff076e6b73" x="988.622549" y="366.197176" style="stroke: #000000; stroke-width: 0.8"/>
      </g>
     </g>
     <g id="text_23">
      <!-- 4 -->
      <g transform="translate(985.441299 380.794832) scale(0.1 -0.1)">
       <use xlink:href="#DejaVuSans-17"/>
      </g>
     </g>
    </g>
    <g id="text_24">
     <!-- Common scale $\kappa$ -->
     <g transform="translate(741.302843 394.797176) scale(0.1 -0.1)">
      <use xlink:href="#DejaVuSans-26" transform="translate(0 0.015625)"/>
      <use xlink:href="#DejaVuSans-52" transform="translate(69.824219 0.015625)"/>
      <use xlink:href="#DejaVuSans-50" transform="translate(131.005859 0.015625)"/>
      <use xlink:href="#DejaVuSans-50" transform="translate(228.417969 0.015625)"/>
      <use xlink:href="#DejaVuSans-52" transform="translate(325.830078 0.015625)"/>
      <use xlink:href="#DejaVuSans-51" transform="translate(387.011719 0.015625)"/>
      <use xlink:href="#DejaVuSans-3" transform="translate(450.390625 0.015625)"/>
      <use xlink:href="#DejaVuSans-56" transform="translate(482.177734 0.015625)"/>
      <use xlink:href="#DejaVuSans-46" transform="translate(534.277344 0.015625)"/>
      <use xlink:href="#DejaVuSans-44" transform="translate(589.257812 0.015625)"/>
      <use xlink:href="#DejaVuSans-4f" transform="translate(650.537109 0.015625)"/>
      <use xlink:href="#DejaVuSans-48" transform="translate(678.320312 0.015625)"/>
      <use xlink:href="#DejaVuSans-3" transform="translate(739.84375 0.015625)"/>
      <use xlink:href="#DejaVuSans-Oblique-34e" transform="translate(771.630859 0.015625)"/>
     </g>
    </g>
   </g>
   <g id="matplotlib.axis_4">
    <g id="ytick_6">
     <g id="line2d_45">
      <path d="M 556.506166 351.520931
L 1009.19952 351.520931
" clip-path="url(#p69348b1481)" style="fill: none; stroke: #dddddd; stroke-width: 0.7; stroke-linecap: square"/>
     </g>
     <g id="line2d_46">
      <g>
       <use xlink:href="#m758960be85" x="556.506166" y="351.520931" style="stroke: #000000; stroke-width: 0.8"/>
      </g>
     </g>
     <g id="text_25">
      <!-- 0.25 -->
      <g transform="translate(527.240541 355.319759) scale(0.1 -0.1)">
       <use xlink:href="#DejaVuSans-13"/>
       <use xlink:href="#DejaVuSans-11" transform="translate(63.625 0)"/>
       <use xlink:href="#DejaVuSans-15" transform="translate(95.40625 0)"/>
       <use xlink:href="#DejaVuSans-18" transform="translate(159.03125 0)"/>
      </g>
     </g>
    </g>
    <g id="ytick_7">
     <g id="line2d_47">
      <path d="M 556.506166 278.139704
L 1009.19952 278.139704
" clip-path="url(#p69348b1481)" style="fill: none; stroke: #dddddd; stroke-width: 0.7; stroke-linecap: square"/>
     </g>
     <g id="line2d_48">
      <g>
       <use xlink:href="#m758960be85" x="556.506166" y="278.139704" style="stroke: #000000; stroke-width: 0.8"/>
      </g>
     </g>
     <g id="text_26">
      <!-- 0.5 -->
      <g transform="translate(533.603041 281.938532) scale(0.1 -0.1)">
       <use xlink:href="#DejaVuSans-13"/>
       <use xlink:href="#DejaVuSans-11" transform="translate(63.625 0)"/>
       <use xlink:href="#DejaVuSans-18" transform="translate(95.40625 0)"/>
      </g>
     </g>
    </g>
    <g id="ytick_8">
     <g id="line2d_49">
      <path d="M 556.506166 204.758477
L 1009.19952 204.758477
" clip-path="url(#p69348b1481)" style="fill: none; stroke: #dddddd; stroke-width: 0.7; stroke-linecap: square"/>
     </g>
     <g id="line2d_50">
      <g>
       <use xlink:href="#m758960be85" x="556.506166" y="204.758477" style="stroke: #000000; stroke-width: 0.8"/>
      </g>
     </g>
     <g id="text_27">
      <!-- 1 -->
      <g transform="translate(543.143666 208.557305) scale(0.1 -0.1)">
       <use xlink:href="#DejaVuSans-14"/>
      </g>
     </g>
    </g>
    <g id="ytick_9">
     <g id="line2d_51">
      <path d="M 556.506166 131.377249
L 1009.19952 131.377249
" clip-path="url(#p69348b1481)" style="fill: none; stroke: #dddddd; stroke-width: 0.7; stroke-linecap: square"/>
     </g>
     <g id="line2d_52">
      <g>
       <use xlink:href="#m758960be85" x="556.506166" y="131.377249" style="stroke: #000000; stroke-width: 0.8"/>
      </g>
     </g>
     <g id="text_28">
      <!-- 2 -->
      <g transform="translate(543.143666 135.176078) scale(0.1 -0.1)">
       <use xlink:href="#DejaVuSans-15"/>
      </g>
     </g>
    </g>
    <g id="ytick_10">
     <g id="line2d_53">
      <path d="M 556.506166 57.996022
L 1009.19952 57.996022
" clip-path="url(#p69348b1481)" style="fill: none; stroke: #dddddd; stroke-width: 0.7; stroke-linecap: square"/>
     </g>
     <g id="line2d_54">
      <g>
       <use xlink:href="#m758960be85" x="556.506166" y="57.996022" style="stroke: #000000; stroke-width: 0.8"/>
      </g>
     </g>
     <g id="text_29">
      <!-- 4 -->
      <g transform="translate(543.143666 61.79485) scale(0.1 -0.1)">
       <use xlink:href="#DejaVuSans-17"/>
      </g>
     </g>
    </g>
    <g id="text_30">
     <!-- Metric / metric at κ=1 -->
     <g transform="translate(520.838197 259.786602) rotate(-90) scale(0.1 -0.1)">
      <use xlink:href="#DejaVuSans-30"/>
      <use xlink:href="#DejaVuSans-48" transform="translate(86.28125 0)"/>
      <use xlink:href="#DejaVuSans-57" transform="translate(147.8125 0)"/>
      <use xlink:href="#DejaVuSans-55" transform="translate(187.015625 0)"/>
      <use xlink:href="#DejaVuSans-4c" transform="translate(228.125 0)"/>
      <use xlink:href="#DejaVuSans-46" transform="translate(255.90625 0)"/>
      <use xlink:href="#DejaVuSans-3" transform="translate(310.890625 0)"/>
      <use xlink:href="#DejaVuSans-12" transform="translate(342.671875 0)"/>
      <use xlink:href="#DejaVuSans-3" transform="translate(376.359375 0)"/>
      <use xlink:href="#DejaVuSans-50" transform="translate(408.140625 0)"/>
      <use xlink:href="#DejaVuSans-48" transform="translate(505.546875 0)"/>
      <use xlink:href="#DejaVuSans-57" transform="translate(567.078125 0)"/>
      <use xlink:href="#DejaVuSans-55" transform="translate(606.28125 0)"/>
      <use xlink:href="#DejaVuSans-4c" transform="translate(647.390625 0)"/>
      <use xlink:href="#DejaVuSans-46" transform="translate(675.171875 0)"/>
      <use xlink:href="#DejaVuSans-3" transform="translate(730.15625 0)"/>
      <use xlink:href="#DejaVuSans-44" transform="translate(761.9375 0)"/>
      <use xlink:href="#DejaVuSans-57" transform="translate(823.21875 0)"/>
      <use xlink:href="#DejaVuSans-3" transform="translate(862.421875 0)"/>
      <use xlink:href="#DejaVuSans-34e" transform="translate(894.203125 0)"/>
      <use xlink:href="#DejaVuSans-20" transform="translate(953.140625 0)"/>
      <use xlink:href="#DejaVuSans-14" transform="translate(1036.9375 0)"/>
     </g>
    </g>
   </g>
   <g id="line2d_55">
    <path d="M 577.083137 351.520931
L 679.96799 278.139704
L 782.852843 204.758477
L 885.737696 131.377249
L 988.622549 57.996022
" clip-path="url(#p69348b1481)" style="fill: none; stroke-dasharray: 5.55,2.4; stroke-dashoffset: 0; stroke: #0072b2; stroke-opacity: 0.75; stroke-width: 1.5"/>
    <g clip-path="url(#p69348b1481)">
     <use xlink:href="#m2bc50241be" x="577.083137" y="351.520931" style="fill: #0072b2; fill-opacity: 0.75; stroke: #0072b2; stroke-opacity: 0.75"/>
     <use xlink:href="#m2bc50241be" x="679.96799" y="278.139704" style="fill: #0072b2; fill-opacity: 0.75; stroke: #0072b2; stroke-opacity: 0.75"/>
     <use xlink:href="#m2bc50241be" x="782.852843" y="204.758477" style="fill: #0072b2; fill-opacity: 0.75; stroke: #0072b2; stroke-opacity: 0.75"/>
     <use xlink:href="#m2bc50241be" x="885.737696" y="131.377249" style="fill: #0072b2; fill-opacity: 0.75; stroke: #0072b2; stroke-opacity: 0.75"/>
     <use xlink:href="#m2bc50241be" x="988.622549" y="57.996022" style="fill: #0072b2; fill-opacity: 0.75; stroke: #0072b2; stroke-opacity: 0.75"/>
    </g>
   </g>
   <g id="line2d_56">
    <path d="M 577.083137 351.520931
L 679.96799 278.139704
L 782.852843 204.758477
L 885.737696 131.377249
L 988.622549 57.996022
" clip-path="url(#p69348b1481)" style="fill: none; stroke-dasharray: 5.55,2.4; stroke-dashoffset: 0; stroke: #d55e00; stroke-opacity: 0.75; stroke-width: 1.5"/>
    <g clip-path="url(#p69348b1481)">
     <use xlink:href="#mabc86f91b8" x="577.083137" y="351.520931" style="fill: #d55e00; fill-opacity: 0.75; stroke: #d55e00; stroke-opacity: 0.75"/>
     <use xlink:href="#mabc86f91b8" x="679.96799" y="278.139704" style="fill: #d55e00; fill-opacity: 0.75; stroke: #d55e00; stroke-opacity: 0.75"/>
     <use xlink:href="#mabc86f91b8" x="782.852843" y="204.758477" style="fill: #d55e00; fill-opacity: 0.75; stroke: #d55e00; stroke-opacity: 0.75"/>
     <use xlink:href="#mabc86f91b8" x="885.737696" y="131.377249" style="fill: #d55e00; fill-opacity: 0.75; stroke: #d55e00; stroke-opacity: 0.75"/>
     <use xlink:href="#mabc86f91b8" x="988.622549" y="57.996022" style="fill: #d55e00; fill-opacity: 0.75; stroke: #d55e00; stroke-opacity: 0.75"/>
    </g>
   </g>
   <g id="line2d_57">
    <path d="M 577.083137 351.520931
L 679.96799 278.139704
L 782.852843 204.758477
L 885.737696 131.377249
L 988.622549 57.996022
" clip-path="url(#p69348b1481)" style="fill: none; stroke-dasharray: 5.55,2.4; stroke-dashoffset: 0; stroke: #009e73; stroke-opacity: 0.75; stroke-width: 1.5"/>
    <g clip-path="url(#p69348b1481)">
     <use xlink:href="#m7657ac981e" x="577.083137" y="351.520931" style="fill: #009e73; fill-opacity: 0.75; stroke: #009e73; stroke-opacity: 0.75"/>
     <use xlink:href="#m7657ac981e" x="679.96799" y="278.139704" style="fill: #009e73; fill-opacity: 0.75; stroke: #009e73; stroke-opacity: 0.75"/>
     <use xlink:href="#m7657ac981e" x="782.852843" y="204.758477" style="fill: #009e73; fill-opacity: 0.75; stroke: #009e73; stroke-opacity: 0.75"/>
     <use xlink:href="#m7657ac981e" x="885.737696" y="131.377249" style="fill: #009e73; fill-opacity: 0.75; stroke: #009e73; stroke-opacity: 0.75"/>
     <use xlink:href="#m7657ac981e" x="988.622549" y="57.996022" style="fill: #009e73; fill-opacity: 0.75; stroke: #009e73; stroke-opacity: 0.75"/>
    </g>
   </g>
   <g id="line2d_58">
    <path d="M 577.083137 351.520931
L 679.96799 278.139704
L 782.852843 204.758477
L 885.737696 131.377249
L 988.622549 57.996022
" clip-path="url(#p69348b1481)" style="fill: none; stroke: #cc79a7; stroke-width: 1.5; stroke-linecap: square"/>
    <g clip-path="url(#p69348b1481)">
     <use xlink:href="#meaf0498805" x="577.083137" y="351.520931" style="fill: #cc79a7; stroke: #cc79a7"/>
     <use xlink:href="#meaf0498805" x="679.96799" y="278.139704" style="fill: #cc79a7; stroke: #cc79a7"/>
     <use xlink:href="#meaf0498805" x="782.852843" y="204.758477" style="fill: #cc79a7; stroke: #cc79a7"/>
     <use xlink:href="#meaf0498805" x="885.737696" y="131.377249" style="fill: #cc79a7; stroke: #cc79a7"/>
     <use xlink:href="#meaf0498805" x="988.622549" y="57.996022" style="fill: #cc79a7; stroke: #cc79a7"/>
    </g>
   </g>
   <g id="line2d_59">
    <path d="M 577.083137 351.520931
L 679.96799 278.139704
L 782.852843 204.758477
L 885.737696 131.377249
L 988.622549 57.996022
" clip-path="url(#p69348b1481)" style="fill: none; stroke-dasharray: 5.55,2.4; stroke-dashoffset: 0; stroke: #cc79a7; stroke-opacity: 0.75; stroke-width: 1.5"/>
    <g clip-path="url(#p69348b1481)">
     <use xlink:href="#m1781df5483" x="577.083137" y="351.520931" style="fill: #cc79a7; fill-opacity: 0.75; stroke: #cc79a7; stroke-opacity: 0.75"/>
     <use xlink:href="#m1781df5483" x="679.96799" y="278.139704" style="fill: #cc79a7; fill-opacity: 0.75; stroke: #cc79a7; stroke-opacity: 0.75"/>
     <use xlink:href="#m1781df5483" x="782.852843" y="204.758477" style="fill: #cc79a7; fill-opacity: 0.75; stroke: #cc79a7; stroke-opacity: 0.75"/>
     <use xlink:href="#m1781df5483" x="885.737696" y="131.377249" style="fill: #cc79a7; fill-opacity: 0.75; stroke: #cc79a7; stroke-opacity: 0.75"/>
     <use xlink:href="#m1781df5483" x="988.622549" y="57.996022" style="fill: #cc79a7; fill-opacity: 0.75; stroke: #cc79a7; stroke-opacity: 0.75"/>
    </g>
   </g>
   <g id="line2d_60">
    <path d="M 577.083137 351.520931
L 988.622549 57.996022
" clip-path="url(#p69348b1481)" style="fill: none; stroke: #222222; stroke-width: 1.2; stroke-linecap: square"/>
   </g>
   <g id="patch_8">
    <path d="M 556.506166 366.197176
L 556.506166 43.319777
" style="fill: none; stroke: #000000; stroke-width: 0.8; stroke-linejoin: miter; stroke-linecap: square"/>
   </g>
   <g id="patch_9">
    <path d="M 1009.19952 366.197176
L 1009.19952 43.319777
" style="fill: none; stroke: #000000; stroke-width: 0.8; stroke-linejoin: miter; stroke-linecap: square"/>
   </g>
   <g id="patch_10">
    <path d="M 556.506166 366.197176
L 1009.19952 366.197176
" style="fill: none; stroke: #000000; stroke-width: 0.8; stroke-linejoin: miter; stroke-linecap: square"/>
   </g>
   <g id="patch_11">
    <path d="M 556.506166 43.319777
L 1009.19952 43.319777
" style="fill: none; stroke: #000000; stroke-width: 0.8; stroke-linejoin: miter; stroke-linecap: square"/>
   </g>
   <g id="text_31">
    <!-- Queue scaling (non-zero references) -->
    <g transform="translate(659.460031 37.319777) scale(0.12 -0.12)">
     <defs>
      <path id="DejaVuSans-Bold-34" d="M 2847 -84
L 2753 -84
Q 1600 -84 959 553
Q 319 1191 319 2328
Q 319 3463 958 4106
Q 1597 4750 2719 4750
Q 3853 4750 4486 4112
Q 5119 3475 5119 2328
Q 5119 1541 4783 972
Q 4447 403 3816 116
L 4756 -934
L 3609 -934
L 2847 -84
z
M 2719 3878
Q 2169 3878 1866 3472
Q 1563 3066 1563 2328
Q 1563 1578 1859 1179
Q 2156 781 2719 781
Q 3272 781 3575 1187
Q 3878 1594 3878 2328
Q 3878 3066 3575 3472
Q 3272 3878 2719 3878
z
" transform="scale(0.015625)"/>
      <path id="DejaVuSans-Bold-58" d="M 500 1363
L 500 3500
L 1625 3500
L 1625 3150
Q 1625 2866 1622 2436
Q 1619 2006 1619 1863
Q 1619 1441 1641 1255
Q 1663 1069 1716 984
Q 1784 875 1895 815
Q 2006 756 2150 756
Q 2500 756 2700 1025
Q 2900 1294 2900 1772
L 2900 3500
L 4019 3500
L 4019 0
L 2900 0
L 2900 506
Q 2647 200 2364 54
Q 2081 -91 1741 -91
Q 1134 -91 817 281
Q 500 653 500 1363
z
" transform="scale(0.015625)"/>
      <path id="DejaVuSans-Bold-b" d="M 2413 -844
L 1484 -844
Q 1006 -72 778 623
Q 550 1319 550 2003
Q 550 2688 779 3389
Q 1009 4091 1484 4856
L 2413 4856
Q 2013 4116 1813 3408
Q 1613 2700 1613 2009
Q 1613 1319 1811 609
Q 2009 -100 2413 -844
z
" transform="scale(0.015625)"/>
      <path id="DejaVuSans-Bold-52" d="M 2203 2784
Q 1831 2784 1636 2517
Q 1441 2250 1441 1747
Q 1441 1244 1636 976
Q 1831 709 2203 709
Q 2569 709 2762 976
Q 2956 1244 2956 1747
Q 2956 2250 2762 2517
Q 2569 2784 2203 2784
z
M 2203 3584
Q 3106 3584 3614 3096
Q 4122 2609 4122 1747
Q 4122 884 3614 396
Q 3106 -91 2203 -91
Q 1297 -91 786 396
Q 275 884 275 1747
Q 275 2609 786 3096
Q 1297 3584 2203 3584
z
" transform="scale(0.015625)"/>
      <path id="DejaVuSans-Bold-10" d="M 347 2297
L 2309 2297
L 2309 1388
L 347 1388
L 347 2297
z
" transform="scale(0.015625)"/>
      <path id="DejaVuSans-Bold-5d" d="M 366 3500
L 3419 3500
L 3419 2719
L 1575 800
L 3419 800
L 3419 0
L 288 0
L 288 781
L 2131 2700
L 366 2700
L 366 3500
z
" transform="scale(0.015625)"/>
      <path id="DejaVuSans-Bold-55" d="M 3138 2547
Q 2991 2616 2845 2648
Q 2700 2681 2553 2681
Q 2122 2681 1889 2404
Q 1656 2128 1656 1613
L 1656 0
L 538 0
L 538 3500
L 1656 3500
L 1656 2925
Q 1872 3269 2151 3426
Q 2431 3584 2822 3584
Q 2878 3584 2943 3579
Q 3009 3575 3134 3559
L 3138 2547
z
" transform="scale(0.015625)"/>
      <path id="DejaVuSans-Bold-49" d="M 2841 4863
L 2841 4128
L 2222 4128
Q 1984 4128 1890 4042
Q 1797 3956 1797 3744
L 1797 3500
L 2753 3500
L 2753 2700
L 1797 2700
L 1797 0
L 678 0
L 678 2700
L 122 2700
L 122 3500
L 678 3500
L 678 3744
Q 678 4316 997 4589
Q 1316 4863 1984 4863
L 2841 4863
z
" transform="scale(0.015625)"/>
      <path id="DejaVuSans-Bold-c" d="M 513 -844
Q 913 -100 1113 609
Q 1313 1319 1313 2009
Q 1313 2700 1113 3408
Q 913 4116 513 4856
L 1441 4856
Q 1916 4091 2145 3389
Q 2375 2688 2375 2003
Q 2375 1319 2147 623
Q 1919 -72 1441 -844
L 513 -844
z
" transform="scale(0.015625)"/>
     </defs>
     <use xlink:href="#DejaVuSans-Bold-34"/>
     <use xlink:href="#DejaVuSans-Bold-58" transform="translate(85.015625 0)"/>
     <use xlink:href="#DejaVuSans-Bold-48" transform="translate(156.203125 0)"/>
     <use xlink:href="#DejaVuSans-Bold-58" transform="translate(224.03125 0)"/>
     <use xlink:href="#DejaVuSans-Bold-48" transform="translate(295.21875 0)"/>
     <use xlink:href="#DejaVuSans-Bold-3" transform="translate(363.046875 0)"/>
     <use xlink:href="#DejaVuSans-Bold-56" transform="translate(397.859375 0)"/>
     <use xlink:href="#DejaVuSans-Bold-46" transform="translate(457.375 0)"/>
     <use xlink:href="#DejaVuSans-Bold-44" transform="translate(516.65625 0)"/>
     <use xlink:href="#DejaVuSans-Bold-4f" transform="translate(584.140625 0)"/>
     <use xlink:href="#DejaVuSans-Bold-4c" transform="translate(618.421875 0)"/>
     <use xlink:href="#DejaVuSans-Bold-51" transform="translate(652.703125 0)"/>
     <use xlink:href="#DejaVuSans-Bold-4a" transform="translate(723.890625 0)"/>
     <use xlink:href="#DejaVuSans-Bold-3" transform="translate(795.46875 0)"/>
     <use xlink:href="#DejaVuSans-Bold-b" transform="translate(830.28125 0)"/>
     <use xlink:href="#DejaVuSans-Bold-51" transform="translate(875.984375 0)"/>
     <use xlink:href="#DejaVuSans-Bold-52" transform="translate(947.171875 0)"/>
     <use xlink:href="#DejaVuSans-Bold-51" transform="translate(1015.875 0)"/>
     <use xlink:href="#DejaVuSans-Bold-10" transform="translate(1087.0625 0)"/>
     <use xlink:href="#DejaVuSans-Bold-5d" transform="translate(1128.5625 0)"/>
     <use xlink:href="#DejaVuSans-Bold-48" transform="translate(1186.765625 0)"/>
     <use xlink:href="#DejaVuSans-Bold-55" transform="translate(1254.59375 0)"/>
     <use xlink:href="#DejaVuSans-Bold-52" transform="translate(1303.90625 0)"/>
     <use xlink:href="#DejaVuSans-Bold-3" transform="translate(1372.609375 0)"/>
     <use xlink:href="#DejaVuSans-Bold-55" transform="translate(1407.421875 0)"/>
     <use xlink:href="#DejaVuSans-Bold-48" transform="translate(1456.734375 0)"/>
     <use xlink:href="#DejaVuSans-Bold-49" transform="translate(1524.5625 0)"/>
     <use xlink:href="#DejaVuSans-Bold-48" transform="translate(1568.0625 0)"/>
     <use xlink:href="#DejaVuSans-Bold-55" transform="translate(1635.890625 0)"/>
     <use xlink:href="#DejaVuSans-Bold-48" transform="translate(1685.203125 0)"/>
     <use xlink:href="#DejaVuSans-Bold-51" transform="translate(1753.03125 0)"/>
     <use xlink:href="#DejaVuSans-Bold-46" transform="translate(1824.21875 0)"/>
     <use xlink:href="#DejaVuSans-Bold-48" transform="translate(1883.5 0)"/>
     <use xlink:href="#DejaVuSans-Bold-56" transform="translate(1951.328125 0)"/>
     <use xlink:href="#DejaVuSans-Bold-c" transform="translate(2010.84375 0)"/>
    </g>
   </g>
  </g>
  <g id="text_32">
   <!-- EXP-06A: common-scale invariance -->
   <g transform="translate(359.688041 18.597656) scale(0.15 -0.15)">
    <defs>
     <path id="DejaVuSans-Bold-28" d="M 588 4666
L 3834 4666
L 3834 3756
L 1791 3756
L 1791 2888
L 3713 2888
L 3713 1978
L 1791 1978
L 1791 909
L 3903 909
L 3903 0
L 588 0
L 588 4666
z
" transform="scale(0.015625)"/>
     <path id="DejaVuSans-Bold-3b" d="M 3188 2381
L 4806 0
L 3553 0
L 2463 1594
L 1381 0
L 122 0
L 1741 2381
L 184 4666
L 1441 4666
L 2463 3163
L 3481 4666
L 4744 4666
L 3188 2381
z
" transform="scale(0.015625)"/>
     <path id="DejaVuSans-Bold-33" d="M 588 4666
L 2584 4666
Q 3475 4666 3951 4270
Q 4428 3875 4428 3144
Q 4428 2409 3951 2014
Q 3475 1619 2584 1619
L 1791 1619
L 1791 0
L 588 0
L 588 4666
z
M 1791 3794
L 1791 2491
L 2456 2491
Q 2806 2491 2997 2661
Q 3188 2831 3188 3144
Q 3188 3456 2997 3625
Q 2806 3794 2456 3794
L 1791 3794
z
" transform="scale(0.015625)"/>
     <path id="DejaVuSans-Bold-13" d="M 2944 2338
Q 2944 3213 2780 3570
Q 2616 3928 2228 3928
Q 1841 3928 1675 3570
Q 1509 3213 1509 2338
Q 1509 1453 1675 1090
Q 1841 728 2228 728
Q 2613 728 2778 1090
Q 2944 1453 2944 2338
z
M 4147 2328
Q 4147 1169 3647 539
Q 3147 -91 2228 -91
Q 1306 -91 806 539
Q 306 1169 306 2328
Q 306 3491 806 4120
Q 1306 4750 2228 4750
Q 3147 4750 3647 4120
Q 4147 3491 4147 2328
z
" transform="scale(0.015625)"/>
     <path id="DejaVuSans-Bold-19" d="M 2316 2303
Q 2000 2303 1842 2098
Q 1684 1894 1684 1484
Q 1684 1075 1842 870
Q 2000 666 2316 666
Q 2634 666 2792 870
Q 2950 1075 2950 1484
Q 2950 1894 2792 2098
Q 2634 2303 2316 2303
z
M 3803 4544
L 3803 3681
Q 3506 3822 3243 3889
Q 2981 3956 2731 3956
Q 2194 3956 1894 3657
Q 1594 3359 1544 2772
Q 1750 2925 1990 3001
Q 2231 3078 2516 3078
Q 3231 3078 3670 2659
Q 4109 2241 4109 1563
Q 4109 813 3618 361
Q 3128 -91 2303 -91
Q 1394 -91 895 523
Q 397 1138 397 2266
Q 397 3422 980 4083
Q 1563 4744 2578 4744
Q 2900 4744 3203 4694
Q 3506 4644 3803 4544
z
" transform="scale(0.015625)"/>
     <path id="DejaVuSans-Bold-24" d="M 3419 850
L 1538 850
L 1241 0
L 31 0
L 1759 4666
L 3194 4666
L 4922 0
L 3713 0
L 3419 850
z
M 1838 1716
L 3116 1716
L 2478 3572
L 1838 1716
z
" transform="scale(0.015625)"/>
     <path id="DejaVuSans-Bold-1d" d="M 716 3500
L 1844 3500
L 1844 2291
L 716 2291
L 716 3500
z
M 716 1209
L 1844 1209
L 1844 0
L 716 0
L 716 1209
z
" transform="scale(0.015625)"/>
     <path id="DejaVuSans-Bold-50" d="M 3781 2919
Q 3994 3244 4286 3414
Q 4578 3584 4928 3584
Q 5531 3584 5847 3212
Q 6163 2841 6163 2131
L 6163 0
L 5038 0
L 5038 1825
Q 5041 1866 5042 1909
Q 5044 1953 5044 2034
Q 5044 2406 4934 2573
Q 4825 2741 4581 2741
Q 4263 2741 4089 2478
Q 3916 2216 3909 1719
L 3909 0
L 2784 0
L 2784 1825
Q 2784 2406 2684 2573
Q 2584 2741 2328 2741
Q 2006 2741 1831 2477
Q 1656 2213 1656 1722
L 1656 0
L 531 0
L 531 3500
L 1656 3500
L 1656 2988
Q 1863 3284 2130 3434
Q 2397 3584 2719 3584
Q 3081 3584 3359 3409
Q 3638 3234 3781 2919
z
" transform="scale(0.015625)"/>
     <path id="DejaVuSans-Bold-59" d="M 97 3500
L 1216 3500
L 2088 1081
L 2956 3500
L 4078 3500
L 2700 0
L 1472 0
L 97 3500
z
" transform="scale(0.015625)"/>
    </defs>
    <use xlink:href="#DejaVuSans-Bold-28"/>
    <use xlink:href="#DejaVuSans-Bold-3b" transform="translate(68.3125 0)"/>
    <use xlink:href="#DejaVuSans-Bold-33" transform="translate(145.40625 0)"/>
    <use xlink:href="#DejaVuSans-Bold-10" transform="translate(216.953125 0)"/>
    <use xlink:href="#DejaVuSans-Bold-13" transform="translate(258.453125 0)"/>
    <use xlink:href="#DejaVuSans-Bold-19" transform="translate(328.03125 0)"/>
    <use xlink:href="#DejaVuSans-Bold-24" transform="translate(397.609375 0)"/>
    <use xlink:href="#DejaVuSans-Bold-1d" transform="translate(476.859375 0)"/>
    <use xlink:href="#DejaVuSans-Bold-3" transform="translate(516.84375 0)"/>
    <use xlink:href="#DejaVuSans-Bold-46" transform="translate(551.65625 0)"/>
    <use xlink:href="#DejaVuSans-Bold-52" transform="translate(610.9375 0)"/>
    <use xlink:href="#DejaVuSans-Bold-50" transform="translate(679.640625 0)"/>
    <use xlink:href="#DejaVuSans-Bold-50" transform="translate(783.84375 0)"/>
    <use xlink:href="#DejaVuSans-Bold-52" transform="translate(888.046875 0)"/>
    <use xlink:href="#DejaVuSans-Bold-51" transform="translate(956.75 0)"/>
    <use xlink:href="#DejaVuSans-Bold-10" transform="translate(1027.9375 0)"/>
    <use xlink:href="#DejaVuSans-Bold-56" transform="translate(1069.4375 0)"/>
    <use xlink:href="#DejaVuSans-Bold-46" transform="translate(1128.953125 0)"/>
    <use xlink:href="#DejaVuSans-Bold-44" transform="translate(1188.234375 0)"/>
    <use xlink:href="#DejaVuSans-Bold-4f" transform="translate(1255.71875 0)"/>
    <use xlink:href="#DejaVuSans-Bold-48" transform="translate(1290 0)"/>
    <use xlink:href="#DejaVuSans-Bold-3" transform="translate(1357.828125 0)"/>
    <use xlink:href="#DejaVuSans-Bold-4c" transform="translate(1392.640625 0)"/>
    <use xlink:href="#DejaVuSans-Bold-51" transform="translate(1426.921875 0)"/>
    <use xlink:href="#DejaVuSans-Bold-59" transform="translate(1498.109375 0)"/>
    <use xlink:href="#DejaVuSans-Bold-44" transform="translate(1563.296875 0)"/>
    <use xlink:href="#DejaVuSans-Bold-55" transform="translate(1630.78125 0)"/>
    <use xlink:href="#DejaVuSans-Bold-4c" transform="translate(1680.09375 0)"/>
    <use xlink:href="#DejaVuSans-Bold-44" transform="translate(1714.375 0)"/>
    <use xlink:href="#DejaVuSans-Bold-51" transform="translate(1781.859375 0)"/>
    <use xlink:href="#DejaVuSans-Bold-46" transform="translate(1853.046875 0)"/>
    <use xlink:href="#DejaVuSans-Bold-48" transform="translate(1912.328125 0)"/>
   </g>
  </g>
 </g>
 <defs>
  <clipPath id="p33ce3c79ba">
   <rect x="50.466406" y="43.319777" width="452.693354" height="322.877399"/>
  </clipPath>
  <clipPath id="p69348b1481">
   <rect x="556.506166" y="43.319777" width="452.693354" height="322.877399"/>
  </clipPath>
 </defs>
</svg>
