<?xml version="1.0" encoding="utf-8" standalone="no"?>
<!DOCTYPE svg PUBLIC "-//W3C//DTD SVG 1.1//EN"
  "http://www.w3.org/Graphics/SVG/1.1/DTD/svg11.dtd">
<svg xmlns:xlink="http://www.w3.org/1999/xlink" width="1016.39952pt" height="728.39952pt" viewBox="0 0 1016.39952 728.39952" xmlns="http://www.w3.org/2000/svg" version="1.1">
 <metadata>
  <rdf:RDF xmlns:dc="http://purl.org/dc/elements/1.1/" xmlns:cc="http://creativecommons.org/ns#" xmlns:rdf="http://www.w3.org/1999/02/22-rdf-syntax-ns#">
   <cc:Work>
    <dc:type rdf:resource="http://purl.org/dc/dcmitype/StillImage"/>
    <dc:format>image/svg+xml</dc:format>
    <dc:creator>
     <cc:Agent>
      <dc:title>Matplotlib v3.11.1, https://matplotlib.org/</dc:title>
     </cc:Agent>
    </dc:creator>
   </cc:Work>
  </rdf:RDF>
 </metadata>
 <defs>
  <style type="text/css">*{stroke-linejoin: round; stroke-linecap: butt}</style>
 </defs>
 <g id="figure_1">
  <g id="patch_1">
   <path d="M 0 728.39952
L 1016.39952 728.39952
L 1016.39952 0
L 0 0
z
" style="fill: #ffffff"/>
  </g>
  <g id="axes_1">
   <g id="patch_2">
    <path d="M 58.846094 332.80876
L 510.530854 332.80876
L 510.530854 43.319777
L 58.846094 43.319777
z
" style="fill: #ffffff"/>
   </g>
   <g id="matplotlib.axis_1">
    <g id="xtick_1">
     <g id="line2d_1">
      <defs>
       <path id="mff076e6b73" d="M 0 0
L 0 3.5
" style="stroke: #000000; stroke-width: 0.8"/>
      </defs>
      <g>
       <use xlink:href="#mff076e6b73" x="134.126887" y="332.80876" style="stroke: #000000; stroke-width: 0.8"/>
      </g>
     </g>
     <g id="text_1">
      <!-- wide -->
      <g transform="translate(123.470058 353.219616) rotate(-15) scale(0.1 -0.1)">
       <defs>
        <path id="DejaVuSans-5a" d="M 269 3500
L 844 3500
L 1563 769
L 2278 3500
L 2956 3500
L 3675 769
L 4391 3500
L 4966 3500
L 4050 0
L 3372 0
L 2619 2869
L 1863 0
L 1184 0
L 269 3500
z
" transform="scale(0.015625)"/>
        <path id="DejaVuSans-4c" d="M 603 3500
L 1178 3500
L 1178 0
L 603 0
L 603 3500
z
M 603 4863
L 1178 4863
L 1178 4134
L 603 4134
L 603 4863
z
" transform="scale(0.015625)"/>
        <path id="DejaVuSans-47" d="M 2906 2969
L 2906 4863
L 3481 4863
L 3481 0
L 2906 0
L 2906 525
Q 2725 213 2448 61
Q 2172 -91 1784 -91
Q 1150 -91 751 415
Q 353 922 353 1747
Q 353 2572 751 3078
Q 1150 3584 1784 3584
Q 2172 3584 2448 3432
Q 2725 3281 2906 2969
z
M 947 1747
Q 947 1113 1208 752
Q 1469 391 1925 391
Q 2381 391 2643 752
Q 2906 1113 2906 1747
Q 2906 2381 2643 2742
Q 2381 3103 1925 3103
Q 1469 3103 1208 2742
Q 947 2381 947 1747
z
" transform="scale(0.015625)"/>
        <path id="DejaVuSans-48" d="M 3597 1894
L 3597 1613
L 953 1613
Q 991 1019 1311 708
Q 1631 397 2203 397
Q 2534 397 2845 478
Q 3156 559 3463 722
L 3463 178
Q 3153 47 2828 -22
Q 2503 -91 2169 -91
Q 1331 -91 842 396
Q 353 884 353 1716
Q 353 2575 817 3079
Q 1281 3584 2069 3584
Q 2775 3584 3186 3129
Q 3597 2675 3597 1894
z
M 3022 2063
Q 3016 2534 2758 2815
Q 2500 3097 2075 3097
Q 1594 3097 1305 2825
Q 1016 2553 972 2059
L 3022 2063
z
" transform="scale(0.015625)"/>
       </defs>
       <use xlink:href="#DejaVuSans-5a"/>
       <use xlink:href="#DejaVuSans-4c" transform="translate(81.78125 0)"/>
       <use xlink:href="#DejaVuSans-47" transform="translate(109.5625 0)"/>
       <use xlink:href="#DejaVuSans-48" transform="translate(173.046875 0)"/>
      </g>
     </g>
    </g>
    <g id="xtick_2">
     <g id="line2d_2">
      <g>
       <use xlink:href="#mff076e6b73" x="284.688474" y="332.80876" style="stroke: #000000; stroke-width: 0.8"/>
      </g>
     </g>
     <g id="text_2">
      <!-- mixed -->
      <g transform="translate(270.56714 355.076238) rotate(-15) scale(0.1 -0.1)">
       <defs>
        <path id="DejaVuSans-50" d="M 3328 2828
Q 3544 3216 3844 3400
Q 4144 3584 4550 3584
Q 5097 3584 5394 3201
Q 5691 2819 5691 2113
L 5691 0
L 5113 0
L 5113 2094
Q 5113 2597 4934 2840
Q 4756 3084 4391 3084
Q 3944 3084 3684 2787
Q 3425 2491 3425 1978
L 3425 0
L 2847 0
L 2847 2094
Q 2847 2600 2669 2842
Q 2491 3084 2119 3084
Q 1678 3084 1418 2786
Q 1159 2488 1159 1978
L 1159 0
L 581 0
L 581 3500
L 1159 3500
L 1159 2956
Q 1356 3278 1631 3431
Q 1906 3584 2284 3584
Q 2666 3584 2933 3390
Q 3200 3197 3328 2828
z
" transform="scale(0.015625)"/>
        <path id="DejaVuSans-5b" d="M 3513 3500
L 2247 1797
L 3578 0
L 2900 0
L 1881 1375
L 863 0
L 184 0
L 1544 1831
L 300 3500
L 978 3500
L 1906 2253
L 2834 3500
L 3513 3500
z
" transform="scale(0.015625)"/>
       </defs>
       <use xlink:href="#DejaVuSans-50"/>
       <use xlink:href="#DejaVuSans-4c" transform="translate(97.40625 0)"/>
       <use xlink:href="#DejaVuSans-5b" transform="translate(125.1875 0)"/>
       <use xlink:href="#DejaVuSans-48" transform="translate(181.296875 0)"/>
       <use xlink:href="#DejaVuSans-47" transform="translate(242.828125 0)"/>
      </g>
     </g>
    </g>
    <g id="xtick_3">
     <g id="line2d_3">
      <g>
       <use xlink:href="#mff076e6b73" x="435.25006" y="332.80876" style="stroke: #000000; stroke-width: 0.8"/>
      </g>
     </g>
     <g id="text_3">
      <!-- chain-like -->
      <g transform="translate(412.821765 359.527926) rotate(-15) scale(0.1 -0.1)">
       <defs>
        <path id="DejaVuSans-46" d="M 3122 3366
L 3122 2828
Q 2878 2963 2633 3030
Q 2388 3097 2138 3097
Q 1578 3097 1268 2742
Q 959 2388 959 1747
Q 959 1106 1268 751
Q 1578 397 2138 397
Q 2388 397 2633 464
Q 2878 531 3122 666
L 3122 134
Q 2881 22 2623 -34
Q 2366 -91 2075 -91
Q 1284 -91 818 406
Q 353 903 353 1747
Q 353 2603 823 3093
Q 1294 3584 2113 3584
Q 2378 3584 2631 3529
Q 2884 3475 3122 3366
z
" transform="scale(0.015625)"/>
        <path id="DejaVuSans-4b" d="M 3513 2113
L 3513 0
L 2938 0
L 2938 2094
Q 2938 2591 2744 2837
Q 2550 3084 2163 3084
Q 1697 3084 1428 2787
Q 1159 2491 1159 1978
L 1159 0
L 581 0
L 581 4863
L 1159 4863
L 1159 2956
Q 1366 3272 1645 3428
Q 1925 3584 2291 3584
Q 2894 3584 3203 3211
Q 3513 2838 3513 2113
z
" transform="scale(0.015625)"/>
        <path id="DejaVuSans-44" d="M 2194 1759
Q 1497 1759 1228 1600
Q 959 1441 959 1056
Q 959 750 1161 570
Q 1363 391 1709 391
Q 2188 391 2477 730
Q 2766 1069 2766 1631
L 2766 1759
L 2194 1759
z
M 3341 1997
L 3341 0
L 2766 0
L 2766 531
Q 2569 213 2275 61
Q 1981 -91 1556 -91
Q 1019 -91 701 211
Q 384 513 384 1019
Q 384 1609 779 1909
Q 1175 2209 1959 2209
L 2766 2209
L 2766 2266
Q 2766 2663 2505 2880
Q 2244 3097 1772 3097
Q 1472 3097 1187 3025
Q 903 2953 641 2809
L 641 3341
Q 956 3463 1253 3523
Q 1550 3584 1831 3584
Q 2591 3584 2966 3190
Q 3341 2797 3341 1997
z
" transform="scale(0.015625)"/>
        <path id="DejaVuSans-51" d="M 3513 2113
L 3513 0
L 2938 0
L 2938 2094
Q 2938 2591 2744 2837
Q 2550 3084 2163 3084
Q 1697 3084 1428 2787
Q 1159 2491 1159 1978
L 1159 0
L 581 0
L 581 3500
L 1159 3500
L 1159 2956
Q 1366 3272 1645 3428
Q 1925 3584 2291 3584
Q 2894 3584 3203 3211
Q 3513 2838 3513 2113
z
" transform="scale(0.015625)"/>
        <path id="DejaVuSans-10" d="M 313 2009
L 1997 2009
L 1997 1497
L 313 1497
L 313 2009
z
" transform="scale(0.015625)"/>
        <path id="DejaVuSans-4f" d="M 603 4863
L 1178 4863
L 1178 0
L 603 0
L 603 4863
z
" transform="scale(0.015625)"/>
        <path id="DejaVuSans-4e" d="M 581 4863
L 1159 4863
L 1159 1991
L 2875 3500
L 3609 3500
L 1753 1863
L 3688 0
L 2938 0
L 1159 1709
L 1159 0
L 581 0
L 581 4863
z
" transform="scale(0.015625)"/>
       </defs>
       <use xlink:href="#DejaVuSans-46"/>
       <use xlink:href="#DejaVuSans-4b" transform="translate(54.984375 0)"/>
       <use xlink:href="#DejaVuSans-44" transform="translate(118.359375 0)"/>
       <use xlink:href="#DejaVuSans-4c" transform="translate(179.640625 0)"/>
       <use xlink:href="#DejaVuSans-51" transform="translate(207.421875 0)"/>
       <use xlink:href="#DejaVuSans-10" transform="translate(270.796875 0)"/>
       <use xlink:href="#DejaVuSans-4f" transform="translate(306.875 0)"/>
       <use xlink:href="#DejaVuSans-4c" transform="translate(334.65625 0)"/>
       <use xlink:href="#DejaVuSans-4e" transform="translate(362.4375 0)"/>
       <use xlink:href="#DejaVuSans-48" transform="translate(416.78125 0)"/>
      </g>
     </g>
    </g>
   </g>
   <g id="matplotlib.axis_2">
    <g id="ytick_1">
     <g id="line2d_4">
      <path d="M 58.846094 319.48347
L 510.530854 319.48347
" clip-path="url(#p4c8b5df2e7)" style="fill: none; stroke: #e5e5e5; stroke-width: 0.6; stroke-linecap: square"/>
     </g>
     <g id="line2d_5">
      <defs>
       <path id="m758960be85" d="M 0 0
L -3.5 0
" style="stroke: #000000; stroke-width: 0.8"/>
      </defs>
      <g>
       <use xlink:href="#m758960be85" x="58.846094" y="319.48347" style="stroke: #000000; stroke-width: 0.8"/>
      </g>
     </g>
     <g id="text_4">
      <!-- −0.08 -->
      <g transform="translate(21.200781 323.282298) scale(0.1 -0.1)">
       <defs>
        <path id="DejaVuSans-c9c" d="M 678 2272
L 4684 2272
L 4684 1741
L 678 1741
L 678 2272
z
" transform="scale(0.015625)"/>
        <path id="DejaVuSans-13" d="M 2034 4250
Q 1547 4250 1301 3770
Q 1056 3291 1056 2328
Q 1056 1369 1301 889
Q 1547 409 2034 409
Q 2525 409 2770 889
Q 3016 1369 3016 2328
Q 3016 3291 2770 3770
Q 2525 4250 2034 4250
z
M 2034 4750
Q 2819 4750 3233 4129
Q 3647 3509 3647 2328
Q 3647 1150 3233 529
Q 2819 -91 2034 -91
Q 1250 -91 836 529
Q 422 1150 422 2328
Q 422 3509 836 4129
Q 1250 4750 2034 4750
z
" transform="scale(0.015625)"/>
        <path id="DejaVuSans-11" d="M 684 794
L 1344 794
L 1344 0
L 684 0
L 684 794
z
" transform="scale(0.015625)"/>
        <path id="DejaVuSans-1b" d="M 2034 2216
Q 1584 2216 1326 1975
Q 1069 1734 1069 1313
Q 1069 891 1326 650
Q 1584 409 2034 409
Q 2484 409 2743 651
Q 3003 894 3003 1313
Q 3003 1734 2745 1975
Q 2488 2216 2034 2216
z
M 1403 2484
Q 997 2584 770 2862
Q 544 3141 544 3541
Q 544 4100 942 4425
Q 1341 4750 2034 4750
Q 2731 4750 3128 4425
Q 3525 4100 3525 3541
Q 3525 3141 3298 2862
Q 3072 2584 2669 2484
Q 3125 2378 3379 2068
Q 3634 1759 3634 1313
Q 3634 634 3220 271
Q 2806 -91 2034 -91
Q 1263 -91 848 271
Q 434 634 434 1313
Q 434 1759 690 2068
Q 947 2378 1403 2484
z
M 1172 3481
Q 1172 3119 1398 2916
Q 1625 2713 2034 2713
Q 2441 2713 2670 2916
Q 2900 3119 2900 3481
Q 2900 3844 2670 4047
Q 2441 4250 2034 4250
Q 1625 4250 1398 4047
Q 1172 3844 1172 3481
z
" transform="scale(0.015625)"/>
       </defs>
       <use xlink:href="#DejaVuSans-c9c"/>
       <use xlink:href="#DejaVuSans-13" transform="translate(83.796875 0)"/>
       <use xlink:href="#DejaVuSans-11" transform="translate(147.421875 0)"/>
       <use xlink:href="#DejaVuSans-13" transform="translate(179.203125 0)"/>
       <use xlink:href="#DejaVuSans-1b" transform="translate(242.828125 0)"/>
      </g>
     </g>
    </g>
    <g id="ytick_2">
     <g id="line2d_6">
      <path d="M 58.846094 279.189599
L 510.530854 279.189599
" clip-path="url(#p4c8b5df2e7)" style="fill: none; stroke: #e5e5e5; stroke-width: 0.6; stroke-linecap: square"/>
     </g>
     <g id="line2d_7">
      <g>
       <use xlink:href="#m758960be85" x="58.846094" y="279.189599" style="stroke: #000000; stroke-width: 0.8"/>
      </g>
     </g>
     <g id="text_5">
      <!-- −0.06 -->
      <g transform="translate(21.200781 282.988427) scale(0.1 -0.1)">
       <defs>
        <path id="DejaVuSans-19" d="M 2113 2584
Q 1688 2584 1439 2293
Q 1191 2003 1191 1497
Q 1191 994 1439 701
Q 1688 409 2113 409
Q 2538 409 2786 701
Q 3034 994 3034 1497
Q 3034 2003 2786 2293
Q 2538 2584 2113 2584
z
M 3366 4563
L 3366 3988
Q 3128 4100 2886 4159
Q 2644 4219 2406 4219
Q 1781 4219 1451 3797
Q 1122 3375 1075 2522
Q 1259 2794 1537 2939
Q 1816 3084 2150 3084
Q 2853 3084 3261 2657
Q 3669 2231 3669 1497
Q 3669 778 3244 343
Q 2819 -91 2113 -91
Q 1303 -91 875 529
Q 447 1150 447 2328
Q 447 3434 972 4092
Q 1497 4750 2381 4750
Q 2619 4750 2861 4703
Q 3103 4656 3366 4563
z
" transform="scale(0.015625)"/>
       </defs>
       <use xlink:href="#DejaVuSans-c9c"/>
       <use xlink:href="#DejaVuSans-13" transform="translate(83.796875 0)"/>
       <use xlink:href="#DejaVuSans-11" transform="translate(147.421875 0)"/>
       <use xlink:href="#DejaVuSans-13" transform="translate(179.203125 0)"/>
       <use xlink:href="#DejaVuSans-19" transform="translate(242.828125 0)"/>
      </g>
     </g>
    </g>
    <g id="ytick_3">
     <g id="line2d_8">
      <path d="M 58.846094 238.895728
L 510.530854 238.895728
" clip-path="url(#p4c8b5df2e7)" style="fill: none; stroke: #e5e5e5; stroke-width: 0.6; stroke-linecap: square"/>
     </g>
     <g id="line2d_9">
      <g>
       <use xlink:href="#m758960be85" x="58.846094" y="238.895728" style="stroke: #000000; stroke-width: 0.8"/>
      </g>
     </g>
     <g id="text_6">
      <!-- −0.04 -->
      <g transform="translate(21.200781 242.694556) scale(0.1 -0.1)">
       <defs>
        <path id="DejaVuSans-17" d="M 2419 4116
L 825 1625
L 2419 1625
L 2419 4116
z
M 2253 4666
L 3047 4666
L 3047 1625
L 3713 1625
L 3713 1100
L 3047 1100
L 3047 0
L 2419 0
L 2419 1100
L 313 1100
L 313 1709
L 2253 4666
z
" transform="scale(0.015625)"/>
       </defs>
       <use xlink:href="#DejaVuSans-c9c"/>
       <use xlink:href="#DejaVuSans-13" transform="translate(83.796875 0)"/>
       <use xlink:href="#DejaVuSans-11" transform="translate(147.421875 0)"/>
       <use xlink:href="#DejaVuSans-13" transform="translate(179.203125 0)"/>
       <use xlink:href="#DejaVuSans-17" transform="translate(242.828125 0)"/>
      </g>
     </g>
    </g>
    <g id="ytick_4">
     <g id="line2d_10">
      <path d="M 58.846094 198.601857
L 510.530854 198.601857
" clip-path="url(#p4c8b5df2e7)" style="fill: none; stroke: #e5e5e5; stroke-width: 0.6; stroke-linecap: square"/>
     </g>
     <g id="line2d_11">
      <g>
       <use xlink:href="#m758960be85" x="58.846094" y="198.601857" style="stroke: #000000; stroke-width: 0.8"/>
      </g>
     </g>
     <g id="text_7">
      <!-- −0.02 -->
      <g transform="translate(21.200781 202.400685) scale(0.1 -0.1)">
       <defs>
        <path id="DejaVuSans-15" d="M 1228 531
L 3431 531
L 3431 0
L 469 0
L 469 531
Q 828 903 1448 1529
Q 2069 2156 2228 2338
Q 2531 2678 2651 2914
Q 2772 3150 2772 3378
Q 2772 3750 2511 3984
Q 2250 4219 1831 4219
Q 1534 4219 1204 4116
Q 875 4013 500 3803
L 500 4441
Q 881 4594 1212 4672
Q 1544 4750 1819 4750
Q 2544 4750 2975 4387
Q 3406 4025 3406 3419
Q 3406 3131 3298 2873
Q 3191 2616 2906 2266
Q 2828 2175 2409 1742
Q 1991 1309 1228 531
z
" transform="scale(0.015625)"/>
       </defs>
       <use xlink:href="#DejaVuSans-c9c"/>
       <use xlink:href="#DejaVuSans-13" transform="translate(83.796875 0)"/>
       <use xlink:href="#DejaVuSans-11" transform="translate(147.421875 0)"/>
       <use xlink:href="#DejaVuSans-13" transform="translate(179.203125 0)"/>
       <use xlink:href="#DejaVuSans-15" transform="translate(242.828125 0)"/>
      </g>
     </g>
    </g>
    <g id="ytick_5">
     <g id="line2d_12">
      <path d="M 58.846094 158.307986
L 510.530854 158.307986
" clip-path="url(#p4c8b5df2e7)" style="fill: none; stroke: #e5e5e5; stroke-width: 0.6; stroke-linecap: square"/>
     </g>
     <g id="line2d_13">
      <g>
       <use xlink:href="#m758960be85" x="58.846094" y="158.307986" style="stroke: #000000; stroke-width: 0.8"/>
      </g>
     </g>
     <g id="text_8">
      <!-- 0.00 -->
      <g transform="translate(29.580469 162.106814) scale(0.1 -0.1)">
       <use xlink:href="#DejaVuSans-13"/>
       <use xlink:href="#DejaVuSans-11" transform="translate(63.625 0)"/>
       <use xlink:href="#DejaVuSans-13" transform="translate(95.40625 0)"/>
       <use xlink:href="#DejaVuSans-13" transform="translate(159.03125 0)"/>
      </g>
     </g>
    </g>
    <g id="ytick_6">
     <g id="line2d_14">
      <path d="M 58.846094 118.014115
L 510.530854 118.014115
" clip-path="url(#p4c8b5df2e7)" style="fill: none; stroke: #e5e5e5; stroke-width: 0.6; stroke-linecap: square"/>
     </g>
     <g id="line2d_15">
      <g>
       <use xlink:href="#m758960be85" x="58.846094" y="118.014115" style="stroke: #000000; stroke-width: 0.8"/>
      </g>
     </g>
     <g id="text_9">
      <!-- 0.02 -->
      <g transform="translate(29.580469 121.812944) scale(0.1 -0.1)">
       <use xlink:href="#DejaVuSans-13"/>
       <use xlink:href="#DejaVuSans-11" transform="translate(63.625 0)"/>
       <use xlink:href="#DejaVuSans-13" transform="translate(95.40625 0)"/>
       <use xlink:href="#DejaVuSans-15" transform="translate(159.03125 0)"/>
      </g>
     </g>
    </g>
    <g id="ytick_7">
     <g id="line2d_16">
      <path d="M 58.846094 77.720245
L 510.530854 77.720245
" clip-path="url(#p4c8b5df2e7)" style="fill: none; stroke: #e5e5e5; stroke-width: 0.6; stroke-linecap: square"/>
     </g>
     <g id="line2d_17">
      <g>
       <use xlink:href="#m758960be85" x="58.846094" y="77.720245" style="stroke: #000000; stroke-width: 0.8"/>
      </g>
     </g>
     <g id="text_10">
      <!-- 0.04 -->
      <g transform="translate(29.580469 81.519073) scale(0.1 -0.1)">
       <use xlink:href="#DejaVuSans-13"/>
       <use xlink:href="#DejaVuSans-11" transform="translate(63.625 0)"/>
       <use xlink:href="#DejaVuSans-13" transform="translate(95.40625 0)"/>
       <use xlink:href="#DejaVuSans-17" transform="translate(159.03125 0)"/>
      </g>
     </g>
    </g>
    <g id="text_11">
     <!-- Δ relative tightness -->
     <g transform="translate(14.798438 236.629894) rotate(-90) scale(0.1 -0.1)">
      <defs>
       <path id="DejaVuSans-329" d="M 2188 4044
L 906 525
L 3472 525
L 2188 4044
z
M 50 0
L 1831 4666
L 2547 4666
L 4325 0
L 50 0
z
" transform="scale(0.015625)"/>
       <path id="DejaVuSans-3" transform="scale(0.015625)"/>
       <path id="DejaVuSans-55" d="M 2631 2963
Q 2534 3019 2420 3045
Q 2306 3072 2169 3072
Q 1681 3072 1420 2755
Q 1159 2438 1159 1844
L 1159 0
L 581 0
L 581 3500
L 1159 3500
L 1159 2956
Q 1341 3275 1631 3429
Q 1922 3584 2338 3584
Q 2397 3584 2469 3576
Q 2541 3569 2628 3553
L 2631 2963
z
" transform="scale(0.015625)"/>
       <path id="DejaVuSans-57" d="M 1172 4494
L 1172 3500
L 2356 3500
L 2356 3053
L 1172 3053
L 1172 1153
Q 1172 725 1289 603
Q 1406 481 1766 481
L 2356 481
L 2356 0
L 1766 0
Q 1100 0 847 248
Q 594 497 594 1153
L 594 3053
L 172 3053
L 172 3500
L 594 3500
L 594 4494
L 1172 4494
z
" transform="scale(0.015625)"/>
       <path id="DejaVuSans-59" d="M 191 3500
L 800 3500
L 1894 563
L 2988 3500
L 3597 3500
L 2284 0
L 1503 0
L 191 3500
z
" transform="scale(0.015625)"/>
       <path id="DejaVuSans-4a" d="M 2906 1791
Q 2906 2416 2648 2759
Q 2391 3103 1925 3103
Q 1463 3103 1205 2759
Q 947 2416 947 1791
Q 947 1169 1205 825
Q 1463 481 1925 481
Q 2391 481 2648 825
Q 2906 1169 2906 1791
z
M 3481 434
Q 3481 -459 3084 -895
Q 2688 -1331 1869 -1331
Q 1566 -1331 1297 -1286
Q 1028 -1241 775 -1147
L 775 -588
Q 1028 -725 1275 -790
Q 1522 -856 1778 -856
Q 2344 -856 2625 -561
Q 2906 -266 2906 331
L 2906 616
Q 2728 306 2450 153
Q 2172 0 1784 0
Q 1141 0 747 490
Q 353 981 353 1791
Q 353 2603 747 3093
Q 1141 3584 1784 3584
Q 2172 3584 2450 3431
Q 2728 3278 2906 2969
L 2906 3500
L 3481 3500
L 3481 434
z
" transform="scale(0.015625)"/>
       <path id="DejaVuSans-56" d="M 2834 3397
L 2834 2853
Q 2591 2978 2328 3040
Q 2066 3103 1784 3103
Q 1356 3103 1142 2972
Q 928 2841 928 2578
Q 928 2378 1081 2264
Q 1234 2150 1697 2047
L 1894 2003
Q 2506 1872 2764 1633
Q 3022 1394 3022 966
Q 3022 478 2636 193
Q 2250 -91 1575 -91
Q 1294 -91 989 -36
Q 684 19 347 128
L 347 722
Q 666 556 975 473
Q 1284 391 1588 391
Q 1994 391 2212 530
Q 2431 669 2431 922
Q 2431 1156 2273 1281
Q 2116 1406 1581 1522
L 1381 1569
Q 847 1681 609 1914
Q 372 2147 372 2553
Q 372 3047 722 3315
Q 1072 3584 1716 3584
Q 2034 3584 2315 3537
Q 2597 3491 2834 3397
z
" transform="scale(0.015625)"/>
      </defs>
      <use xlink:href="#DejaVuSans-329"/>
      <use xlink:href="#DejaVuSans-3" transform="translate(68.40625 0)"/>
      <use xlink:href="#DejaVuSans-55" transform="translate(100.1875 0)"/>
      <use xlink:href="#DejaVuSans-48" transform="translate(139.09375 0)"/>
      <use xlink:href="#DejaVuSans-4f" transform="translate(200.625 0)"/>
      <use xlink:href="#DejaVuSans-44" transform="translate(228.40625 0)"/>
      <use xlink:href="#DejaVuSans-57" transform="translate(289.6875 0)"/>
      <use xlink:href="#DejaVuSans-4c" transform="translate(328.890625 0)"/>
      <use xlink:href="#DejaVuSans-59" transform="translate(356.671875 0)"/>
      <use xlink:href="#DejaVuSans-48" transform="translate(415.859375 0)"/>
      <use xlink:href="#DejaVuSans-3" transform="translate(477.390625 0)"/>
      <use xlink:href="#DejaVuSans-57" transform="translate(509.171875 0)"/>
      <use xlink:href="#DejaVuSans-4c" transform="translate(548.375 0)"/>
      <use xlink:href="#DejaVuSans-4a" transform="translate(576.15625 0)"/>
      <use xlink:href="#DejaVuSans-4b" transform="translate(639.640625 0)"/>
      <use xlink:href="#DejaVuSans-57" transform="translate(703.015625 0)"/>
      <use xlink:href="#DejaVuSans-51" transform="translate(742.21875 0)"/>
      <use xlink:href="#DejaVuSans-48" transform="translate(805.59375 0)"/>
      <use xlink:href="#DejaVuSans-56" transform="translate(867.125 0)"/>
      <use xlink:href="#DejaVuSans-56" transform="translate(919.21875 0)"/>
     </g>
    </g>
   </g>
   <g id="patch_3">
    <path d="M 111.542649 204.096476
L 156.711125 204.096476
L 156.711125 142.568193
L 111.542649 142.568193
L 111.542649 204.096476
z
" clip-path="url(#p4c8b5df2e7)" style="fill: #56b4e9; opacity: 0.72; stroke: #000000; stroke-linejoin: miter"/>
   </g>
   <g id="line2d_18">
    <path d="M 134.126887 204.096476
L 134.126887 295.948461
" clip-path="url(#p4c8b5df2e7)" style="fill: none; stroke: #000000; stroke-linecap: square"/>
   </g>
   <g id="line2d_19">
    <path d="M 134.126887 142.568193
L 134.126887 56.478367
" clip-path="url(#p4c8b5df2e7)" style="fill: none; stroke: #000000; stroke-linecap: square"/>
   </g>
   <g id="line2d_20">
    <path d="M 122.834768 295.948461
L 145.419006 295.948461
" clip-path="url(#p4c8b5df2e7)" style="fill: none; stroke: #000000; stroke-linecap: square"/>
   </g>
   <g id="line2d_21">
    <path d="M 122.834768 56.478367
L 145.419006 56.478367
" clip-path="url(#p4c8b5df2e7)" style="fill: none; stroke: #000000; stroke-linecap: square"/>
   </g>
   <g id="patch_4">
    <path d="M 262.104236 218.008403
L 307.272712 218.008403
L 307.272712 149.91343
L 262.104236 149.91343
L 262.104236 218.008403
z
" clip-path="url(#p4c8b5df2e7)" style="fill: #56b4e9; opacity: 0.72; stroke: #000000; stroke-linejoin: miter"/>
   </g>
   <g id="line2d_22">
    <path d="M 284.688474 218.008403
L 284.688474 319.65017
" clip-path="url(#p4c8b5df2e7)" style="fill: none; stroke: #000000; stroke-linecap: square"/>
   </g>
   <g id="line2d_23">
    <path d="M 284.688474 149.91343
L 284.688474 58.003799
" clip-path="url(#p4c8b5df2e7)" style="fill: none; stroke: #000000; stroke-linecap: square"/>
   </g>
   <g id="line2d_24">
    <path d="M 273.396355 319.65017
L 295.980593 319.65017
" clip-path="url(#p4c8b5df2e7)" style="fill: none; stroke: #000000; stroke-linecap: square"/>
   </g>
   <g id="line2d_25">
    <path d="M 273.396355 58.003799
L 295.980593 58.003799
" clip-path="url(#p4c8b5df2e7)" style="fill: none; stroke: #000000; stroke-linecap: square"/>
   </g>
   <g id="patch_5">
    <path d="M 412.665822 170.969776
L 457.834298 170.969776
L 457.834298 155.34263
L 412.665822 155.34263
L 412.665822 170.969776
z
" clip-path="url(#p4c8b5df2e7)" style="fill: #56b4e9; opacity: 0.72; stroke: #000000; stroke-linejoin: miter"/>
   </g>
   <g id="line2d_26">
    <path d="M 435.25006 170.969776
L 435.25006 194.334624
" clip-path="url(#p4c8b5df2e7)" style="fill: none; stroke: #000000; stroke-linecap: square"/>
   </g>
   <g id="line2d_27">
    <path d="M 435.25006 155.34263
L 435.25006 132.424771
" clip-path="url(#p4c8b5df2e7)" style="fill: none; stroke: #000000; stroke-linecap: square"/>
   </g>
   <g id="line2d_28">
    <path d="M 423.957941 194.334624
L 446.542179 194.334624
" clip-path="url(#p4c8b5df2e7)" style="fill: none; stroke: #000000; stroke-linecap: square"/>
   </g>
   <g id="line2d_29">
    <path d="M 423.957941 132.424771
L 446.542179 132.424771
" clip-path="url(#p4c8b5df2e7)" style="fill: none; stroke: #000000; stroke-linecap: square"/>
   </g>
   <g id="line2d_30">
    <path d="M 58.846094 158.307986
L 510.530854 158.307986
" clip-path="url(#p4c8b5df2e7)" style="fill: none; stroke: #222222; stroke-linecap: square"/>
   </g>
   <g id="line2d_31">
    <path d="M 111.542649 165.231415
L 156.711125 165.231415
" clip-path="url(#p4c8b5df2e7)" style="fill: none; stroke: #ff7f0e"/>
   </g>
   <g id="line2d_32">
    <path d="M 262.104236 164.829061
L 307.272712 164.829061
" clip-path="url(#p4c8b5df2e7)" style="fill: none; stroke: #ff7f0e"/>
   </g>
   <g id="line2d_33">
    <path d="M 412.665822 161.808472
L 457.834298 161.808472
" clip-path="url(#p4c8b5df2e7)" style="fill: none; stroke: #ff7f0e"/>
   </g>
   <g id="patch_6">
    <path d="M 58.846094 332.80876
L 58.846094 43.319777
" style="fill: none; stroke: #000000; stroke-width: 0.8; stroke-linejoin: miter; stroke-linecap: square"/>
   </g>
   <g id="patch_7">
    <path d="M 510.530854 332.80876
L 510.530854 43.319777
" style="fill: none; stroke: #000000; stroke-width: 0.8; stroke-linejoin: miter; stroke-linecap: square"/>
   </g>
   <g id="patch_8">
    <path d="M 58.846094 332.80876
L 510.530854 332.80876
" style="fill: none; stroke: #000000; stroke-width: 0.8; stroke-linejoin: miter; stroke-linecap: square"/>
   </g>
   <g id="patch_9">
    <path d="M 58.846094 43.319777
L 510.530854 43.319777
" style="fill: none; stroke: #000000; stroke-width: 0.8; stroke-linejoin: miter; stroke-linecap: square"/>
   </g>
   <g id="text_12">
    <!-- C1: sync − staggered -->
    <g transform="translate(212.636911 37.319777) scale(0.12 -0.12)">
     <defs>
      <path id="DejaVuSans-Bold-26" d="M 4288 256
Q 3956 84 3597 -3
Q 3238 -91 2847 -91
Q 1681 -91 1000 561
Q 319 1213 319 2328
Q 319 3447 1000 4098
Q 1681 4750 2847 4750
Q 3238 4750 3597 4662
Q 3956 4575 4288 4403
L 4288 3438
Q 3953 3666 3628 3772
Q 3303 3878 2944 3878
Q 2300 3878 1931 3465
Q 1563 3053 1563 2328
Q 1563 1606 1931 1193
Q 2300 781 2944 781
Q 3303 781 3628 887
Q 3953 994 4288 1222
L 4288 256
z
" transform="scale(0.015625)"/>
      <path id="DejaVuSans-Bold-14" d="M 750 831
L 1813 831
L 1813 3847
L 722 3622
L 722 4441
L 1806 4666
L 2950 4666
L 2950 831
L 4013 831
L 4013 0
L 750 0
L 750 831
z
" transform="scale(0.015625)"/>
      <path id="DejaVuSans-Bold-1d" d="M 716 3500
L 1844 3500
L 1844 2291
L 716 2291
L 716 3500
z
M 716 1209
L 1844 1209
L 1844 0
L 716 0
L 716 1209
z
" transform="scale(0.015625)"/>
      <path id="DejaVuSans-Bold-3" transform="scale(0.015625)"/>
      <path id="DejaVuSans-Bold-56" d="M 3272 3391
L 3272 2541
Q 2913 2691 2578 2766
Q 2244 2841 1947 2841
Q 1628 2841 1473 2761
Q 1319 2681 1319 2516
Q 1319 2381 1436 2309
Q 1553 2238 1856 2203
L 2053 2175
Q 2913 2066 3209 1816
Q 3506 1566 3506 1031
Q 3506 472 3093 190
Q 2681 -91 1863 -91
Q 1516 -91 1145 -36
Q 775 19 384 128
L 384 978
Q 719 816 1070 734
Q 1422 653 1784 653
Q 2113 653 2278 743
Q 2444 834 2444 1013
Q 2444 1163 2330 1236
Q 2216 1309 1875 1350
L 1678 1375
Q 931 1469 631 1722
Q 331 1975 331 2491
Q 331 3047 712 3315
Q 1094 3584 1881 3584
Q 2191 3584 2531 3537
Q 2872 3491 3272 3391
z
" transform="scale(0.015625)"/>
      <path id="DejaVuSans-Bold-5c" d="M 78 3500
L 1197 3500
L 2138 1125
L 2938 3500
L 4056 3500
L 2584 -331
Q 2363 -916 2067 -1148
Q 1772 -1381 1288 -1381
L 641 -1381
L 641 -647
L 991 -647
Q 1275 -647 1404 -556
Q 1534 -466 1606 -231
L 1638 -134
L 78 3500
z
" transform="scale(0.015625)"/>
      <path id="DejaVuSans-Bold-51" d="M 4056 2131
L 4056 0
L 2931 0
L 2931 347
L 2931 1631
Q 2931 2084 2911 2256
Q 2891 2428 2841 2509
Q 2775 2619 2662 2680
Q 2550 2741 2406 2741
Q 2056 2741 1856 2470
Q 1656 2200 1656 1722
L 1656 0
L 538 0
L 538 3500
L 1656 3500
L 1656 2988
Q 1909 3294 2193 3439
Q 2478 3584 2822 3584
Q 3428 3584 3742 3212
Q 4056 2841 4056 2131
z
" transform="scale(0.015625)"/>
      <path id="DejaVuSans-Bold-46" d="M 3366 3391
L 3366 2478
Q 3138 2634 2908 2709
Q 2678 2784 2431 2784
Q 1963 2784 1702 2511
Q 1441 2238 1441 1747
Q 1441 1256 1702 982
Q 1963 709 2431 709
Q 2694 709 2930 787
Q 3166 866 3366 1019
L 3366 103
Q 3103 6 2833 -42
Q 2563 -91 2291 -91
Q 1344 -91 809 395
Q 275 881 275 1747
Q 275 2613 809 3098
Q 1344 3584 2291 3584
Q 2566 3584 2833 3536
Q 3100 3488 3366 3391
z
" transform="scale(0.015625)"/>
      <path id="DejaVuSans-Bold-c9c" d="M 678 2375
L 4684 2375
L 4684 1638
L 678 1638
L 678 2375
z
" transform="scale(0.015625)"/>
      <path id="DejaVuSans-Bold-57" d="M 1759 4494
L 1759 3500
L 2913 3500
L 2913 2700
L 1759 2700
L 1759 1216
Q 1759 972 1856 886
Q 1953 800 2241 800
L 2816 800
L 2816 0
L 1856 0
Q 1194 0 917 276
Q 641 553 641 1216
L 641 2700
L 84 2700
L 84 3500
L 641 3500
L 641 4494
L 1759 4494
z
" transform="scale(0.015625)"/>
      <path id="DejaVuSans-Bold-44" d="M 2106 1575
Q 1756 1575 1579 1456
Q 1403 1338 1403 1106
Q 1403 894 1545 773
Q 1688 653 1941 653
Q 2256 653 2472 879
Q 2688 1106 2688 1447
L 2688 1575
L 2106 1575
z
M 3816 1997
L 3816 0
L 2688 0
L 2688 519
Q 2463 200 2181 54
Q 1900 -91 1497 -91
Q 953 -91 614 226
Q 275 544 275 1050
Q 275 1666 698 1953
Q 1122 2241 2028 2241
L 2688 2241
L 2688 2328
Q 2688 2594 2478 2717
Q 2269 2841 1825 2841
Q 1466 2841 1156 2769
Q 847 2697 581 2553
L 581 3406
Q 941 3494 1303 3539
Q 1666 3584 2028 3584
Q 2975 3584 3395 3211
Q 3816 2838 3816 1997
z
" transform="scale(0.015625)"/>
      <path id="DejaVuSans-Bold-4a" d="M 2919 594
Q 2688 288 2409 144
Q 2131 0 1766 0
Q 1125 0 706 504
Q 288 1009 288 1791
Q 288 2575 706 3076
Q 1125 3578 1766 3578
Q 2131 3578 2409 3434
Q 2688 3291 2919 2981
L 2919 3500
L 4044 3500
L 4044 353
Q 4044 -491 3511 -936
Q 2978 -1381 1966 -1381
Q 1638 -1381 1331 -1331
Q 1025 -1281 716 -1178
L 716 -306
Q 1009 -475 1290 -558
Q 1572 -641 1856 -641
Q 2406 -641 2662 -400
Q 2919 -159 2919 353
L 2919 594
z
M 2181 2772
Q 1834 2772 1640 2515
Q 1447 2259 1447 1791
Q 1447 1309 1634 1061
Q 1822 813 2181 813
Q 2531 813 2725 1069
Q 2919 1325 2919 1791
Q 2919 2259 2725 2515
Q 2531 2772 2181 2772
z
" transform="scale(0.015625)"/>
      <path id="DejaVuSans-Bold-48" d="M 4031 1759
L 4031 1441
L 1416 1441
Q 1456 1047 1700 850
Q 1944 653 2381 653
Q 2734 653 3104 758
Q 3475 863 3866 1075
L 3866 213
Q 3469 63 3072 -14
Q 2675 -91 2278 -91
Q 1328 -91 801 392
Q 275 875 275 1747
Q 275 2603 792 3093
Q 1309 3584 2216 3584
Q 3041 3584 3536 3087
Q 4031 2591 4031 1759
z
M 2881 2131
Q 2881 2450 2695 2645
Q 2509 2841 2209 2841
Q 1884 2841 1681 2658
Q 1478 2475 1428 2131
L 2881 2131
z
" transform="scale(0.015625)"/>
      <path id="DejaVuSans-Bold-55" d="M 3138 2547
Q 2991 2616 2845 2648
Q 2700 2681 2553 2681
Q 2122 2681 1889 2404
Q 1656 2128 1656 1613
L 1656 0
L 538 0
L 538 3500
L 1656 3500
L 1656 2925
Q 1872 3269 2151 3426
Q 2431 3584 2822 3584
Q 2878 3584 2943 3579
Q 3009 3575 3134 3559
L 3138 2547
z
" transform="scale(0.015625)"/>
      <path id="DejaVuSans-Bold-47" d="M 2919 2988
L 2919 4863
L 4044 4863
L 4044 0
L 2919 0
L 2919 506
Q 2688 197 2409 53
Q 2131 -91 1766 -91
Q 1119 -91 703 423
Q 288 938 288 1747
Q 288 2556 703 3070
Q 1119 3584 1766 3584
Q 2128 3584 2408 3439
Q 2688 3294 2919 2988
z
M 2181 722
Q 2541 722 2730 984
Q 2919 1247 2919 1747
Q 2919 2247 2730 2509
Q 2541 2772 2181 2772
Q 1825 2772 1636 2509
Q 1447 2247 1447 1747
Q 1447 1247 1636 984
Q 1825 722 2181 722
z
" transform="scale(0.015625)"/>
     </defs>
     <use xlink:href="#DejaVuSans-Bold-26"/>
     <use xlink:href="#DejaVuSans-Bold-14" transform="translate(73.390625 0)"/>
     <use xlink:href="#DejaVuSans-Bold-1d" transform="translate(142.96875 0)"/>
     <use xlink:href="#DejaVuSans-Bold-3" transform="translate(182.953125 0)"/>
     <use xlink:href="#DejaVuSans-Bold-56" transform="translate(217.765625 0)"/>
     <use xlink:href="#DejaVuSans-Bold-5c" transform="translate(277.28125 0)"/>
     <use xlink:href="#DejaVuSans-Bold-51" transform="translate(342.46875 0)"/>
     <use xlink:href="#DejaVuSans-Bold-46" transform="translate(413.65625 0)"/>
     <use xlink:href="#DejaVuSans-Bold-3" transform="translate(472.9375 0)"/>
     <use xlink:href="#DejaVuSans-Bold-c9c" transform="translate(507.75 0)"/>
     <use xlink:href="#DejaVuSans-Bold-3" transform="translate(591.546875 0)"/>
     <use xlink:href="#DejaVuSans-Bold-56" transform="translate(626.359375 0)"/>
     <use xlink:href="#DejaVuSans-Bold-57" transform="translate(685.875 0)"/>
     <use xlink:href="#DejaVuSans-Bold-44" transform="translate(733.671875 0)"/>
     <use xlink:href="#DejaVuSans-Bold-4a" transform="translate(801.15625 0)"/>
     <use xlink:href="#DejaVuSans-Bold-4a" transform="translate(872.734375 0)"/>
     <use xlink:href="#DejaVuSans-Bold-48" transform="translate(944.3125 0)"/>
     <use xlink:href="#DejaVuSans-Bold-55" transform="translate(1012.140625 0)"/>
     <use xlink:href="#DejaVuSans-Bold-48" transform="translate(1061.453125 0)"/>
     <use xlink:href="#DejaVuSans-Bold-47" transform="translate(1129.28125 0)"/>
    </g>
   </g>
  </g>
  <g id="axes_2">
   <g id="patch_10">
    <path d="M 557.51476 332.80876
L 1009.19952 332.80876
L 1009.19952 43.319777
L 557.51476 43.319777
z
" style="fill: #ffffff"/>
   </g>
   <g id="matplotlib.axis_3">
    <g id="xtick_4">
     <g id="line2d_34">
      <g>
       <use xlink:href="#mff076e6b73" x="670.43595" y="332.80876" style="stroke: #000000; stroke-width: 0.8"/>
      </g>
     </g>
     <g id="text_13">
      <!-- agent cost -->
      <g transform="translate(645.601794 360.816414) rotate(-15) scale(0.1 -0.1)">
       <defs>
        <path id="DejaVuSans-52" d="M 1959 3097
Q 1497 3097 1228 2736
Q 959 2375 959 1747
Q 959 1119 1226 758
Q 1494 397 1959 397
Q 2419 397 2687 759
Q 2956 1122 2956 1747
Q 2956 2369 2687 2733
Q 2419 3097 1959 3097
z
M 1959 3584
Q 2709 3584 3137 3096
Q 3566 2609 3566 1747
Q 3566 888 3137 398
Q 2709 -91 1959 -91
Q 1206 -91 779 398
Q 353 888 353 1747
Q 353 2609 779 3096
Q 1206 3584 1959 3584
z
" transform="scale(0.015625)"/>
       </defs>
       <use xlink:href="#DejaVuSans-44"/>
       <use xlink:href="#DejaVuSans-4a" transform="translate(61.28125 0)"/>
       <use xlink:href="#DejaVuSans-48" transform="translate(124.765625 0)"/>
       <use xlink:href="#DejaVuSans-51" transform="translate(186.296875 0)"/>
       <use xlink:href="#DejaVuSans-57" transform="translate(249.671875 0)"/>
       <use xlink:href="#DejaVuSans-3" transform="translate(288.875 0)"/>
       <use xlink:href="#DejaVuSans-46" transform="translate(320.65625 0)"/>
       <use xlink:href="#DejaVuSans-52" transform="translate(375.640625 0)"/>
       <use xlink:href="#DejaVuSans-56" transform="translate(436.828125 0)"/>
       <use xlink:href="#DejaVuSans-57" transform="translate(488.921875 0)"/>
      </g>
     </g>
    </g>
    <g id="xtick_5">
     <g id="line2d_35">
      <g>
       <use xlink:href="#mff076e6b73" x="896.27833" y="332.80876" style="stroke: #000000; stroke-width: 0.8"/>
      </g>
     </g>
     <g id="text_14">
      <!-- human cost -->
      <g transform="translate(868.549516 362.368465) rotate(-15) scale(0.1 -0.1)">
       <defs>
        <path id="DejaVuSans-58" d="M 544 1381
L 544 3500
L 1119 3500
L 1119 1403
Q 1119 906 1312 657
Q 1506 409 1894 409
Q 2359 409 2629 706
Q 2900 1003 2900 1516
L 2900 3500
L 3475 3500
L 3475 0
L 2900 0
L 2900 538
Q 2691 219 2414 64
Q 2138 -91 1772 -91
Q 1169 -91 856 284
Q 544 659 544 1381
z
M 1991 3584
L 1991 3584
z
" transform="scale(0.015625)"/>
       </defs>
       <use xlink:href="#DejaVuSans-4b"/>
       <use xlink:href="#DejaVuSans-58" transform="translate(63.375 0)"/>
       <use xlink:href="#DejaVuSans-50" transform="translate(126.75 0)"/>
       <use xlink:href="#DejaVuSans-44" transform="translate(224.15625 0)"/>
       <use xlink:href="#DejaVuSans-51" transform="translate(285.4375 0)"/>
       <use xlink:href="#DejaVuSans-3" transform="translate(348.8125 0)"/>
       <use xlink:href="#DejaVuSans-46" transform="translate(380.59375 0)"/>
       <use xlink:href="#DejaVuSans-52" transform="translate(435.578125 0)"/>
       <use xlink:href="#DejaVuSans-56" transform="translate(496.765625 0)"/>
       <use xlink:href="#DejaVuSans-57" transform="translate(548.859375 0)"/>
      </g>
     </g>
    </g>
   </g>
   <g id="matplotlib.axis_4">
    <g id="ytick_8">
     <g id="line2d_36">
      <path d="M 557.51476 319.65017
L 1009.19952 319.65017
" clip-path="url(#p2f41e64892)" style="fill: none; stroke: #e5e5e5; stroke-width: 0.6; stroke-linecap: square"/>
     </g>
     <g id="line2d_37">
      <g>
       <use xlink:href="#m758960be85" x="557.51476" y="319.65017" style="stroke: #000000; stroke-width: 0.8"/>
      </g>
     </g>
     <g id="text_15">
      <!-- −4 -->
      <g transform="translate(535.772573 323.448998) scale(0.1 -0.1)">
       <use xlink:href="#DejaVuSans-c9c"/>
       <use xlink:href="#DejaVuSans-17" transform="translate(83.796875 0)"/>
      </g>
     </g>
    </g>
    <g id="ytick_9">
     <g id="line2d_38">
      <path d="M 557.51476 275.788203
L 1009.19952 275.788203
" clip-path="url(#p2f41e64892)" style="fill: none; stroke: #e5e5e5; stroke-width: 0.6; stroke-linecap: square"/>
     </g>
     <g id="line2d_39">
      <g>
       <use xlink:href="#m758960be85" x="557.51476" y="275.788203" style="stroke: #000000; stroke-width: 0.8"/>
      </g>
     </g>
     <g id="text_16">
      <!-- −3 -->
      <g transform="translate(535.772573 279.587031) scale(0.1 -0.1)">
       <defs>
        <path id="DejaVuSans-16" d="M 2597 2516
Q 3050 2419 3304 2112
Q 3559 1806 3559 1356
Q 3559 666 3084 287
Q 2609 -91 1734 -91
Q 1441 -91 1130 -33
Q 819 25 488 141
L 488 750
Q 750 597 1062 519
Q 1375 441 1716 441
Q 2309 441 2620 675
Q 2931 909 2931 1356
Q 2931 1769 2642 2001
Q 2353 2234 1838 2234
L 1294 2234
L 1294 2753
L 1863 2753
Q 2328 2753 2575 2939
Q 2822 3125 2822 3475
Q 2822 3834 2567 4026
Q 2313 4219 1838 4219
Q 1578 4219 1281 4162
Q 984 4106 628 3988
L 628 4550
Q 988 4650 1302 4700
Q 1616 4750 1894 4750
Q 2613 4750 3031 4423
Q 3450 4097 3450 3541
Q 3450 3153 3228 2886
Q 3006 2619 2597 2516
z
" transform="scale(0.015625)"/>
       </defs>
       <use xlink:href="#DejaVuSans-c9c"/>
       <use xlink:href="#DejaVuSans-16" transform="translate(83.796875 0)"/>
      </g>
     </g>
    </g>
    <g id="ytick_10">
     <g id="line2d_40">
      <path d="M 557.51476 231.926236
L 1009.19952 231.926236
" clip-path="url(#p2f41e64892)" style="fill: none; stroke: #e5e5e5; stroke-width: 0.6; stroke-linecap: square"/>
     </g>
     <g id="line2d_41">
      <g>
       <use xlink:href="#m758960be85" x="557.51476" y="231.926236" style="stroke: #000000; stroke-width: 0.8"/>
      </g>
     </g>
     <g id="text_17">
      <!-- −2 -->
      <g transform="translate(535.772573 235.725064) scale(0.1 -0.1)">
       <use xlink:href="#DejaVuSans-c9c"/>
       <use xlink:href="#DejaVuSans-15" transform="translate(83.796875 0)"/>
      </g>
     </g>
    </g>
    <g id="ytick_11">
     <g id="line2d_42">
      <path d="M 557.51476 188.064269
L 1009.19952 188.064269
" clip-path="url(#p2f41e64892)" style="fill: none; stroke: #e5e5e5; stroke-width: 0.6; stroke-linecap: square"/>
     </g>
     <g id="line2d_43">
      <g>
       <use xlink:href="#m758960be85" x="557.51476" y="188.064269" style="stroke: #000000; stroke-width: 0.8"/>
      </g>
     </g>
     <g id="text_18">
      <!-- −1 -->
      <g transform="translate(535.772573 191.863097) scale(0.1 -0.1)">
       <defs>
        <path id="DejaVuSans-14" d="M 794 531
L 1825 531
L 1825 4091
L 703 3866
L 703 4441
L 1819 4666
L 2450 4666
L 2450 531
L 3481 531
L 3481 0
L 794 0
L 794 531
z
" transform="scale(0.015625)"/>
       </defs>
       <use xlink:href="#DejaVuSans-c9c"/>
       <use xlink:href="#DejaVuSans-14" transform="translate(83.796875 0)"/>
      </g>
     </g>
    </g>
    <g id="ytick_12">
     <g id="line2d_44">
      <path d="M 557.51476 144.202301
L 1009.19952 144.202301
" clip-path="url(#p2f41e64892)" style="fill: none; stroke: #e5e5e5; stroke-width: 0.6; stroke-linecap: square"/>
     </g>
     <g id="line2d_45">
      <g>
       <use xlink:href="#m758960be85" x="557.51476" y="144.202301" style="stroke: #000000; stroke-width: 0.8"/>
      </g>
     </g>
     <g id="text_19">
      <!-- 0 -->
      <g transform="translate(544.15226 148.00113) scale(0.1 -0.1)">
       <use xlink:href="#DejaVuSans-13"/>
      </g>
     </g>
    </g>
    <g id="ytick_13">
     <g id="line2d_46">
      <path d="M 557.51476 100.340334
L 1009.19952 100.340334
" clip-path="url(#p2f41e64892)" style="fill: none; stroke: #e5e5e5; stroke-width: 0.6; stroke-linecap: square"/>
     </g>
     <g id="line2d_47">
      <g>
       <use xlink:href="#m758960be85" x="557.51476" y="100.340334" style="stroke: #000000; stroke-width: 0.8"/>
      </g>
     </g>
     <g id="text_20">
      <!-- 1 -->
      <g transform="translate(544.15226 104.139162) scale(0.1 -0.1)">
       <use xlink:href="#DejaVuSans-14"/>
      </g>
     </g>
    </g>
    <g id="ytick_14">
     <g id="line2d_48">
      <path d="M 557.51476 56.478367
L 1009.19952 56.478367
" clip-path="url(#p2f41e64892)" style="fill: none; stroke: #e5e5e5; stroke-width: 0.6; stroke-linecap: square"/>
     </g>
     <g id="line2d_49">
      <g>
       <use xlink:href="#m758960be85" x="557.51476" y="56.478367" style="stroke: #000000; stroke-width: 0.8"/>
      </g>
     </g>
     <g id="text_21">
      <!-- 2 -->
      <g transform="translate(544.15226 60.277195) scale(0.1 -0.1)">
       <use xlink:href="#DejaVuSans-15"/>
      </g>
     </g>
    </g>
    <g id="text_22">
     <!-- $P_{opt,cost}-P_{opt,base}$ -->
     <g transform="translate(528.772573 231.214269) rotate(-90) scale(0.1 -0.1)">
      <defs>
       <path id="DejaVuSans-Oblique-33" d="M 1081 4666
L 2541 4666
Q 3178 4666 3512 4369
Q 3847 4072 3847 3500
Q 3847 2731 3353 2303
Q 2859 1875 1966 1875
L 1172 1875
L 806 0
L 172 0
L 1081 4666
z
M 1613 4147
L 1275 2394
L 2069 2394
Q 2606 2394 2893 2669
Q 3181 2944 3181 3456
Q 3181 3784 2986 3965
Q 2791 4147 2438 4147
L 1613 4147
z
" transform="scale(0.015625)"/>
       <path id="DejaVuSans-Oblique-52" d="M 1625 -91
Q 1009 -91 651 289
Q 294 669 294 1325
Q 294 1706 417 2101
Q 541 2497 738 2766
Q 1047 3184 1428 3384
Q 1809 3584 2291 3584
Q 2888 3584 3255 3212
Q 3622 2841 3622 2241
Q 3622 1825 3500 1412
Q 3378 1000 3181 728
Q 2875 309 2494 109
Q 2113 -91 1625 -91
z
M 891 1344
Q 891 869 1089 633
Q 1288 397 1691 397
Q 2269 397 2648 901
Q 3028 1406 3028 2181
Q 3028 2634 2825 2865
Q 2622 3097 2228 3097
Q 1903 3097 1650 2945
Q 1397 2794 1197 2484
Q 1050 2253 970 1956
Q 891 1659 891 1344
z
" transform="scale(0.015625)"/>
       <path id="DejaVuSans-Oblique-53" d="M 3175 2156
Q 3175 2616 2975 2859
Q 2775 3103 2400 3103
Q 2144 3103 1911 2972
Q 1678 2841 1497 2591
Q 1319 2344 1212 1994
Q 1106 1644 1106 1300
Q 1106 863 1306 627
Q 1506 391 1875 391
Q 2147 391 2380 519
Q 2613 647 2778 891
Q 2956 1147 3065 1494
Q 3175 1841 3175 2156
z
M 1394 2969
Q 1625 3272 1939 3428
Q 2253 3584 2638 3584
Q 3175 3584 3472 3232
Q 3769 2881 3769 2247
Q 3769 1728 3584 1258
Q 3400 788 3053 416
Q 2822 169 2531 39
Q 2241 -91 1919 -91
Q 1547 -91 1294 64
Q 1041 219 916 525
L 556 -1331
L -19 -1331
L 922 3500
L 1497 3500
L 1394 2969
z
" transform="scale(0.015625)"/>
       <path id="DejaVuSans-Oblique-57" d="M 2706 3500
L 2619 3053
L 1472 3053
L 1100 1153
Q 1081 1047 1072 975
Q 1063 903 1063 863
Q 1063 663 1183 572
Q 1303 481 1569 481
L 2150 481
L 2053 0
L 1503 0
Q 991 0 739 200
Q 488 400 488 806
Q 488 878 497 964
Q 506 1050 525 1153
L 897 3053
L 409 3053
L 500 3500
L 978 3500
L 1172 4494
L 1747 4494
L 1556 3500
L 2706 3500
z
" transform="scale(0.015625)"/>
       <path id="DejaVuSans-f" d="M 750 794
L 1409 794
L 1409 256
L 897 -744
L 494 -744
L 750 256
L 750 794
z
" transform="scale(0.015625)"/>
       <path id="DejaVuSans-Oblique-46" d="M 3431 3366
L 3316 2797
Q 3109 2947 2876 3022
Q 2644 3097 2394 3097
Q 2119 3097 1870 3000
Q 1622 2903 1453 2725
Q 1184 2453 1037 2087
Q 891 1722 891 1331
Q 891 859 1127 628
Q 1363 397 1844 397
Q 2081 397 2348 469
Q 2616 541 2906 684
L 2797 116
Q 2547 13 2283 -39
Q 2019 -91 1741 -91
Q 1044 -91 669 257
Q 294 606 294 1253
Q 294 1797 489 2255
Q 684 2713 1069 3078
Q 1331 3328 1684 3456
Q 2038 3584 2456 3584
Q 2700 3584 2940 3529
Q 3181 3475 3431 3366
z
" transform="scale(0.015625)"/>
       <path id="DejaVuSans-Oblique-56" d="M 3200 3397
L 3091 2853
Q 2863 2978 2609 3040
Q 2356 3103 2088 3103
Q 1634 3103 1373 2948
Q 1113 2794 1113 2528
Q 1113 2219 1719 2053
Q 1766 2041 1788 2034
L 1972 1978
Q 2547 1819 2739 1644
Q 2931 1469 2931 1166
Q 2931 609 2489 259
Q 2047 -91 1331 -91
Q 1053 -91 747 -37
Q 441 16 72 128
L 184 722
Q 500 559 806 475
Q 1113 391 1394 391
Q 1816 391 2080 572
Q 2344 753 2344 1031
Q 2344 1331 1650 1516
L 1591 1531
L 1394 1581
Q 956 1697 753 1886
Q 550 2075 550 2369
Q 550 2928 970 3256
Q 1391 3584 2113 3584
Q 2397 3584 2667 3537
Q 2938 3491 3200 3397
z
" transform="scale(0.015625)"/>
       <path id="DejaVuSans-Oblique-45" d="M 3169 2138
Q 3169 2591 2961 2847
Q 2753 3103 2388 3103
Q 2122 3103 1889 2973
Q 1656 2844 1484 2597
Q 1303 2338 1198 1995
Q 1094 1653 1094 1313
Q 1094 881 1298 636
Q 1503 391 1863 391
Q 2134 391 2365 517
Q 2597 644 2772 891
Q 2950 1147 3059 1487
Q 3169 1828 3169 2138
z
M 1381 2969
Q 1594 3256 1914 3420
Q 2234 3584 2584 3584
Q 3122 3584 3439 3221
Q 3756 2859 3756 2241
Q 3756 1734 3570 1259
Q 3384 784 3041 416
Q 2816 172 2522 40
Q 2228 -91 1906 -91
Q 1566 -91 1316 65
Q 1066 222 909 531
L 806 0
L 231 0
L 1178 4863
L 1753 4863
L 1381 2969
z
" transform="scale(0.015625)"/>
       <path id="DejaVuSans-Oblique-44" d="M 3438 1997
L 3047 0
L 2472 0
L 2578 531
Q 2325 219 2001 64
Q 1678 -91 1281 -91
Q 834 -91 548 182
Q 263 456 263 884
Q 263 1497 752 1853
Q 1241 2209 2100 2209
L 2900 2209
L 2931 2363
Q 2938 2388 2941 2417
Q 2944 2447 2944 2509
Q 2944 2788 2717 2942
Q 2491 3097 2081 3097
Q 1800 3097 1504 3025
Q 1209 2953 897 2809
L 997 3341
Q 1322 3463 1633 3523
Q 1944 3584 2234 3584
Q 2853 3584 3176 3315
Q 3500 3047 3500 2534
Q 3500 2431 3484 2292
Q 3469 2153 3438 1997
z
M 2816 1759
L 2241 1759
Q 1534 1759 1195 1570
Q 856 1381 856 984
Q 856 709 1029 553
Q 1203 397 1509 397
Q 1978 397 2328 733
Q 2678 1069 2791 1631
L 2816 1759
z
" transform="scale(0.015625)"/>
       <path id="DejaVuSans-Oblique-48" d="M 3078 2063
Q 3088 2113 3092 2166
Q 3097 2219 3097 2272
Q 3097 2653 2873 2875
Q 2650 3097 2266 3097
Q 1838 3097 1509 2826
Q 1181 2556 1013 2059
L 3078 2063
z
M 3578 1613
L 903 1613
Q 884 1494 878 1425
Q 872 1356 872 1306
Q 872 872 1139 634
Q 1406 397 1894 397
Q 2269 397 2603 481
Q 2938 566 3225 728
L 3116 159
Q 2806 34 2476 -28
Q 2147 -91 1806 -91
Q 1078 -91 686 257
Q 294 606 294 1247
Q 294 1794 489 2264
Q 684 2734 1063 3103
Q 1306 3334 1642 3459
Q 1978 3584 2356 3584
Q 2950 3584 3301 3228
Q 3653 2872 3653 2272
Q 3653 2128 3634 1964
Q 3616 1800 3578 1613
z
" transform="scale(0.015625)"/>
      </defs>
      <use xlink:href="#DejaVuSans-Oblique-33" transform="translate(0 0.09375)"/>
      <use xlink:href="#DejaVuSans-Oblique-52" transform="translate(60.302734 -14.906201) scale(0.7)"/>
      <use xlink:href="#DejaVuSans-Oblique-53" transform="translate(103.129883 -14.906201) scale(0.7)"/>
      <use xlink:href="#DejaVuSans-Oblique-57" transform="translate(147.563477 -14.906201) scale(0.7)"/>
      <use xlink:href="#DejaVuSans-f" transform="translate(175.009766 -14.906201) scale(0.7)"/>
      <use xlink:href="#DejaVuSans-Oblique-46" transform="translate(210.898438 -14.906201) scale(0.7)"/>
      <use xlink:href="#DejaVuSans-Oblique-52" transform="translate(249.384766 -14.906201) scale(0.7)"/>
      <use xlink:href="#DejaVuSans-Oblique-56" transform="translate(292.211914 -14.906201) scale(0.7)"/>
      <use xlink:href="#DejaVuSans-Oblique-57" transform="translate(328.681641 -14.906201) scale(0.7)"/>
      <use xlink:href="#DejaVuSans-c9c" transform="translate(378.344727 0.09375)"/>
      <use xlink:href="#DejaVuSans-Oblique-33" transform="translate(481.616211 0.09375)"/>
      <use xlink:href="#DejaVuSans-Oblique-52" transform="translate(541.918945 -14.906201) scale(0.7)"/>
      <use xlink:href="#DejaVuSans-Oblique-53" transform="translate(584.746094 -14.906201) scale(0.7)"/>
      <use xlink:href="#DejaVuSans-Oblique-57" transform="translate(629.179688 -14.906201) scale(0.7)"/>
      <use xlink:href="#DejaVuSans-f" transform="translate(656.625977 -14.906201) scale(0.7)"/>
      <use xlink:href="#DejaVuSans-Oblique-45" transform="translate(692.514648 -14.906201) scale(0.7)"/>
      <use xlink:href="#DejaVuSans-Oblique-44" transform="translate(736.948242 -14.906201) scale(0.7)"/>
      <use xlink:href="#DejaVuSans-Oblique-56" transform="translate(779.84375 -14.906201) scale(0.7)"/>
      <use xlink:href="#DejaVuSans-Oblique-48" transform="translate(816.313477 -14.906201) scale(0.7)"/>
     </g>
    </g>
   </g>
   <g id="patch_11">
    <path d="M 653.497771 144.202301
L 687.374128 144.202301
L 687.374128 144.202301
L 653.497771 144.202301
L 653.497771 144.202301
z
" clip-path="url(#p2f41e64892)" style="fill: #e69f00; opacity: 0.72; stroke: #000000; stroke-linejoin: miter"/>
   </g>
   <g id="line2d_50">
    <path d="M 670.43595 144.202301
L 670.43595 144.202301
" clip-path="url(#p2f41e64892)" style="fill: none; stroke: #000000; stroke-linecap: square"/>
   </g>
   <g id="line2d_51">
    <path d="M 670.43595 144.202301
L 670.43595 144.202301
" clip-path="url(#p2f41e64892)" style="fill: none; stroke: #000000; stroke-linecap: square"/>
   </g>
   <g id="line2d_52">
    <path d="M 661.966861 144.202301
L 678.905039 144.202301
" clip-path="url(#p2f41e64892)" style="fill: none; stroke: #000000; stroke-linecap: square"/>
   </g>
   <g id="line2d_53">
    <path d="M 661.966861 144.202301
L 678.905039 144.202301
" clip-path="url(#p2f41e64892)" style="fill: none; stroke: #000000; stroke-linecap: square"/>
   </g>
   <g id="patch_12">
    <path d="M 879.340152 231.926236
L 913.216509 231.926236
L 913.216509 144.202301
L 879.340152 144.202301
L 879.340152 231.926236
z
" clip-path="url(#p2f41e64892)" style="fill: #e69f00; opacity: 0.72; stroke: #000000; stroke-linejoin: miter"/>
   </g>
   <g id="line2d_54">
    <path d="M 896.27833 231.926236
L 896.27833 319.65017
" clip-path="url(#p2f41e64892)" style="fill: none; stroke: #000000; stroke-linecap: square"/>
   </g>
   <g id="line2d_55">
    <path d="M 896.27833 144.202301
L 896.27833 56.478367
" clip-path="url(#p2f41e64892)" style="fill: none; stroke: #000000; stroke-linecap: square"/>
   </g>
   <g id="line2d_56">
    <path d="M 887.809241 319.65017
L 904.747419 319.65017
" clip-path="url(#p2f41e64892)" style="fill: none; stroke: #000000; stroke-linecap: square"/>
   </g>
   <g id="line2d_57">
    <path d="M 887.809241 56.478367
L 904.747419 56.478367
" clip-path="url(#p2f41e64892)" style="fill: none; stroke: #000000; stroke-linecap: square"/>
   </g>
   <g id="line2d_58">
    <path d="M 557.51476 144.202301
L 1009.19952 144.202301
" clip-path="url(#p2f41e64892)" style="fill: none; stroke: #222222; stroke-linecap: square"/>
   </g>
   <g id="line2d_59">
    <path d="M 653.497771 144.202301
L 687.374128 144.202301
" clip-path="url(#p2f41e64892)" style="fill: none; stroke: #ff7f0e"/>
   </g>
   <g id="line2d_60">
    <path d="M 879.340152 144.202301
L 913.216509 144.202301
" clip-path="url(#p2f41e64892)" style="fill: none; stroke: #ff7f0e"/>
   </g>
   <g id="patch_13">
    <path d="M 557.51476 332.80876
L 557.51476 43.319777
" style="fill: none; stroke: #000000; stroke-width: 0.8; stroke-linejoin: miter; stroke-linecap: square"/>
   </g>
   <g id="patch_14">
    <path d="M 1009.19952 332.80876
L 1009.19952 43.319777
" style="fill: none; stroke: #000000; stroke-width: 0.8; stroke-linejoin: miter; stroke-linecap: square"/>
   </g>
   <g id="patch_15">
    <path d="M 557.51476 332.80876
L 1009.19952 332.80876
" style="fill: none; stroke: #000000; stroke-width: 0.8; stroke-linejoin: miter; stroke-linecap: square"/>
   </g>
   <g id="patch_16">
    <path d="M 557.51476 43.319777
L 1009.19952 43.319777
" style="fill: none; stroke: #000000; stroke-width: 0.8; stroke-linejoin: miter; stroke-linecap: square"/>
   </g>
   <g id="text_23">
    <!-- C2: policy-optimal P shift -->
    <g transform="translate(698.150578 37.319777) scale(0.12 -0.12)">
     <defs>
      <path id="DejaVuSans-Bold-15" d="M 1844 884
L 3897 884
L 3897 0
L 506 0
L 506 884
L 2209 2388
Q 2438 2594 2547 2791
Q 2656 2988 2656 3200
Q 2656 3528 2436 3728
Q 2216 3928 1850 3928
Q 1569 3928 1234 3808
Q 900 3688 519 3450
L 519 4475
Q 925 4609 1322 4679
Q 1719 4750 2100 4750
Q 2938 4750 3402 4381
Q 3866 4013 3866 3353
Q 3866 2972 3669 2642
Q 3472 2313 2841 1759
L 1844 884
z
" transform="scale(0.015625)"/>
      <path id="DejaVuSans-Bold-53" d="M 1656 506
L 1656 -1331
L 538 -1331
L 538 3500
L 1656 3500
L 1656 2988
Q 1888 3294 2169 3439
Q 2450 3584 2816 3584
Q 3463 3584 3878 3070
Q 4294 2556 4294 1747
Q 4294 938 3878 423
Q 3463 -91 2816 -91
Q 2450 -91 2169 54
Q 1888 200 1656 506
z
M 2400 2772
Q 2041 2772 1848 2508
Q 1656 2244 1656 1747
Q 1656 1250 1848 986
Q 2041 722 2400 722
Q 2759 722 2948 984
Q 3138 1247 3138 1747
Q 3138 2247 2948 2509
Q 2759 2772 2400 2772
z
" transform="scale(0.015625)"/>
      <path id="DejaVuSans-Bold-52" d="M 2203 2784
Q 1831 2784 1636 2517
Q 1441 2250 1441 1747
Q 1441 1244 1636 976
Q 1831 709 2203 709
Q 2569 709 2762 976
Q 2956 1244 2956 1747
Q 2956 2250 2762 2517
Q 2569 2784 2203 2784
z
M 2203 3584
Q 3106 3584 3614 3096
Q 4122 2609 4122 1747
Q 4122 884 3614 396
Q 3106 -91 2203 -91
Q 1297 -91 786 396
Q 275 884 275 1747
Q 275 2609 786 3096
Q 1297 3584 2203 3584
z
" transform="scale(0.015625)"/>
      <path id="DejaVuSans-Bold-4f" d="M 538 4863
L 1656 4863
L 1656 0
L 538 0
L 538 4863
z
" transform="scale(0.015625)"/>
      <path id="DejaVuSans-Bold-4c" d="M 538 3500
L 1656 3500
L 1656 0
L 538 0
L 538 3500
z
M 538 4863
L 1656 4863
L 1656 3950
L 538 3950
L 538 4863
z
" transform="scale(0.015625)"/>
      <path id="DejaVuSans-Bold-10" d="M 347 2297
L 2309 2297
L 2309 1388
L 347 1388
L 347 2297
z
" transform="scale(0.015625)"/>
      <path id="DejaVuSans-Bold-50" d="M 3781 2919
Q 3994 3244 4286 3414
Q 4578 3584 4928 3584
Q 5531 3584 5847 3212
Q 6163 2841 6163 2131
L 6163 0
L 5038 0
L 5038 1825
Q 5041 1866 5042 1909
Q 5044 1953 5044 2034
Q 5044 2406 4934 2573
Q 4825 2741 4581 2741
Q 4263 2741 4089 2478
Q 3916 2216 3909 1719
L 3909 0
L 2784 0
L 2784 1825
Q 2784 2406 2684 2573
Q 2584 2741 2328 2741
Q 2006 2741 1831 2477
Q 1656 2213 1656 1722
L 1656 0
L 531 0
L 531 3500
L 1656 3500
L 1656 2988
Q 1863 3284 2130 3434
Q 2397 3584 2719 3584
Q 3081 3584 3359 3409
Q 3638 3234 3781 2919
z
" transform="scale(0.015625)"/>
      <path id="DejaVuSans-Bold-33" d="M 588 4666
L 2584 4666
Q 3475 4666 3951 4270
Q 4428 3875 4428 3144
Q 4428 2409 3951 2014
Q 3475 1619 2584 1619
L 1791 1619
L 1791 0
L 588 0
L 588 4666
z
M 1791 3794
L 1791 2491
L 2456 2491
Q 2806 2491 2997 2661
Q 3188 2831 3188 3144
Q 3188 3456 2997 3625
Q 2806 3794 2456 3794
L 1791 3794
z
" transform="scale(0.015625)"/>
      <path id="DejaVuSans-Bold-4b" d="M 4056 2131
L 4056 0
L 2931 0
L 2931 347
L 2931 1625
Q 2931 2084 2911 2256
Q 2891 2428 2841 2509
Q 2775 2619 2662 2680
Q 2550 2741 2406 2741
Q 2056 2741 1856 2470
Q 1656 2200 1656 1722
L 1656 0
L 538 0
L 538 4863
L 1656 4863
L 1656 2988
Q 1909 3294 2193 3439
Q 2478 3584 2822 3584
Q 3428 3584 3742 3212
Q 4056 2841 4056 2131
z
" transform="scale(0.015625)"/>
      <path id="DejaVuSans-Bold-49" d="M 2841 4863
L 2841 4128
L 2222 4128
Q 1984 4128 1890 4042
Q 1797 3956 1797 3744
L 1797 3500
L 2753 3500
L 2753 2700
L 1797 2700
L 1797 0
L 678 0
L 678 2700
L 122 2700
L 122 3500
L 678 3500
L 678 3744
Q 678 4316 997 4589
Q 1316 4863 1984 4863
L 2841 4863
z
" transform="scale(0.015625)"/>
     </defs>
     <use xlink:href="#DejaVuSans-Bold-26"/>
     <use xlink:href="#DejaVuSans-Bold-15" transform="translate(73.390625 0)"/>
     <use xlink:href="#DejaVuSans-Bold-1d" transform="translate(142.96875 0)"/>
     <use xlink:href="#DejaVuSans-Bold-3" transform="translate(182.953125 0)"/>
     <use xlink:href="#DejaVuSans-Bold-53" transform="translate(217.765625 0)"/>
     <use xlink:href="#DejaVuSans-Bold-52" transform="translate(289.34375 0)"/>
     <use xlink:href="#DejaVuSans-Bold-4f" transform="translate(358.046875 0)"/>
     <use xlink:href="#DejaVuSans-Bold-4c" transform="translate(392.328125 0)"/>
     <use xlink:href="#DejaVuSans-Bold-46" transform="translate(426.609375 0)"/>
     <use xlink:href="#DejaVuSans-Bold-5c" transform="translate(485.890625 0)"/>
     <use xlink:href="#DejaVuSans-Bold-10" transform="translate(551.078125 0)"/>
     <use xlink:href="#DejaVuSans-Bold-52" transform="translate(592.578125 0)"/>
     <use xlink:href="#DejaVuSans-Bold-53" transform="translate(661.28125 0)"/>
     <use xlink:href="#DejaVuSans-Bold-57" transform="translate(732.859375 0)"/>
     <use xlink:href="#DejaVuSans-Bold-4c" transform="translate(780.65625 0)"/>
     <use xlink:href="#DejaVuSans-Bold-50" transform="translate(814.9375 0)"/>
     <use xlink:href="#DejaVuSans-Bold-44" transform="translate(919.140625 0)"/>
     <use xlink:href="#DejaVuSans-Bold-4f" transform="translate(986.625 0)"/>
     <use xlink:href="#DejaVuSans-Bold-3" transform="translate(1020.90625 0)"/>
     <use xlink:href="#DejaVuSans-Bold-33" transform="translate(1055.71875 0)"/>
     <use xlink:href="#DejaVuSans-Bold-3" transform="translate(1129.015625 0)"/>
     <use xlink:href="#DejaVuSans-Bold-56" transform="translate(1163.828125 0)"/>
     <use xlink:href="#DejaVuSans-Bold-4b" transform="translate(1223.34375 0)"/>
     <use xlink:href="#DejaVuSans-Bold-4c" transform="translate(1294.53125 0)"/>
     <use xlink:href="#DejaVuSans-Bold-49" transform="translate(1328.8125 0)"/>
     <use xlink:href="#DejaVuSans-Bold-57" transform="translate(1372.3125 0)"/>
    </g>
   </g>
  </g>
  <g id="axes_3">
   <g id="patch_17">
    <path d="M 58.846094 676.496059
L 510.530854 676.496059
L 510.530854 387.007076
L 58.846094 387.007076
z
" style="fill: #ffffff"/>
   </g>
   <g id="matplotlib.axis_5">
    <g id="xtick_6">
     <g id="line2d_61">
      <g>
       <use xlink:href="#mff076e6b73" x="171.767284" y="676.496059" style="stroke: #000000; stroke-width: 0.8"/>
      </g>
     </g>
     <g id="text_24">
      <!-- P interaction -->
      <g transform="translate(141.873438 707.216001) rotate(-15) scale(0.1 -0.1)">
       <defs>
        <path id="DejaVuSans-33" d="M 1259 4147
L 1259 2394
L 2053 2394
Q 2494 2394 2734 2622
Q 2975 2850 2975 3272
Q 2975 3691 2734 3919
Q 2494 4147 2053 4147
L 1259 4147
z
M 628 4666
L 2053 4666
Q 2838 4666 3239 4311
Q 3641 3956 3641 3272
Q 3641 2581 3239 2228
Q 2838 1875 2053 1875
L 1259 1875
L 1259 0
L 628 0
L 628 4666
z
" transform="scale(0.015625)"/>
       </defs>
       <use xlink:href="#DejaVuSans-33"/>
       <use xlink:href="#DejaVuSans-3" transform="translate(60.296875 0)"/>
       <use xlink:href="#DejaVuSans-4c" transform="translate(92.078125 0)"/>
       <use xlink:href="#DejaVuSans-51" transform="translate(119.859375 0)"/>
       <use xlink:href="#DejaVuSans-57" transform="translate(183.234375 0)"/>
       <use xlink:href="#DejaVuSans-48" transform="translate(222.4375 0)"/>
       <use xlink:href="#DejaVuSans-55" transform="translate(283.96875 0)"/>
       <use xlink:href="#DejaVuSans-44" transform="translate(325.078125 0)"/>
       <use xlink:href="#DejaVuSans-46" transform="translate(386.359375 0)"/>
       <use xlink:href="#DejaVuSans-57" transform="translate(441.34375 0)"/>
       <use xlink:href="#DejaVuSans-4c" transform="translate(480.546875 0)"/>
       <use xlink:href="#DejaVuSans-52" transform="translate(508.328125 0)"/>
       <use xlink:href="#DejaVuSans-51" transform="translate(569.515625 0)"/>
      </g>
     </g>
    </g>
    <g id="xtick_7">
     <g id="line2d_62">
      <g>
       <use xlink:href="#mff076e6b73" x="397.609664" y="676.496059" style="stroke: #000000; stroke-width: 0.8"/>
      </g>
     </g>
     <g id="text_25">
      <!-- overhead attenuation -->
      <g transform="translate(345.952301 718.879034) rotate(-15) scale(0.1 -0.1)">
       <use xlink:href="#DejaVuSans-52"/>
       <use xlink:href="#DejaVuSans-59" transform="translate(61.1875 0)"/>
       <use xlink:href="#DejaVuSans-48" transform="translate(120.375 0)"/>
       <use xlink:href="#DejaVuSans-55" transform="translate(181.90625 0)"/>
       <use xlink:href="#DejaVuSans-4b" transform="translate(221.265625 0)"/>
       <use xlink:href="#DejaVuSans-48" transform="translate(284.640625 0)"/>
       <use xlink:href="#DejaVuSans-44" transform="translate(346.171875 0)"/>
       <use xlink:href="#DejaVuSans-47" transform="translate(407.453125 0)"/>
       <use xlink:href="#DejaVuSans-3" transform="translate(470.9375 0)"/>
       <use xlink:href="#DejaVuSans-44" transform="translate(502.71875 0)"/>
       <use xlink:href="#DejaVuSans-57" transform="translate(564 0)"/>
       <use xlink:href="#DejaVuSans-57" transform="translate(603.203125 0)"/>
       <use xlink:href="#DejaVuSans-48" transform="translate(642.40625 0)"/>
       <use xlink:href="#DejaVuSans-51" transform="translate(703.9375 0)"/>
       <use xlink:href="#DejaVuSans-58" transform="translate(767.3125 0)"/>
       <use xlink:href="#DejaVuSans-44" transform="translate(830.6875 0)"/>
       <use xlink:href="#DejaVuSans-57" transform="translate(891.96875 0)"/>
       <use xlink:href="#DejaVuSans-4c" transform="translate(931.171875 0)"/>
       <use xlink:href="#DejaVuSans-52" transform="translate(958.953125 0)"/>
       <use xlink:href="#DejaVuSans-51" transform="translate(1020.140625 0)"/>
      </g>
     </g>
    </g>
   </g>
   <g id="matplotlib.axis_6">
    <g id="ytick_15">
     <g id="line2d_63">
      <path d="M 58.846094 637.237786
L 510.530854 637.237786
" clip-path="url(#p90a70102f4)" style="fill: none; stroke: #e5e5e5; stroke-width: 0.6; stroke-linecap: square"/>
     </g>
     <g id="line2d_64">
      <g>
       <use xlink:href="#m758960be85" x="58.846094" y="637.237786" style="stroke: #000000; stroke-width: 0.8"/>
      </g>
     </g>
     <g id="text_26">
      <!-- −10 -->
      <g transform="translate(30.741406 641.036614) scale(0.1 -0.1)">
       <use xlink:href="#DejaVuSans-c9c"/>
       <use xlink:href="#DejaVuSans-14" transform="translate(83.796875 0)"/>
       <use xlink:href="#DejaVuSans-13" transform="translate(147.421875 0)"/>
      </g>
     </g>
    </g>
    <g id="ytick_16">
     <g id="line2d_65">
      <path d="M 58.846094 582.863447
L 510.530854 582.863447
" clip-path="url(#p90a70102f4)" style="fill: none; stroke: #e5e5e5; stroke-width: 0.6; stroke-linecap: square"/>
     </g>
     <g id="line2d_66">
      <g>
       <use xlink:href="#m758960be85" x="58.846094" y="582.863447" style="stroke: #000000; stroke-width: 0.8"/>
      </g>
     </g>
     <g id="text_27">
      <!-- 0 -->
      <g transform="translate(45.483594 586.662275) scale(0.1 -0.1)">
       <use xlink:href="#DejaVuSans-13"/>
      </g>
     </g>
    </g>
    <g id="ytick_17">
     <g id="line2d_67">
      <path d="M 58.846094 528.489107
L 510.530854 528.489107
" clip-path="url(#p90a70102f4)" style="fill: none; stroke: #e5e5e5; stroke-width: 0.6; stroke-linecap: square"/>
     </g>
     <g id="line2d_68">
      <g>
       <use xlink:href="#m758960be85" x="58.846094" y="528.489107" style="stroke: #000000; stroke-width: 0.8"/>
      </g>
     </g>
     <g id="text_28">
      <!-- 10 -->
      <g transform="translate(39.121094 532.287935) scale(0.1 -0.1)">
       <use xlink:href="#DejaVuSans-14"/>
       <use xlink:href="#DejaVuSans-13" transform="translate(63.625 0)"/>
      </g>
     </g>
    </g>
    <g id="ytick_18">
     <g id="line2d_69">
      <path d="M 58.846094 474.114768
L 510.530854 474.114768
" clip-path="url(#p90a70102f4)" style="fill: none; stroke: #e5e5e5; stroke-width: 0.6; stroke-linecap: square"/>
     </g>
     <g id="line2d_70">
      <g>
       <use xlink:href="#m758960be85" x="58.846094" y="474.114768" style="stroke: #000000; stroke-width: 0.8"/>
      </g>
     </g>
     <g id="text_29">
      <!-- 20 -->
      <g transform="translate(39.121094 477.913596) scale(0.1 -0.1)">
       <use xlink:href="#DejaVuSans-15"/>
       <use xlink:href="#DejaVuSans-13" transform="translate(63.625 0)"/>
      </g>
     </g>
    </g>
    <g id="ytick_19">
     <g id="line2d_71">
      <path d="M 58.846094 419.740428
L 510.530854 419.740428
" clip-path="url(#p90a70102f4)" style="fill: none; stroke: #e5e5e5; stroke-width: 0.6; stroke-linecap: square"/>
     </g>
     <g id="line2d_72">
      <g>
       <use xlink:href="#m758960be85" x="58.846094" y="419.740428" style="stroke: #000000; stroke-width: 0.8"/>
      </g>
     </g>
     <g id="text_30">
      <!-- 30 -->
      <g transform="translate(39.121094 423.539256) scale(0.1 -0.1)">
       <use xlink:href="#DejaVuSans-16"/>
       <use xlink:href="#DejaVuSans-13" transform="translate(63.625 0)"/>
      </g>
     </g>
    </g>
    <g id="text_31">
     <!-- Paired makespan contrast -->
     <g transform="translate(24.339063 596.731255) rotate(-90) scale(0.1 -0.1)">
      <defs>
       <path id="DejaVuSans-53" d="M 1159 525
L 1159 -1331
L 581 -1331
L 581 3500
L 1159 3500
L 1159 2969
Q 1341 3281 1617 3432
Q 1894 3584 2278 3584
Q 2916 3584 3314 3078
Q 3713 2572 3713 1747
Q 3713 922 3314 415
Q 2916 -91 2278 -91
Q 1894 -91 1617 61
Q 1341 213 1159 525
z
M 3116 1747
Q 3116 2381 2855 2742
Q 2594 3103 2138 3103
Q 1681 3103 1420 2742
Q 1159 2381 1159 1747
Q 1159 1113 1420 752
Q 1681 391 2138 391
Q 2594 391 2855 752
Q 3116 1113 3116 1747
z
" transform="scale(0.015625)"/>
      </defs>
      <use xlink:href="#DejaVuSans-33"/>
      <use xlink:href="#DejaVuSans-44" transform="translate(55.8125 0)"/>
      <use xlink:href="#DejaVuSans-4c" transform="translate(117.09375 0)"/>
      <use xlink:href="#DejaVuSans-55" transform="translate(144.875 0)"/>
      <use xlink:href="#DejaVuSans-48" transform="translate(183.78125 0)"/>
      <use xlink:href="#DejaVuSans-47" transform="translate(245.3125 0)"/>
      <use xlink:href="#DejaVuSans-3" transform="translate(308.796875 0)"/>
      <use xlink:href="#DejaVuSans-50" transform="translate(340.578125 0)"/>
      <use xlink:href="#DejaVuSans-44" transform="translate(437.984375 0)"/>
      <use xlink:href="#DejaVuSans-4e" transform="translate(499.265625 0)"/>
      <use xlink:href="#DejaVuSans-48" transform="translate(553.609375 0)"/>
      <use xlink:href="#DejaVuSans-56" transform="translate(615.140625 0)"/>
      <use xlink:href="#DejaVuSans-53" transform="translate(667.234375 0)"/>
      <use xlink:href="#DejaVuSans-44" transform="translate(730.71875 0)"/>
      <use xlink:href="#DejaVuSans-51" transform="translate(792 0)"/>
      <use xlink:href="#DejaVuSans-3" transform="translate(855.375 0)"/>
      <use xlink:href="#DejaVuSans-46" transform="translate(887.15625 0)"/>
      <use xlink:href="#DejaVuSans-52" transform="translate(942.140625 0)"/>
      <use xlink:href="#DejaVuSans-51" transform="translate(1003.328125 0)"/>
      <use xlink:href="#DejaVuSans-57" transform="translate(1066.703125 0)"/>
      <use xlink:href="#DejaVuSans-55" transform="translate(1105.90625 0)"/>
      <use xlink:href="#DejaVuSans-44" transform="translate(1147.015625 0)"/>
      <use xlink:href="#DejaVuSans-56" transform="translate(1208.296875 0)"/>
      <use xlink:href="#DejaVuSans-57" transform="translate(1260.390625 0)"/>
     </g>
    </g>
   </g>
   <g id="patch_18">
    <path d="M 154.829105 569.813605
L 188.705462 569.813605
L 188.705462 501.301937
L 154.829105 501.301937
L 154.829105 569.813605
z
" clip-path="url(#p90a70102f4)" style="fill: #009e73; opacity: 0.72; stroke: #000000; stroke-linejoin: miter"/>
   </g>
   <g id="line2d_73">
    <path d="M 171.767284 569.813605
L 171.767284 663.337469
" clip-path="url(#p90a70102f4)" style="fill: none; stroke: #000000; stroke-linecap: square"/>
   </g>
   <g id="line2d_74">
    <path d="M 171.767284 501.301937
L 171.767284 400.165666
" clip-path="url(#p90a70102f4)" style="fill: none; stroke: #000000; stroke-linecap: square"/>
   </g>
   <g id="line2d_75">
    <path d="M 163.298194 663.337469
L 180.236373 663.337469
" clip-path="url(#p90a70102f4)" style="fill: none; stroke: #000000; stroke-linecap: square"/>
   </g>
   <g id="line2d_76">
    <path d="M 163.298194 400.165666
L 180.236373 400.165666
" clip-path="url(#p90a70102f4)" style="fill: none; stroke: #000000; stroke-linecap: square"/>
   </g>
   <g id="patch_19">
    <path d="M 380.671485 571.988579
L 414.547842 571.988579
L 414.547842 539.363975
L 380.671485 539.363975
L 380.671485 571.988579
z
" clip-path="url(#p90a70102f4)" style="fill: #009e73; opacity: 0.72; stroke: #000000; stroke-linejoin: miter"/>
   </g>
   <g id="line2d_77">
    <path d="M 397.609664 571.988579
L 397.609664 618.750511
" clip-path="url(#p90a70102f4)" style="fill: none; stroke: #000000; stroke-linecap: square"/>
   </g>
   <g id="line2d_78">
    <path d="M 397.609664 539.363975
L 397.609664 491.514556
" clip-path="url(#p90a70102f4)" style="fill: none; stroke: #000000; stroke-linecap: square"/>
   </g>
   <g id="line2d_79">
    <path d="M 389.140574 618.750511
L 406.078753 618.750511
" clip-path="url(#p90a70102f4)" style="fill: none; stroke: #000000; stroke-linecap: square"/>
   </g>
   <g id="line2d_80">
    <path d="M 389.140574 491.514556
L 406.078753 491.514556
" clip-path="url(#p90a70102f4)" style="fill: none; stroke: #000000; stroke-linecap: square"/>
   </g>
   <g id="line2d_81">
    <path d="M 58.846094 582.863447
L 510.530854 582.863447
" clip-path="url(#p90a70102f4)" style="fill: none; stroke: #222222; stroke-linecap: square"/>
   </g>
   <g id="line2d_82">
    <path d="M 154.829105 548.063869
L 188.705462 548.063869
" clip-path="url(#p90a70102f4)" style="fill: none; stroke: #ff7f0e"/>
   </g>
   <g id="line2d_83">
    <path d="M 380.671485 571.988579
L 414.547842 571.988579
" clip-path="url(#p90a70102f4)" style="fill: none; stroke: #ff7f0e"/>
   </g>
   <g id="patch_20">
    <path d="M 58.846094 676.496059
L 58.846094 387.007076
" style="fill: none; stroke: #000000; stroke-width: 0.8; stroke-linejoin: miter; stroke-linecap: square"/>
   </g>
   <g id="patch_21">
    <path d="M 510.530854 676.496059
L 510.530854 387.007076
" style="fill: none; stroke: #000000; stroke-width: 0.8; stroke-linejoin: miter; stroke-linecap: square"/>
   </g>
   <g id="patch_22">
    <path d="M 58.846094 676.496059
L 510.530854 676.496059
" style="fill: none; stroke: #000000; stroke-width: 0.8; stroke-linejoin: miter; stroke-linecap: square"/>
   </g>
   <g id="patch_23">
    <path d="M 58.846094 387.007076
L 510.530854 387.007076
" style="fill: none; stroke: #000000; stroke-width: 0.8; stroke-linejoin: miter; stroke-linecap: square"/>
   </g>
   <g id="text_32">
    <!-- C3: decomposition contrasts -->
    <g transform="translate(188.039724 381.007076) scale(0.12 -0.12)">
     <defs>
      <path id="DejaVuSans-Bold-16" d="M 2981 2516
Q 3453 2394 3698 2092
Q 3944 1791 3944 1325
Q 3944 631 3412 270
Q 2881 -91 1863 -91
Q 1503 -91 1142 -33
Q 781 25 428 141
L 428 1069
Q 766 900 1098 814
Q 1431 728 1753 728
Q 2231 728 2486 893
Q 2741 1059 2741 1369
Q 2741 1688 2480 1852
Q 2219 2016 1709 2016
L 1228 2016
L 1228 2791
L 1734 2791
Q 2188 2791 2409 2933
Q 2631 3075 2631 3366
Q 2631 3634 2415 3781
Q 2200 3928 1806 3928
Q 1516 3928 1219 3862
Q 922 3797 628 3669
L 628 4550
Q 984 4650 1334 4700
Q 1684 4750 2022 4750
Q 2931 4750 3382 4451
Q 3834 4153 3834 3553
Q 3834 3144 3618 2883
Q 3403 2622 2981 2516
z
" transform="scale(0.015625)"/>
     </defs>
     <use xlink:href="#DejaVuSans-Bold-26"/>
     <use xlink:href="#DejaVuSans-Bold-16" transform="translate(73.390625 0)"/>
     <use xlink:href="#DejaVuSans-Bold-1d" transform="translate(142.96875 0)"/>
     <use xlink:href="#DejaVuSans-Bold-3" transform="translate(182.953125 0)"/>
     <use xlink:href="#DejaVuSans-Bold-47" transform="translate(217.765625 0)"/>
     <use xlink:href="#DejaVuSans-Bold-48" transform="translate(289.34375 0)"/>
     <use xlink:href="#DejaVuSans-Bold-46" transform="translate(357.171875 0)"/>
     <use xlink:href="#DejaVuSans-Bold-52" transform="translate(416.453125 0)"/>
     <use xlink:href="#DejaVuSans-Bold-50" transform="translate(485.15625 0)"/>
     <use xlink:href="#DejaVuSans-Bold-53" transform="translate(589.359375 0)"/>
     <use xlink:href="#DejaVuSans-Bold-52" transform="translate(660.9375 0)"/>
     <use xlink:href="#DejaVuSans-Bold-56" transform="translate(729.640625 0)"/>
     <use xlink:href="#DejaVuSans-Bold-4c" transform="translate(789.15625 0)"/>
     <use xlink:href="#DejaVuSans-Bold-57" transform="translate(823.4375 0)"/>
     <use xlink:href="#DejaVuSans-Bold-4c" transform="translate(871.234375 0)"/>
     <use xlink:href="#DejaVuSans-Bold-52" transform="translate(905.515625 0)"/>
     <use xlink:href="#DejaVuSans-Bold-51" transform="translate(974.21875 0)"/>
     <use xlink:href="#DejaVuSans-Bold-3" transform="translate(1045.40625 0)"/>
     <use xlink:href="#DejaVuSans-Bold-46" transform="translate(1080.21875 0)"/>
     <use xlink:href="#DejaVuSans-Bold-52" transform="translate(1139.5 0)"/>
     <use xlink:href="#DejaVuSans-Bold-51" transform="translate(1208.203125 0)"/>
     <use xlink:href="#DejaVuSans-Bold-57" transform="translate(1279.390625 0)"/>
     <use xlink:href="#DejaVuSans-Bold-55" transform="translate(1327.1875 0)"/>
     <use xlink:href="#DejaVuSans-Bold-44" transform="translate(1376.5 0)"/>
     <use xlink:href="#DejaVuSans-Bold-56" transform="translate(1443.984375 0)"/>
     <use xlink:href="#DejaVuSans-Bold-57" transform="translate(1503.5 0)"/>
     <use xlink:href="#DejaVuSans-Bold-56" transform="translate(1551.296875 0)"/>
    </g>
   </g>
  </g>
  <g id="axes_4">
   <g id="patch_24">
    <path d="M 557.51476 676.496059
L 1009.19952 676.496059
L 1009.19952 387.007076
L 557.51476 387.007076
z
" style="fill: #ffffff"/>
   </g>
   <g id="patch_25">
    <path d="M 578.045885 676.496059
L 735.19771 676.496059
L 735.19771 576.381119
L 578.045885 576.381119
z
" clip-path="url(#pb225b0c2e9)" style="fill: #999999"/>
   </g>
   <g id="patch_26">
    <path d="M 831.51657 676.496059
L 988.668395 676.496059
L 988.668395 629.454099
L 831.51657 629.454099
z
" clip-path="url(#pb225b0c2e9)" style="fill: #cc79a7"/>
   </g>
   <g id="matplotlib.axis_7">
    <g id="xtick_8">
     <g id="line2d_84">
      <g>
       <use xlink:href="#mff076e6b73" x="656.621798" y="676.496059" style="stroke: #000000; stroke-width: 0.8"/>
      </g>
     </g>
     <g id="text_33">
      <!-- low $\rho_H^{cp}$ -->
      <g transform="translate(638.771798 693.296059) scale(0.1 -0.1)">
       <defs>
        <path id="DejaVuSans-Oblique-355" d="M 1203 2875
Q 1453 3194 1981 3475
Q 2188 3584 2756 3584
Q 3394 3584 3694 3078
Q 3994 2572 3834 1747
Q 3672 922 3175 415
Q 2678 -91 2041 -91
Q 1656 -91 1409 63
Q 1163 213 1044 525
L 681 -1331
L 103 -1331
L 697 1716
Q 838 2438 1203 2875
z
M 3238 1747
Q 3359 2381 3169 2744
Q 2978 3103 2522 3103
Q 2066 3103 1734 2744
Q 1403 2381 1281 1747
Q 1156 1113 1347 750
Q 1538 391 1994 391
Q 2450 391 2781 750
Q 3113 1113 3238 1747
z
" transform="scale(0.015625)"/>
        <path id="DejaVuSans-Oblique-2b" d="M 1081 4666
L 1716 4666
L 1344 2753
L 3634 2753
L 4006 4666
L 4641 4666
L 3731 0
L 3097 0
L 3531 2222
L 1241 2222
L 806 0
L 172 0
L 1081 4666
z
" transform="scale(0.015625)"/>
       </defs>
       <use xlink:href="#DejaVuSans-4f" transform="translate(0 0.492187)"/>
       <use xlink:href="#DejaVuSans-52" transform="translate(27.783203 0.492187)"/>
       <use xlink:href="#DejaVuSans-5a" transform="translate(88.964844 0.492187)"/>
       <use xlink:href="#DejaVuSans-3" transform="translate(170.751953 0.492187)"/>
       <use xlink:href="#DejaVuSans-Oblique-355" transform="translate(202.539062 0.492187)"/>
       <use xlink:href="#DejaVuSans-Oblique-46" transform="translate(270.665521 58.8) scale(0.7)"/>
       <use xlink:href="#DejaVuSans-Oblique-53" transform="translate(309.151849 58.8) scale(0.7)"/>
       <use xlink:href="#DejaVuSans-Oblique-2b" transform="translate(266.015625 -31.792187) scale(0.7)"/>
      </g>
     </g>
    </g>
    <g id="xtick_9">
     <g id="line2d_85">
      <g>
       <use xlink:href="#mff076e6b73" x="910.092482" y="676.496059" style="stroke: #000000; stroke-width: 0.8"/>
      </g>
     </g>
     <g id="text_34">
      <!-- high $\rho_H^{cp}$ -->
      <g transform="translate(889.892482 693.296059) scale(0.1 -0.1)">
       <use xlink:href="#DejaVuSans-4b" transform="translate(0 0.492187)"/>
       <use xlink:href="#DejaVuSans-4c" transform="translate(63.378906 0.492187)"/>
       <use xlink:href="#DejaVuSans-4a" transform="translate(91.162109 0.492187)"/>
       <use xlink:href="#DejaVuSans-4b" transform="translate(154.638672 0.492187)"/>
       <use xlink:href="#DejaVuSans-3" transform="translate(218.017578 0.492187)"/>
       <use xlink:href="#DejaVuSans-Oblique-355" transform="translate(249.804688 0.492187)"/>
       <use xlink:href="#DejaVuSans-Oblique-46" transform="translate(317.931146 58.8) scale(0.7)"/>
       <use xlink:href="#DejaVuSans-Oblique-53" transform="translate(356.417474 58.8) scale(0.7)"/>
       <use xlink:href="#DejaVuSans-Oblique-2b" transform="translate(313.28125 -31.792187) scale(0.7)"/>
      </g>
     </g>
    </g>
   </g>
   <g id="matplotlib.axis_8">
    <g id="ytick_20">
     <g id="line2d_86">
      <path d="M 557.51476 676.496059
L 1009.19952 676.496059
" clip-path="url(#pb225b0c2e9)" style="fill: none; stroke: #e5e5e5; stroke-width: 0.6; stroke-linecap: square"/>
     </g>
     <g id="line2d_87">
      <g>
       <use xlink:href="#m758960be85" x="557.51476" y="676.496059" style="stroke: #000000; stroke-width: 0.8"/>
      </g>
     </g>
     <g id="text_35">
      <!-- 0.0 -->
      <g transform="translate(534.611635 680.294887) scale(0.1 -0.1)">
       <use xlink:href="#DejaVuSans-13"/>
       <use xlink:href="#DejaVuSans-11" transform="translate(63.625 0)"/>
       <use xlink:href="#DejaVuSans-13" transform="translate(95.40625 0)"/>
      </g>
     </g>
    </g>
    <g id="ytick_21">
     <g id="line2d_88">
      <path d="M 557.51476 618.598262
L 1009.19952 618.598262
" clip-path="url(#pb225b0c2e9)" style="fill: none; stroke: #e5e5e5; stroke-width: 0.6; stroke-linecap: square"/>
     </g>
     <g id="line2d_89">
      <g>
       <use xlink:href="#m758960be85" x="557.51476" y="618.598262" style="stroke: #000000; stroke-width: 0.8"/>
      </g>
     </g>
     <g id="text_36">
      <!-- 0.2 -->
      <g transform="translate(534.611635 622.397091) scale(0.1 -0.1)">
       <use xlink:href="#DejaVuSans-13"/>
       <use xlink:href="#DejaVuSans-11" transform="translate(63.625 0)"/>
       <use xlink:href="#DejaVuSans-15" transform="translate(95.40625 0)"/>
      </g>
     </g>
    </g>
    <g id="ytick_22">
     <g id="line2d_90">
      <path d="M 557.51476 560.700466
L 1009.19952 560.700466
" clip-path="url(#pb225b0c2e9)" style="fill: none; stroke: #e5e5e5; stroke-width: 0.6; stroke-linecap: square"/>
     </g>
     <g id="line2d_91">
      <g>
       <use xlink:href="#m758960be85" x="557.51476" y="560.700466" style="stroke: #000000; stroke-width: 0.8"/>
      </g>
     </g>
     <g id="text_37">
      <!-- 0.4 -->
      <g transform="translate(534.611635 564.499294) scale(0.1 -0.1)">
       <use xlink:href="#DejaVuSans-13"/>
       <use xlink:href="#DejaVuSans-11" transform="translate(63.625 0)"/>
       <use xlink:href="#DejaVuSans-17" transform="translate(95.40625 0)"/>
      </g>
     </g>
    </g>
    <g id="ytick_23">
     <g id="line2d_92">
      <path d="M 557.51476 502.802669
L 1009.19952 502.802669
" clip-path="url(#pb225b0c2e9)" style="fill: none; stroke: #e5e5e5; stroke-width: 0.6; stroke-linecap: square"/>
     </g>
     <g id="line2d_93">
      <g>
       <use xlink:href="#m758960be85" x="557.51476" y="502.802669" style="stroke: #000000; stroke-width: 0.8"/>
      </g>
     </g>
     <g id="text_38">
      <!-- 0.6 -->
      <g transform="translate(534.611635 506.601497) scale(0.1 -0.1)">
       <use xlink:href="#DejaVuSans-13"/>
       <use xlink:href="#DejaVuSans-11" transform="translate(63.625 0)"/>
       <use xlink:href="#DejaVuSans-19" transform="translate(95.40625 0)"/>
      </g>
     </g>
    </g>
    <g id="ytick_24">
     <g id="line2d_94">
      <path d="M 557.51476 444.904872
L 1009.19952 444.904872
" clip-path="url(#pb225b0c2e9)" style="fill: none; stroke: #e5e5e5; stroke-width: 0.6; stroke-linecap: square"/>
     </g>
     <g id="line2d_95">
      <g>
       <use xlink:href="#m758960be85" x="557.51476" y="444.904872" style="stroke: #000000; stroke-width: 0.8"/>
      </g>
     </g>
     <g id="text_39">
      <!-- 0.8 -->
      <g transform="translate(534.611635 448.703701) scale(0.1 -0.1)">
       <use xlink:href="#DejaVuSans-13"/>
       <use xlink:href="#DejaVuSans-11" transform="translate(63.625 0)"/>
       <use xlink:href="#DejaVuSans-1b" transform="translate(95.40625 0)"/>
      </g>
     </g>
    </g>
    <g id="ytick_25">
     <g id="line2d_96">
      <path d="M 557.51476 387.007076
L 1009.19952 387.007076
" clip-path="url(#pb225b0c2e9)" style="fill: none; stroke: #e5e5e5; stroke-width: 0.6; stroke-linecap: square"/>
     </g>
     <g id="line2d_97">
      <g>
       <use xlink:href="#m758960be85" x="557.51476" y="387.007076" style="stroke: #000000; stroke-width: 0.8"/>
      </g>
     </g>
     <g id="text_40">
      <!-- 1.0 -->
      <g transform="translate(534.611635 390.805904) scale(0.1 -0.1)">
       <use xlink:href="#DejaVuSans-14"/>
       <use xlink:href="#DejaVuSans-11" transform="translate(63.625 0)"/>
       <use xlink:href="#DejaVuSans-13" transform="translate(95.40625 0)"/>
      </g>
     </g>
    </g>
    <g id="text_41">
     <!-- Human branch active frequency -->
     <g transform="translate(528.209291 612.208599) rotate(-90) scale(0.1 -0.1)">
      <defs>
       <path id="DejaVuSans-2b" d="M 628 4666
L 1259 4666
L 1259 2753
L 3553 2753
L 3553 4666
L 4184 4666
L 4184 0
L 3553 0
L 3553 2222
L 1259 2222
L 1259 0
L 628 0
L 628 4666
z
" transform="scale(0.015625)"/>
       <path id="DejaVuSans-45" d="M 3116 1747
Q 3116 2381 2855 2742
Q 2594 3103 2138 3103
Q 1681 3103 1420 2742
Q 1159 2381 1159 1747
Q 1159 1113 1420 752
Q 1681 391 2138 391
Q 2594 391 2855 752
Q 3116 1113 3116 1747
z
M 1159 2969
Q 1341 3281 1617 3432
Q 1894 3584 2278 3584
Q 2916 3584 3314 3078
Q 3713 2572 3713 1747
Q 3713 922 3314 415
Q 2916 -91 2278 -91
Q 1894 -91 1617 61
Q 1341 213 1159 525
L 1159 0
L 581 0
L 581 4863
L 1159 4863
L 1159 2969
z
" transform="scale(0.015625)"/>
       <path id="DejaVuSans-49" d="M 2375 4863
L 2375 4384
L 1825 4384
Q 1516 4384 1395 4259
Q 1275 4134 1275 3809
L 1275 3500
L 2222 3500
L 2222 3053
L 1275 3053
L 1275 0
L 697 0
L 697 3053
L 147 3053
L 147 3500
L 697 3500
L 697 3744
Q 697 4328 969 4595
Q 1241 4863 1831 4863
L 2375 4863
z
" transform="scale(0.015625)"/>
       <path id="DejaVuSans-54" d="M 947 1747
Q 947 1113 1208 752
Q 1469 391 1925 391
Q 2381 391 2643 752
Q 2906 1113 2906 1747
Q 2906 2381 2643 2742
Q 2381 3103 1925 3103
Q 1469 3103 1208 2742
Q 947 2381 947 1747
z
M 2906 525
Q 2725 213 2448 61
Q 2172 -91 1784 -91
Q 1150 -91 751 415
Q 353 922 353 1747
Q 353 2572 751 3078
Q 1150 3584 1784 3584
Q 2172 3584 2448 3432
Q 2725 3281 2906 2969
L 2906 3500
L 3481 3500
L 3481 -1331
L 2906 -1331
L 2906 525
z
" transform="scale(0.015625)"/>
       <path id="DejaVuSans-5c" d="M 2059 -325
Q 1816 -950 1584 -1140
Q 1353 -1331 966 -1331
L 506 -1331
L 506 -850
L 844 -850
Q 1081 -850 1212 -737
Q 1344 -625 1503 -206
L 1606 56
L 191 3500
L 800 3500
L 1894 763
L 2988 3500
L 3597 3500
L 2059 -325
z
" transform="scale(0.015625)"/>
      </defs>
      <use xlink:href="#DejaVuSans-2b"/>
      <use xlink:href="#DejaVuSans-58" transform="translate(75.203125 0)"/>
      <use xlink:href="#DejaVuSans-50" transform="translate(138.578125 0)"/>
      <use xlink:href="#DejaVuSans-44" transform="translate(235.984375 0)"/>
      <use xlink:href="#DejaVuSans-51" transform="translate(297.265625 0)"/>
      <use xlink:href="#DejaVuSans-3" transform="translate(360.640625 0)"/>
      <use xlink:href="#DejaVuSans-45" transform="translate(392.421875 0)"/>
      <use xlink:href="#DejaVuSans-55" transform="translate(455.90625 0)"/>
      <use xlink:href="#DejaVuSans-44" transform="translate(497.015625 0)"/>
      <use xlink:href="#DejaVuSans-51" transform="translate(558.296875 0)"/>
      <use xlink:href="#DejaVuSans-46" transform="translate(621.671875 0)"/>
      <use xlink:href="#DejaVuSans-4b" transform="translate(676.65625 0)"/>
      <use xlink:href="#DejaVuSans-3" transform="translate(740.03125 0)"/>
      <use xlink:href="#DejaVuSans-44" transform="translate(771.8125 0)"/>
      <use xlink:href="#DejaVuSans-46" transform="translate(833.09375 0)"/>
      <use xlink:href="#DejaVuSans-57" transform="translate(888.078125 0)"/>
      <use xlink:href="#DejaVuSans-4c" transform="translate(927.28125 0)"/>
      <use xlink:href="#DejaVuSans-59" transform="translate(955.0625 0)"/>
      <use xlink:href="#DejaVuSans-48" transform="translate(1014.25 0)"/>
      <use xlink:href="#DejaVuSans-3" transform="translate(1075.78125 0)"/>
      <use xlink:href="#DejaVuSans-49" transform="translate(1107.5625 0)"/>
      <use xlink:href="#DejaVuSans-55" transform="translate(1142.765625 0)"/>
      <use xlink:href="#DejaVuSans-48" transform="translate(1181.671875 0)"/>
      <use xlink:href="#DejaVuSans-54" transform="translate(1243.203125 0)"/>
      <use xlink:href="#DejaVuSans-58" transform="translate(1306.6875 0)"/>
      <use xlink:href="#DejaVuSans-48" transform="translate(1370.0625 0)"/>
      <use xlink:href="#DejaVuSans-51" transform="translate(1431.59375 0)"/>
      <use xlink:href="#DejaVuSans-46" transform="translate(1494.96875 0)"/>
      <use xlink:href="#DejaVuSans-5c" transform="translate(1549.953125 0)"/>
     </g>
    </g>
   </g>
   <g id="patch_27">
    <path d="M 557.51476 676.496059
L 557.51476 387.007076
" style="fill: none; stroke: #000000; stroke-width: 0.8; stroke-linejoin: miter; stroke-linecap: square"/>
   </g>
   <g id="patch_28">
    <path d="M 1009.19952 676.496059
L 1009.19952 387.007076
" style="fill: none; stroke: #000000; stroke-width: 0.8; stroke-linejoin: miter; stroke-linecap: square"/>
   </g>
   <g id="patch_29">
    <path d="M 557.51476 676.496059
L 1009.19952 676.496059
" style="fill: none; stroke: #000000; stroke-width: 0.8; stroke-linejoin: miter; stroke-linecap: square"/>
   </g>
   <g id="patch_30">
    <path d="M 557.51476 387.007076
L 1009.19952 387.007076
" style="fill: none; stroke: #000000; stroke-width: 0.8; stroke-linejoin: miter; stroke-linecap: square"/>
   </g>
   <g id="text_42">
    <!-- C4: active lower-bound branch -->
    <g transform="translate(679.705265 381.007076) scale(0.12 -0.12)">
     <defs>
      <path id="DejaVuSans-Bold-17" d="M 2356 3675
L 1038 1722
L 2356 1722
L 2356 3675
z
M 2156 4666
L 3494 4666
L 3494 1722
L 4159 1722
L 4159 850
L 3494 850
L 3494 0
L 2356 0
L 2356 850
L 288 850
L 288 1881
L 2156 4666
z
" transform="scale(0.015625)"/>
      <path id="DejaVuSans-Bold-59" d="M 97 3500
L 1216 3500
L 2088 1081
L 2956 3500
L 4078 3500
L 2700 0
L 1472 0
L 97 3500
z
" transform="scale(0.015625)"/>
      <path id="DejaVuSans-Bold-5a" d="M 225 3500
L 1313 3500
L 1900 1088
L 2491 3500
L 3425 3500
L 4013 1113
L 4603 3500
L 5691 3500
L 4769 0
L 3547 0
L 2956 2406
L 2369 0
L 1147 0
L 225 3500
z
" transform="scale(0.015625)"/>
      <path id="DejaVuSans-Bold-45" d="M 2400 722
Q 2759 722 2948 984
Q 3138 1247 3138 1747
Q 3138 2247 2948 2509
Q 2759 2772 2400 2772
Q 2041 2772 1848 2508
Q 1656 2244 1656 1747
Q 1656 1250 1848 986
Q 2041 722 2400 722
z
M 1656 2988
Q 1888 3294 2169 3439
Q 2450 3584 2816 3584
Q 3463 3584 3878 3070
Q 4294 2556 4294 1747
Q 4294 938 3878 423
Q 3463 -91 2816 -91
Q 2450 -91 2169 54
Q 1888 200 1656 506
L 1656 0
L 538 0
L 538 4863
L 1656 4863
L 1656 2988
z
" transform="scale(0.015625)"/>
      <path id="DejaVuSans-Bold-58" d="M 500 1363
L 500 3500
L 1625 3500
L 1625 3150
Q 1625 2866 1622 2436
Q 1619 2006 1619 1863
Q 1619 1441 1641 1255
Q 1663 1069 1716 984
Q 1784 875 1895 815
Q 2006 756 2150 756
Q 2500 756 2700 1025
Q 2900 1294 2900 1772
L 2900 3500
L 4019 3500
L 4019 0
L 2900 0
L 2900 506
Q 2647 200 2364 54
Q 2081 -91 1741 -91
Q 1134 -91 817 281
Q 500 653 500 1363
z
" transform="scale(0.015625)"/>
     </defs>
     <use xlink:href="#DejaVuSans-Bold-26"/>
     <use xlink:href="#DejaVuSans-Bold-17" transform="translate(73.390625 0)"/>
     <use xlink:href="#DejaVuSans-Bold-1d" transform="translate(142.96875 0)"/>
     <use xlink:href="#DejaVuSans-Bold-3" transform="translate(182.953125 0)"/>
     <use xlink:href="#DejaVuSans-Bold-44" transform="translate(217.765625 0)"/>
     <use xlink:href="#DejaVuSans-Bold-46" transform="translate(285.25 0)"/>
     <use xlink:href="#DejaVuSans-Bold-57" transform="translate(344.53125 0)"/>
     <use xlink:href="#DejaVuSans-Bold-4c" transform="translate(392.328125 0)"/>
     <use xlink:href="#DejaVuSans-Bold-59" transform="translate(426.609375 0)"/>
     <use xlink:href="#DejaVuSans-Bold-48" transform="translate(491.796875 0)"/>
     <use xlink:href="#DejaVuSans-Bold-3" transform="translate(559.625 0)"/>
     <use xlink:href="#DejaVuSans-Bold-4f" transform="translate(594.4375 0)"/>
     <use xlink:href="#DejaVuSans-Bold-52" transform="translate(628.71875 0)"/>
     <use xlink:href="#DejaVuSans-Bold-5a" transform="translate(697.421875 0)"/>
     <use xlink:href="#DejaVuSans-Bold-48" transform="translate(789.8125 0)"/>
     <use xlink:href="#DejaVuSans-Bold-55" transform="translate(857.640625 0)"/>
     <use xlink:href="#DejaVuSans-Bold-10" transform="translate(906.953125 0)"/>
     <use xlink:href="#DejaVuSans-Bold-45" transform="translate(948.453125 0)"/>
     <use xlink:href="#DejaVuSans-Bold-52" transform="translate(1020.03125 0)"/>
     <use xlink:href="#DejaVuSans-Bold-58" transform="translate(1088.734375 0)"/>
     <use xlink:href="#DejaVuSans-Bold-51" transform="translate(1159.921875 0)"/>
     <use xlink:href="#DejaVuSans-Bold-47" transform="translate(1231.109375 0)"/>
     <use xlink:href="#DejaVuSans-Bold-3" transform="translate(1302.6875 0)"/>
     <use xlink:href="#DejaVuSans-Bold-45" transform="translate(1337.5 0)"/>
     <use xlink:href="#DejaVuSans-Bold-55" transform="translate(1409.078125 0)"/>
     <use xlink:href="#DejaVuSans-Bold-44" transform="translate(1458.390625 0)"/>
     <use xlink:href="#DejaVuSans-Bold-51" transform="translate(1525.875 0)"/>
     <use xlink:href="#DejaVuSans-Bold-46" transform="translate(1597.0625 0)"/>
     <use xlink:href="#DejaVuSans-Bold-4b" transform="translate(1656.34375 0)"/>
    </g>
   </g>
  </g>
  <g id="text_43">
   <!-- EXP-07: confirmatory paired effects -->
   <g transform="translate(357.251713 18.597656) scale(0.15 -0.15)">
    <defs>
     <path id="DejaVuSans-Bold-28" d="M 588 4666
L 3834 4666
L 3834 3756
L 1791 3756
L 1791 2888
L 3713 2888
L 3713 1978
L 1791 1978
L 1791 909
L 3903 909
L 3903 0
L 588 0
L 588 4666
z
" transform="scale(0.015625)"/>
     <path id="DejaVuSans-Bold-3b" d="M 3188 2381
L 4806 0
L 3553 0
L 2463 1594
L 1381 0
L 122 0
L 1741 2381
L 184 4666
L 1441 4666
L 2463 3163
L 3481 4666
L 4744 4666
L 3188 2381
z
" transform="scale(0.015625)"/>
     <path id="DejaVuSans-Bold-13" d="M 2944 2338
Q 2944 3213 2780 3570
Q 2616 3928 2228 3928
Q 1841 3928 1675 3570
Q 1509 3213 1509 2338
Q 1509 1453 1675 1090
Q 1841 728 2228 728
Q 2613 728 2778 1090
Q 2944 1453 2944 2338
z
M 4147 2328
Q 4147 1169 3647 539
Q 3147 -91 2228 -91
Q 1306 -91 806 539
Q 306 1169 306 2328
Q 306 3491 806 4120
Q 1306 4750 2228 4750
Q 3147 4750 3647 4120
Q 4147 3491 4147 2328
z
" transform="scale(0.015625)"/>
     <path id="DejaVuSans-Bold-1a" d="M 428 4666
L 3944 4666
L 3944 3988
L 2125 0
L 953 0
L 2675 3781
L 428 3781
L 428 4666
z
" transform="scale(0.015625)"/>
     <path id="DejaVuSans-Bold-13ab" d="M 3078 4863
L 4206 4863
L 4206 3950
L 3078 3950
L 3078 4863
z
M 2847 4863
L 2847 4128
L 2228 4128
Q 1994 4128 1903 4042
Q 1813 3956 1813 3744
L 1813 3500
L 4206 3500
L 4206 0
L 3078 0
L 3078 2700
L 1813 2700
L 1813 0
L 684 0
L 684 2700
L 134 2700
L 134 3500
L 684 3500
L 684 3744
Q 684 4316 1003 4589
Q 1322 4863 1991 4863
L 2847 4863
z
" transform="scale(0.015625)"/>
     <path id="DejaVuSans-Bold-13aa" d="M 2841 4863
L 2841 4128
L 2222 4128
Q 1984 4128 1891 4044
Q 1797 3956 1797 3744
L 1797 3500
L 3078 3500
L 3078 3744
Q 3078 4316 3397 4588
Q 3716 4863 4384 4863
L 5241 4863
L 5241 4128
L 4622 4128
Q 4384 4128 4291 4044
Q 4197 3956 4197 3744
L 4197 3500
L 5153 3500
L 5153 2700
L 4197 2700
L 4197 0
L 3078 0
L 3078 2700
L 1797 2700
L 1797 0
L 678 0
L 678 2700
L 122 2700
L 122 3500
L 678 3500
L 678 3744
Q 678 4316 997 4588
Q 1316 4863 1984 4863
L 2841 4863
z
" transform="scale(0.015625)"/>
    </defs>
    <use xlink:href="#DejaVuSans-Bold-28"/>
    <use xlink:href="#DejaVuSans-Bold-3b" transform="translate(68.3125 0)"/>
    <use xlink:href="#DejaVuSans-Bold-33" transform="translate(145.40625 0)"/>
    <use xlink:href="#DejaVuSans-Bold-10" transform="translate(216.953125 0)"/>
    <use xlink:href="#DejaVuSans-Bold-13" transform="translate(258.453125 0)"/>
    <use xlink:href="#DejaVuSans-Bold-1a" transform="translate(328.03125 0)"/>
    <use xlink:href="#DejaVuSans-Bold-1d" transform="translate(397.609375 0)"/>
    <use xlink:href="#DejaVuSans-Bold-3" transform="translate(437.59375 0)"/>
    <use xlink:href="#DejaVuSans-Bold-46" transform="translate(472.40625 0)"/>
    <use xlink:href="#DejaVuSans-Bold-52" transform="translate(531.6875 0)"/>
    <use xlink:href="#DejaVuSans-Bold-51" transform="translate(600.390625 0)"/>
    <use xlink:href="#DejaVuSans-Bold-13ab" transform="translate(671.578125 0)"/>
    <use xlink:href="#DejaVuSans-Bold-55" transform="translate(745.703125 0)"/>
    <use xlink:href="#DejaVuSans-Bold-50" transform="translate(795.015625 0)"/>
    <use xlink:href="#DejaVuSans-Bold-44" transform="translate(899.21875 0)"/>
    <use xlink:href="#DejaVuSans-Bold-57" transform="translate(966.703125 0)"/>
    <use xlink:href="#DejaVuSans-Bold-52" transform="translate(1014.5 0)"/>
    <use xlink:href="#DejaVuSans-Bold-55" transform="translate(1083.203125 0)"/>
    <use xlink:href="#DejaVuSans-Bold-5c" transform="translate(1132.515625 0)"/>
    <use xlink:href="#DejaVuSans-Bold-3" transform="translate(1197.703125 0)"/>
    <use xlink:href="#DejaVuSans-Bold-53" transform="translate(1232.515625 0)"/>
    <use xlink:href="#DejaVuSans-Bold-44" transform="translate(1304.09375 0)"/>
    <use xlink:href="#DejaVuSans-Bold-4c" transform="translate(1371.578125 0)"/>
    <use xlink:href="#DejaVuSans-Bold-55" transform="translate(1405.859375 0)"/>
    <use xlink:href="#DejaVuSans-Bold-48" transform="translate(1455.171875 0)"/>
    <use xlink:href="#DejaVuSans-Bold-47" transform="translate(1523 0)"/>
    <use xlink:href="#DejaVuSans-Bold-3" transform="translate(1594.578125 0)"/>
    <use xlink:href="#DejaVuSans-Bold-48" transform="translate(1629.390625 0)"/>
    <use xlink:href="#DejaVuSans-Bold-13aa" transform="translate(1697.21875 0)"/>
    <use xlink:href="#DejaVuSans-Bold-48" transform="translate(1778.21875 0)"/>
    <use xlink:href="#DejaVuSans-Bold-46" transform="translate(1846.046875 0)"/>
    <use xlink:href="#DejaVuSans-Bold-57" transform="translate(1905.328125 0)"/>
    <use xlink:href="#DejaVuSans-Bold-56" transform="translate(1953.125 0)"/>
   </g>
  </g>
 </g>
 <defs>
  <clipPath id="p4c8b5df2e7">
   <rect x="58.846094" y="43.319777" width="451.68476" height="289.488983"/>
  </clipPath>
  <clipPath id="p2f41e64892">
   <rect x="557.51476" y="43.319777" width="451.68476" height="289.488983"/>
  </clipPath>
  <clipPath id="p90a70102f4">
   <rect x="58.846094" y="387.007076" width="451.68476" height="289.488983"/>
  </clipPath>
  <clipPath id="pb225b0c2e9">
   <rect x="557.51476" y="387.007076" width="451.68476" height="289.488983"/>
  </clipPath>
 </defs>
</svg>
